G04 #@! TF.GenerationSoftware,KiCad,Pcbnew,(5.1.4)-1*
G04 #@! TF.CreationDate,2020-10-26T08:25:04-07:00*
G04 #@! TF.ProjectId,bottom plate,626f7474-6f6d-4207-906c-6174652e6b69,rev?*
G04 #@! TF.SameCoordinates,Original*
G04 #@! TF.FileFunction,Soldermask,Bot*
G04 #@! TF.FilePolarity,Negative*
%FSLAX46Y46*%
G04 Gerber Fmt 4.6, Leading zero omitted, Abs format (unit mm)*
G04 Created by KiCad (PCBNEW (5.1.4)-1) date 2020-10-26 08:25:04*
%MOMM*%
%LPD*%
G04 APERTURE LIST*
%ADD10C,0.100000*%
G04 APERTURE END LIST*
D10*
G36*
X22823254Y-88515318D02*
G01*
X23196511Y-88669926D01*
X23196513Y-88669927D01*
X23532436Y-88894384D01*
X23818116Y-89180064D01*
X24042113Y-89515298D01*
X24042574Y-89515989D01*
X24197182Y-89889246D01*
X24276000Y-90285493D01*
X24276000Y-90689507D01*
X24197182Y-91085754D01*
X24085398Y-91355624D01*
X24042573Y-91459013D01*
X23818116Y-91794936D01*
X23532436Y-92080616D01*
X23196513Y-92305073D01*
X23196512Y-92305074D01*
X23196511Y-92305074D01*
X22823254Y-92459682D01*
X22427007Y-92538500D01*
X22022993Y-92538500D01*
X21626746Y-92459682D01*
X21253489Y-92305074D01*
X21253488Y-92305074D01*
X21253487Y-92305073D01*
X20917564Y-92080616D01*
X20631884Y-91794936D01*
X20407427Y-91459013D01*
X20364602Y-91355624D01*
X20252818Y-91085754D01*
X20174000Y-90689507D01*
X20174000Y-90285493D01*
X20252818Y-89889246D01*
X20407426Y-89515989D01*
X20407888Y-89515298D01*
X20631884Y-89180064D01*
X20917564Y-88894384D01*
X21253487Y-88669927D01*
X21253489Y-88669926D01*
X21626746Y-88515318D01*
X22022993Y-88436500D01*
X22427007Y-88436500D01*
X22823254Y-88515318D01*
X22823254Y-88515318D01*
G37*
G36*
X206973254Y-88515318D02*
G01*
X207346511Y-88669926D01*
X207346513Y-88669927D01*
X207682436Y-88894384D01*
X207968116Y-89180064D01*
X208192113Y-89515298D01*
X208192574Y-89515989D01*
X208347182Y-89889246D01*
X208426000Y-90285493D01*
X208426000Y-90689507D01*
X208347182Y-91085754D01*
X208235398Y-91355624D01*
X208192573Y-91459013D01*
X207968116Y-91794936D01*
X207682436Y-92080616D01*
X207346513Y-92305073D01*
X207346512Y-92305074D01*
X207346511Y-92305074D01*
X206973254Y-92459682D01*
X206577007Y-92538500D01*
X206172993Y-92538500D01*
X205776746Y-92459682D01*
X205403489Y-92305074D01*
X205403488Y-92305074D01*
X205403487Y-92305073D01*
X205067564Y-92080616D01*
X204781884Y-91794936D01*
X204557427Y-91459013D01*
X204514602Y-91355624D01*
X204402818Y-91085754D01*
X204324000Y-90689507D01*
X204324000Y-90285493D01*
X204402818Y-89889246D01*
X204557426Y-89515989D01*
X204557888Y-89515298D01*
X204781884Y-89180064D01*
X205067564Y-88894384D01*
X205403487Y-88669927D01*
X205403489Y-88669926D01*
X205776746Y-88515318D01*
X206172993Y-88436500D01*
X206577007Y-88436500D01*
X206973254Y-88515318D01*
X206973254Y-88515318D01*
G37*
G36*
X114898254Y-53590318D02*
G01*
X115271511Y-53744926D01*
X115271513Y-53744927D01*
X115607436Y-53969384D01*
X115893116Y-54255064D01*
X116117113Y-54590298D01*
X116117574Y-54590989D01*
X116272182Y-54964246D01*
X116351000Y-55360493D01*
X116351000Y-55764507D01*
X116272182Y-56160754D01*
X116160398Y-56430624D01*
X116117573Y-56534013D01*
X115893116Y-56869936D01*
X115607436Y-57155616D01*
X115271513Y-57380073D01*
X115271512Y-57380074D01*
X115271511Y-57380074D01*
X114898254Y-57534682D01*
X114502007Y-57613500D01*
X114097993Y-57613500D01*
X113701746Y-57534682D01*
X113328489Y-57380074D01*
X113328488Y-57380074D01*
X113328487Y-57380073D01*
X112992564Y-57155616D01*
X112706884Y-56869936D01*
X112482427Y-56534013D01*
X112439602Y-56430624D01*
X112327818Y-56160754D01*
X112249000Y-55764507D01*
X112249000Y-55360493D01*
X112327818Y-54964246D01*
X112482426Y-54590989D01*
X112482888Y-54590298D01*
X112706884Y-54255064D01*
X112992564Y-53969384D01*
X113328487Y-53744927D01*
X113328489Y-53744926D01*
X113701746Y-53590318D01*
X114097993Y-53511500D01*
X114502007Y-53511500D01*
X114898254Y-53590318D01*
X114898254Y-53590318D01*
G37*
G36*
X61717004Y-29777818D02*
G01*
X62090261Y-29932426D01*
X62090263Y-29932427D01*
X62426186Y-30156884D01*
X62711866Y-30442564D01*
X62936324Y-30778489D01*
X63090932Y-31151746D01*
X63169750Y-31547993D01*
X63169750Y-31952007D01*
X63090932Y-32348254D01*
X62936324Y-32721511D01*
X62936323Y-32721513D01*
X62711866Y-33057436D01*
X62426186Y-33343116D01*
X62090263Y-33567573D01*
X62090262Y-33567574D01*
X62090261Y-33567574D01*
X61717004Y-33722182D01*
X61320757Y-33801000D01*
X60916743Y-33801000D01*
X60520496Y-33722182D01*
X60147239Y-33567574D01*
X60147238Y-33567574D01*
X60147237Y-33567573D01*
X59811314Y-33343116D01*
X59525634Y-33057436D01*
X59301177Y-32721513D01*
X59301176Y-32721511D01*
X59146568Y-32348254D01*
X59067750Y-31952007D01*
X59067750Y-31547993D01*
X59146568Y-31151746D01*
X59301176Y-30778489D01*
X59525634Y-30442564D01*
X59811314Y-30156884D01*
X60147237Y-29932427D01*
X60147239Y-29932426D01*
X60520496Y-29777818D01*
X60916743Y-29699000D01*
X61320757Y-29699000D01*
X61717004Y-29777818D01*
X61717004Y-29777818D01*
G37*
G36*
X206973254Y-18665318D02*
G01*
X207346511Y-18819926D01*
X207346513Y-18819927D01*
X207682436Y-19044384D01*
X207968116Y-19330064D01*
X208192113Y-19665298D01*
X208192574Y-19665989D01*
X208347182Y-20039246D01*
X208426000Y-20435493D01*
X208426000Y-20839507D01*
X208347182Y-21235754D01*
X208235398Y-21505624D01*
X208192573Y-21609013D01*
X207968116Y-21944936D01*
X207682436Y-22230616D01*
X207346513Y-22455073D01*
X207346512Y-22455074D01*
X207346511Y-22455074D01*
X206973254Y-22609682D01*
X206577007Y-22688500D01*
X206172993Y-22688500D01*
X205776746Y-22609682D01*
X205403489Y-22455074D01*
X205403488Y-22455074D01*
X205403487Y-22455073D01*
X205067564Y-22230616D01*
X204781884Y-21944936D01*
X204557427Y-21609013D01*
X204514602Y-21505624D01*
X204402818Y-21235754D01*
X204324000Y-20839507D01*
X204324000Y-20435493D01*
X204402818Y-20039246D01*
X204557426Y-19665989D01*
X204557888Y-19665298D01*
X204781884Y-19330064D01*
X205067564Y-19044384D01*
X205403487Y-18819927D01*
X205403489Y-18819926D01*
X205776746Y-18665318D01*
X206172993Y-18586500D01*
X206577007Y-18586500D01*
X206973254Y-18665318D01*
X206973254Y-18665318D01*
G37*
G36*
X22823254Y-18665318D02*
G01*
X23196511Y-18819926D01*
X23196513Y-18819927D01*
X23532436Y-19044384D01*
X23818116Y-19330064D01*
X24042113Y-19665298D01*
X24042574Y-19665989D01*
X24197182Y-20039246D01*
X24276000Y-20435493D01*
X24276000Y-20839507D01*
X24197182Y-21235754D01*
X24085398Y-21505624D01*
X24042573Y-21609013D01*
X23818116Y-21944936D01*
X23532436Y-22230616D01*
X23196513Y-22455073D01*
X23196512Y-22455074D01*
X23196511Y-22455074D01*
X22823254Y-22609682D01*
X22427007Y-22688500D01*
X22022993Y-22688500D01*
X21626746Y-22609682D01*
X21253489Y-22455074D01*
X21253488Y-22455074D01*
X21253487Y-22455073D01*
X20917564Y-22230616D01*
X20631884Y-21944936D01*
X20407427Y-21609013D01*
X20364602Y-21505624D01*
X20252818Y-21235754D01*
X20174000Y-20839507D01*
X20174000Y-20435493D01*
X20252818Y-20039246D01*
X20407426Y-19665989D01*
X20407888Y-19665298D01*
X20631884Y-19330064D01*
X20917564Y-19044384D01*
X21253487Y-18819927D01*
X21253489Y-18819926D01*
X21626746Y-18665318D01*
X22022993Y-18586500D01*
X22427007Y-18586500D01*
X22823254Y-18665318D01*
X22823254Y-18665318D01*
G37*
M02*
