M48
; DRILL file {KiCad (5.1.4)-1} date 10/26/2020 8:25:05 AM
; FORMAT={-:-/ absolute / inch / decimal}
; #@! TF.CreationDate,2020-10-26T08:25:05-07:00
; #@! TF.GenerationSoftware,Kicad,Pcbnew,(5.1.4)-1
; #@! TF.FileFunction,Plated,1,2,PTH
FMAT,2
INCH
T1C0.0157
T2C0.0906
%
G90
G05
T1
X0.8159Y-3.5625
X0.8333Y-3.5208
X0.8333Y-3.6042
X0.875Y-3.5034
X0.875Y-3.6216
X0.9167Y-3.5208
X0.9167Y-3.6042
X0.9341Y-3.5625
X4.4409Y-2.1875
X4.4583Y-2.1458
X4.4583Y-2.2292
X4.5Y-2.1284
X4.5Y-2.2466
X4.5417Y-2.1458
X4.5417Y-2.2292
X4.5591Y-2.1875
X8.0659Y-0.8125
X8.0833Y-0.7708
X8.0833Y-0.8542
X8.125Y-0.7534
X8.125Y-0.8716
X8.1667Y-0.7708
X8.1667Y-0.8542
X8.1841Y-0.8125
X0.8159Y-0.8125
X0.8333Y-0.7708
X0.8333Y-0.8542
X0.875Y-0.7534
X0.875Y-0.8716
X0.9167Y-0.7708
X0.9167Y-0.8542
X0.9341Y-0.8125
X8.0659Y-3.5625
X8.0833Y-3.5208
X8.0833Y-3.6042
X8.125Y-3.5034
X8.125Y-3.6216
X8.1667Y-3.5208
X8.1667Y-3.6042
X8.1841Y-3.5625
T2
X0.875Y-3.5625
X4.5Y-2.1875
X8.125Y-0.8125
X0.875Y-0.8125
X8.125Y-3.5625
T0
M30
