G04 #@! TF.GenerationSoftware,KiCad,Pcbnew,(5.1.4)-1*
G04 #@! TF.CreationDate,2020-10-26T08:06:33-07:00*
G04 #@! TF.ProjectId,bottom plate,626f7474-6f6d-4207-906c-6174652e6b69,rev?*
G04 #@! TF.SameCoordinates,Original*
G04 #@! TF.FileFunction,Copper,L2,Bot*
G04 #@! TF.FilePolarity,Positive*
%FSLAX46Y46*%
G04 Gerber Fmt 4.6, Leading zero omitted, Abs format (unit mm)*
G04 Created by KiCad (PCBNEW (5.1.4)-1) date 2020-10-26 08:06:33*
%MOMM*%
%LPD*%
G04 APERTURE LIST*
%ADD10C,0.500000*%
%ADD11C,4.000000*%
G04 APERTURE END LIST*
D10*
X115360000Y-54502500D03*
X113240000Y-54502500D03*
X113240000Y-56622500D03*
X115360000Y-56622500D03*
X114300000Y-54062500D03*
X114300000Y-57062500D03*
X112800000Y-55562500D03*
X115800000Y-55562500D03*
D11*
X114300000Y-55562500D03*
D10*
X207435000Y-89427500D03*
X205315000Y-89427500D03*
X205315000Y-91547500D03*
X207435000Y-91547500D03*
X206375000Y-88987500D03*
X206375000Y-91987500D03*
X204875000Y-90487500D03*
X207875000Y-90487500D03*
D11*
X206375000Y-90487500D03*
D10*
X207435000Y-19577500D03*
X205315000Y-19577500D03*
X205315000Y-21697500D03*
X207435000Y-21697500D03*
X206375000Y-19137500D03*
X206375000Y-22137500D03*
X204875000Y-20637500D03*
X207875000Y-20637500D03*
D11*
X206375000Y-20637500D03*
D10*
X23285000Y-19577500D03*
X21165000Y-19577500D03*
X21165000Y-21697500D03*
X23285000Y-21697500D03*
X22225000Y-19137500D03*
X22225000Y-22137500D03*
X20725000Y-20637500D03*
X23725000Y-20637500D03*
D11*
X22225000Y-20637500D03*
D10*
X23285000Y-89427500D03*
X21165000Y-89427500D03*
X21165000Y-91547500D03*
X23285000Y-91547500D03*
X22225000Y-88987500D03*
X22225000Y-91987500D03*
X20725000Y-90487500D03*
X23725000Y-90487500D03*
D11*
X22225000Y-90487500D03*
M02*
