G04 #@! TF.GenerationSoftware,KiCad,Pcbnew,(5.1.4)-1*
G04 #@! TF.CreationDate,2020-10-26T08:25:04-07:00*
G04 #@! TF.ProjectId,bottom plate,626f7474-6f6d-4207-906c-6174652e6b69,rev?*
G04 #@! TF.SameCoordinates,Original*
G04 #@! TF.FileFunction,Legend,Top*
G04 #@! TF.FilePolarity,Positive*
%FSLAX46Y46*%
G04 Gerber Fmt 4.6, Leading zero omitted, Abs format (unit mm)*
G04 Created by KiCad (PCBNEW (5.1.4)-1) date 2020-10-26 08:25:04*
%MOMM*%
%LPD*%
G04 APERTURE LIST*
%ADD10C,0.150000*%
G04 APERTURE END LIST*
D10*
X109680952Y-50252380D02*
X109680952Y-50966666D01*
X109633333Y-51109523D01*
X109538095Y-51204761D01*
X109395238Y-51252380D01*
X109300000Y-51252380D01*
X110633333Y-51252380D02*
X110157142Y-51252380D01*
X110157142Y-50252380D01*
X111538095Y-51157142D02*
X111490476Y-51204761D01*
X111347619Y-51252380D01*
X111252380Y-51252380D01*
X111109523Y-51204761D01*
X111014285Y-51109523D01*
X110966666Y-51014285D01*
X110919047Y-50823809D01*
X110919047Y-50680952D01*
X110966666Y-50490476D01*
X111014285Y-50395238D01*
X111109523Y-50300000D01*
X111252380Y-50252380D01*
X111347619Y-50252380D01*
X111490476Y-50300000D01*
X111538095Y-50347619D01*
X112252380Y-50252380D02*
X112252380Y-50966666D01*
X112204761Y-51109523D01*
X112109523Y-51204761D01*
X111966666Y-51252380D01*
X111871428Y-51252380D01*
X113204761Y-51252380D02*
X112728571Y-51252380D01*
X112728571Y-50252380D01*
X114109523Y-51157142D02*
X114061904Y-51204761D01*
X113919047Y-51252380D01*
X113823809Y-51252380D01*
X113680952Y-51204761D01*
X113585714Y-51109523D01*
X113538095Y-51014285D01*
X113490476Y-50823809D01*
X113490476Y-50680952D01*
X113538095Y-50490476D01*
X113585714Y-50395238D01*
X113680952Y-50300000D01*
X113823809Y-50252380D01*
X113919047Y-50252380D01*
X114061904Y-50300000D01*
X114109523Y-50347619D01*
X114823809Y-50252380D02*
X114823809Y-50966666D01*
X114776190Y-51109523D01*
X114680952Y-51204761D01*
X114538095Y-51252380D01*
X114442857Y-51252380D01*
X115776190Y-51252380D02*
X115300000Y-51252380D01*
X115300000Y-50252380D01*
X116680952Y-51157142D02*
X116633333Y-51204761D01*
X116490476Y-51252380D01*
X116395238Y-51252380D01*
X116252380Y-51204761D01*
X116157142Y-51109523D01*
X116109523Y-51014285D01*
X116061904Y-50823809D01*
X116061904Y-50680952D01*
X116109523Y-50490476D01*
X116157142Y-50395238D01*
X116252380Y-50300000D01*
X116395238Y-50252380D01*
X116490476Y-50252380D01*
X116633333Y-50300000D01*
X116680952Y-50347619D01*
X117395238Y-50252380D02*
X117395238Y-50966666D01*
X117347619Y-51109523D01*
X117252380Y-51204761D01*
X117109523Y-51252380D01*
X117014285Y-51252380D01*
X118347619Y-51252380D02*
X117871428Y-51252380D01*
X117871428Y-50252380D01*
X119252380Y-51157142D02*
X119204761Y-51204761D01*
X119061904Y-51252380D01*
X118966666Y-51252380D01*
X118823809Y-51204761D01*
X118728571Y-51109523D01*
X118680952Y-51014285D01*
X118633333Y-50823809D01*
X118633333Y-50680952D01*
X118680952Y-50490476D01*
X118728571Y-50395238D01*
X118823809Y-50300000D01*
X118966666Y-50252380D01*
X119061904Y-50252380D01*
X119204761Y-50300000D01*
X119252380Y-50347619D01*
M02*
