G04 #@! TF.GenerationSoftware,KiCad,Pcbnew,(5.1.4)-1*
G04 #@! TF.CreationDate,2020-10-26T08:10:00-07:00*
G04 #@! TF.ProjectId,cheapcheep,63686561-7063-4686-9565-702e6b696361,rev?*
G04 #@! TF.SameCoordinates,Original*
G04 #@! TF.FileFunction,Copper,L2,Bot*
G04 #@! TF.FilePolarity,Positive*
%FSLAX46Y46*%
G04 Gerber Fmt 4.6, Leading zero omitted, Abs format (unit mm)*
G04 Created by KiCad (PCBNEW (5.1.4)-1) date 2020-10-26 08:10:00*
%MOMM*%
%LPD*%
G04 APERTURE LIST*
%ADD10C,0.500000*%
%ADD11C,4.000000*%
%ADD12C,2.250000*%
%ADD13O,1.600000X1.600000*%
%ADD14R,1.600000X1.600000*%
%ADD15C,1.752600*%
%ADD16R,1.752600X1.752600*%
%ADD17R,1.800000X1.100000*%
%ADD18C,0.250000*%
G04 APERTURE END LIST*
D10*
X115360000Y-54502500D03*
X113240000Y-54502500D03*
X113240000Y-56622500D03*
X115360000Y-56622500D03*
X114300000Y-54062500D03*
X114300000Y-57062500D03*
X112800000Y-55562500D03*
X115800000Y-55562500D03*
D11*
X114300000Y-55562500D03*
D10*
X23285000Y-19577500D03*
X21165000Y-19577500D03*
X21165000Y-21697500D03*
X23285000Y-21697500D03*
X22225000Y-19137500D03*
X22225000Y-22137500D03*
X20725000Y-20637500D03*
X23725000Y-20637500D03*
D11*
X22225000Y-20637500D03*
D10*
X207435000Y-19577500D03*
X205315000Y-19577500D03*
X205315000Y-21697500D03*
X207435000Y-21697500D03*
X206375000Y-19137500D03*
X206375000Y-22137500D03*
X204875000Y-20637500D03*
X207875000Y-20637500D03*
D11*
X206375000Y-20637500D03*
D12*
X197485000Y-89217500D03*
X203835000Y-86677500D03*
D10*
X207435000Y-89427500D03*
X205315000Y-89427500D03*
X205315000Y-91547500D03*
X207435000Y-91547500D03*
X206375000Y-88987500D03*
X206375000Y-91987500D03*
X204875000Y-90487500D03*
X207875000Y-90487500D03*
D11*
X206375000Y-90487500D03*
D10*
X23285000Y-89427500D03*
X21165000Y-89427500D03*
X21165000Y-91547500D03*
X23285000Y-91547500D03*
X22225000Y-88987500D03*
X22225000Y-91987500D03*
X20725000Y-90487500D03*
X23725000Y-90487500D03*
D11*
X22225000Y-90487500D03*
D12*
X145415000Y-79057500D03*
X139065000Y-81597500D03*
X83185000Y-89217500D03*
X89535000Y-86677500D03*
D13*
X207962500Y-78898750D03*
D14*
X207962500Y-86518750D03*
D13*
X184626250Y-92075000D03*
D14*
X177006250Y-92075000D03*
D13*
X156051250Y-92075000D03*
D14*
X148431250Y-92075000D03*
D13*
X134143750Y-80486250D03*
D14*
X134143750Y-88106250D03*
D13*
X129698750Y-92075000D03*
D14*
X137318750Y-92075000D03*
D13*
X117951250Y-92075000D03*
D14*
X110331250Y-92075000D03*
D13*
X94456250Y-80486250D03*
D14*
X94456250Y-88106250D03*
D13*
X79851250Y-92075000D03*
D14*
X72231250Y-92075000D03*
D13*
X51276250Y-92075000D03*
D14*
X43656250Y-92075000D03*
D13*
X20637500Y-78898750D03*
D14*
X20637500Y-86518750D03*
D13*
X207962500Y-61436250D03*
D14*
X207962500Y-69056250D03*
D13*
X189706250Y-61436250D03*
D14*
X189706250Y-69056250D03*
D13*
X170656250Y-61436250D03*
D14*
X170656250Y-69056250D03*
D13*
X151606250Y-61436250D03*
D14*
X151606250Y-69056250D03*
D13*
X132556250Y-61436250D03*
D14*
X132556250Y-69056250D03*
D13*
X113506250Y-61436250D03*
D14*
X113506250Y-69056250D03*
D13*
X94456250Y-61436250D03*
D14*
X94456250Y-69056250D03*
D13*
X75406250Y-61436250D03*
D14*
X75406250Y-69056250D03*
D13*
X56356250Y-61436250D03*
D14*
X56356250Y-69056250D03*
D13*
X37306250Y-61436250D03*
D14*
X37306250Y-69056250D03*
D13*
X207962500Y-42386250D03*
D14*
X207962500Y-50006250D03*
D13*
X189706250Y-42386250D03*
D14*
X189706250Y-50006250D03*
D13*
X170656250Y-42386250D03*
D14*
X170656250Y-50006250D03*
D13*
X151606250Y-42386250D03*
D14*
X151606250Y-50006250D03*
D13*
X132556250Y-42386250D03*
D14*
X132556250Y-50006250D03*
D13*
X113506250Y-42386250D03*
D14*
X113506250Y-50006250D03*
D13*
X94456250Y-42386250D03*
D14*
X94456250Y-50006250D03*
D13*
X77787500Y-42386250D03*
D14*
X77787500Y-50006250D03*
D13*
X74612500Y-42386250D03*
D14*
X74612500Y-50006250D03*
D13*
X20637500Y-42386250D03*
D14*
X20637500Y-50006250D03*
D13*
X207962500Y-24130000D03*
D14*
X207962500Y-31750000D03*
D13*
X189706250Y-23336250D03*
D14*
X189706250Y-30956250D03*
D13*
X170656250Y-23336250D03*
D14*
X170656250Y-30956250D03*
D13*
X151606250Y-23336250D03*
D14*
X151606250Y-30956250D03*
D13*
X132556250Y-23336250D03*
D14*
X132556250Y-30956250D03*
D13*
X113506250Y-23336250D03*
D14*
X113506250Y-30956250D03*
D13*
X94456250Y-23336250D03*
D14*
X94456250Y-30956250D03*
D13*
X77787500Y-23336250D03*
D14*
X77787500Y-30956250D03*
D13*
X74612500Y-23336250D03*
D14*
X74612500Y-30956250D03*
D13*
X20637500Y-24130000D03*
D14*
X20637500Y-31750000D03*
D12*
X83185000Y-89217500D03*
X89535000Y-86677500D03*
D15*
X55245000Y-22542500D03*
X40005000Y-50482500D03*
X55245000Y-25082500D03*
X55245000Y-27622500D03*
X55245000Y-30162500D03*
X55245000Y-32702500D03*
X55245000Y-35242500D03*
X55245000Y-37782500D03*
X55245000Y-40322500D03*
X55245000Y-42862500D03*
X55245000Y-45402500D03*
X55245000Y-47942500D03*
X55245000Y-50482500D03*
X40005000Y-47942500D03*
X40005000Y-45402500D03*
X40005000Y-42862500D03*
X40005000Y-40322500D03*
X40005000Y-37782500D03*
X40005000Y-35242500D03*
X40005000Y-32702500D03*
X40005000Y-30162500D03*
X40005000Y-27622500D03*
X40005000Y-25082500D03*
D16*
X40005000Y-22542500D03*
D17*
X64218750Y-33600000D03*
X58018750Y-29900000D03*
X64218750Y-29900000D03*
X58018750Y-33600000D03*
D12*
X145415000Y-79057500D03*
X139065000Y-81597500D03*
X197802500Y-79057500D03*
X191452500Y-81597500D03*
X154940000Y-79057500D03*
X148590000Y-81597500D03*
X116840000Y-79057500D03*
X110490000Y-81597500D03*
X78740000Y-79057500D03*
X72390000Y-81597500D03*
X30797500Y-89217500D03*
X37147500Y-86677500D03*
X183515000Y-79057500D03*
X177165000Y-81597500D03*
X159385000Y-89217500D03*
X165735000Y-86677500D03*
X121285000Y-89217500D03*
X127635000Y-86677500D03*
X107315000Y-79057500D03*
X100965000Y-81597500D03*
X69215000Y-79057500D03*
X62865000Y-81597500D03*
X50165000Y-79057500D03*
X43815000Y-81597500D03*
X31115000Y-79057500D03*
X24765000Y-81597500D03*
X116840000Y-79057500D03*
X110490000Y-81597500D03*
X202565000Y-60007500D03*
X196215000Y-62547500D03*
X183515000Y-60007500D03*
X177165000Y-62547500D03*
X164465000Y-60007500D03*
X158115000Y-62547500D03*
X145415000Y-60007500D03*
X139065000Y-62547500D03*
X126365000Y-60007500D03*
X120015000Y-62547500D03*
X107315000Y-60007500D03*
X100965000Y-62547500D03*
X88265000Y-60007500D03*
X81915000Y-62547500D03*
X69215000Y-60007500D03*
X62865000Y-62547500D03*
X50165000Y-60007500D03*
X43815000Y-62547500D03*
X31115000Y-60007500D03*
X24765000Y-62547500D03*
X202565000Y-40957500D03*
X196215000Y-43497500D03*
X183515000Y-40957500D03*
X177165000Y-43497500D03*
X164465000Y-40957500D03*
X158115000Y-43497500D03*
X145415000Y-40957500D03*
X139065000Y-43497500D03*
X126365000Y-40957500D03*
X120015000Y-43497500D03*
X107315000Y-40957500D03*
X100965000Y-43497500D03*
X88265000Y-40957500D03*
X81915000Y-43497500D03*
X69215000Y-40957500D03*
X62865000Y-43497500D03*
X50165000Y-40957500D03*
X43815000Y-43497500D03*
X31115000Y-40957500D03*
X24765000Y-43497500D03*
X202565000Y-21907500D03*
X196215000Y-24447500D03*
X183515000Y-21907500D03*
X177165000Y-24447500D03*
X164465000Y-21907500D03*
X158115000Y-24447500D03*
X145415000Y-21907500D03*
X139065000Y-24447500D03*
X126365000Y-21907500D03*
X120015000Y-24447500D03*
X107315000Y-21907500D03*
X100965000Y-24447500D03*
X88265000Y-21907500D03*
X81915000Y-24447500D03*
X69215000Y-21907500D03*
X62865000Y-24447500D03*
X50165000Y-21907500D03*
X43815000Y-24447500D03*
X31115000Y-21907500D03*
X24765000Y-24447500D03*
D18*
X29524010Y-21907500D02*
X31115000Y-21907500D01*
X28434011Y-22997499D02*
X29524010Y-21907500D01*
X21770001Y-22997499D02*
X28434011Y-22997499D01*
X20637500Y-24130000D02*
X21770001Y-22997499D01*
X206912500Y-30956250D02*
X189706250Y-30956250D01*
X207962500Y-30956250D02*
X206912500Y-30956250D01*
X188656250Y-30956250D02*
X170656250Y-30956250D01*
X189706250Y-30956250D02*
X188656250Y-30956250D01*
X169606250Y-30956250D02*
X151606250Y-30956250D01*
X170656250Y-30956250D02*
X169606250Y-30956250D01*
X151606250Y-30956250D02*
X132556250Y-30956250D01*
X132556250Y-30956250D02*
X113506250Y-30956250D01*
X113506250Y-30956250D02*
X94456250Y-30956250D01*
X93406250Y-30956250D02*
X77787500Y-30956250D01*
X94456250Y-30956250D02*
X93406250Y-30956250D01*
X76737500Y-30956250D02*
X74612500Y-30956250D01*
X77787500Y-30956250D02*
X76737500Y-30956250D01*
X69726260Y-34792490D02*
X73562500Y-30956250D01*
X57176238Y-34792490D02*
X69726260Y-34792490D01*
X56424947Y-34041199D02*
X57176238Y-34792490D01*
X47525576Y-34041199D02*
X56424947Y-34041199D01*
X41244275Y-40322500D02*
X47525576Y-34041199D01*
X73562500Y-30956250D02*
X74612500Y-30956250D01*
X40005000Y-40322500D02*
X41244275Y-40322500D01*
X30638750Y-30956250D02*
X40005000Y-40322500D01*
X20637500Y-30956250D02*
X30638750Y-30956250D01*
X207962500Y-31750000D02*
X207962500Y-30956250D01*
X20637500Y-31750000D02*
X20637500Y-30956250D01*
X73812501Y-24136249D02*
X74612500Y-23336250D01*
X69297747Y-24136249D02*
X73812501Y-24136249D01*
X65943999Y-20782501D02*
X69297747Y-24136249D01*
X51289999Y-20782501D02*
X65943999Y-20782501D01*
X50165000Y-21907500D02*
X51289999Y-20782501D01*
X76358750Y-21907500D02*
X77787500Y-23336250D01*
X69215000Y-21907500D02*
X76358750Y-21907500D01*
X93027500Y-21907500D02*
X94456250Y-23336250D01*
X88265000Y-21907500D02*
X93027500Y-21907500D01*
X112077500Y-21907500D02*
X113506250Y-23336250D01*
X107315000Y-21907500D02*
X112077500Y-21907500D01*
X131127500Y-21907500D02*
X132556250Y-23336250D01*
X126365000Y-21907500D02*
X131127500Y-21907500D01*
X150177500Y-21907500D02*
X151606250Y-23336250D01*
X145415000Y-21907500D02*
X150177500Y-21907500D01*
X169227500Y-21907500D02*
X170656250Y-23336250D01*
X164465000Y-21907500D02*
X169227500Y-21907500D01*
X188277500Y-21907500D02*
X189706250Y-23336250D01*
X183515000Y-21907500D02*
X188277500Y-21907500D01*
X204787500Y-24130000D02*
X207962500Y-24130000D01*
X202565000Y-21907500D02*
X204787500Y-24130000D01*
X29524010Y-40957500D02*
X31115000Y-40957500D01*
X20934880Y-40957500D02*
X29524010Y-40957500D01*
X20637500Y-41254880D02*
X20934880Y-40957500D01*
X20637500Y-42386250D02*
X20637500Y-41254880D01*
X206912500Y-50006250D02*
X189706250Y-50006250D01*
X207962500Y-50006250D02*
X206912500Y-50006250D01*
X188656250Y-50006250D02*
X170656250Y-50006250D01*
X189706250Y-50006250D02*
X188656250Y-50006250D01*
X169606250Y-50006250D02*
X151606250Y-50006250D01*
X170656250Y-50006250D02*
X169606250Y-50006250D01*
X151606250Y-50006250D02*
X132556250Y-50006250D01*
X131506250Y-50006250D02*
X113506250Y-50006250D01*
X132556250Y-50006250D02*
X131506250Y-50006250D01*
X112456250Y-50006250D02*
X94456250Y-50006250D01*
X113506250Y-50006250D02*
X112456250Y-50006250D01*
X93406250Y-50006250D02*
X77787500Y-50006250D01*
X94456250Y-50006250D02*
X93406250Y-50006250D01*
X76737500Y-50006250D02*
X74612500Y-50006250D01*
X77787500Y-50006250D02*
X76737500Y-50006250D01*
X73562500Y-50006250D02*
X74612500Y-50006250D01*
X71884949Y-51683801D02*
X73562500Y-50006250D01*
X21687500Y-50006250D02*
X23365051Y-51683801D01*
X20637500Y-50006250D02*
X21687500Y-50006250D01*
X40005000Y-51672602D02*
X40016199Y-51683801D01*
X40005000Y-50482500D02*
X40005000Y-51672602D01*
X23365051Y-51683801D02*
X40016199Y-51683801D01*
X40016199Y-51683801D02*
X71884949Y-51683801D01*
X71347449Y-39121199D02*
X73812501Y-41586251D01*
X73812501Y-41586251D02*
X74612500Y-42386250D01*
X50165000Y-39366510D02*
X50410311Y-39121199D01*
X50410311Y-39121199D02*
X71347449Y-39121199D01*
X50165000Y-40957500D02*
X50165000Y-39366510D01*
X76987501Y-43186249D02*
X77787500Y-42386250D01*
X71768751Y-43511251D02*
X76662499Y-43511251D01*
X76662499Y-43511251D02*
X76987501Y-43186249D01*
X69215000Y-40957500D02*
X71768751Y-43511251D01*
X93027500Y-40957500D02*
X94456250Y-42386250D01*
X88265000Y-40957500D02*
X93027500Y-40957500D01*
X112077500Y-40957500D02*
X113506250Y-42386250D01*
X107315000Y-40957500D02*
X112077500Y-40957500D01*
X131127500Y-40957500D02*
X132556250Y-42386250D01*
X126365000Y-40957500D02*
X131127500Y-40957500D01*
X150177500Y-40957500D02*
X151606250Y-42386250D01*
X145415000Y-40957500D02*
X150177500Y-40957500D01*
X169227500Y-40957500D02*
X170656250Y-42386250D01*
X164465000Y-40957500D02*
X169227500Y-40957500D01*
X188277500Y-40957500D02*
X189706250Y-42386250D01*
X183515000Y-40957500D02*
X188277500Y-40957500D01*
X206533750Y-40957500D02*
X207962500Y-42386250D01*
X202565000Y-40957500D02*
X206533750Y-40957500D01*
X35877500Y-60007500D02*
X37306250Y-61436250D01*
X31115000Y-60007500D02*
X35877500Y-60007500D01*
X206912500Y-69056250D02*
X189706250Y-69056250D01*
X207962500Y-69056250D02*
X206912500Y-69056250D01*
X38356250Y-69056250D02*
X56356250Y-69056250D01*
X37306250Y-69056250D02*
X38356250Y-69056250D01*
X57406250Y-69056250D02*
X75406250Y-69056250D01*
X56356250Y-69056250D02*
X57406250Y-69056250D01*
X76456250Y-69056250D02*
X94456250Y-69056250D01*
X75406250Y-69056250D02*
X76456250Y-69056250D01*
X95506250Y-69056250D02*
X113506250Y-69056250D01*
X94456250Y-69056250D02*
X95506250Y-69056250D01*
X113506250Y-69056250D02*
X132556250Y-69056250D01*
X133606250Y-69056250D02*
X151606250Y-69056250D01*
X132556250Y-69056250D02*
X133606250Y-69056250D01*
X152656250Y-69056250D02*
X170656250Y-69056250D01*
X151606250Y-69056250D02*
X152656250Y-69056250D01*
X171706250Y-69056250D02*
X189706250Y-69056250D01*
X170656250Y-69056250D02*
X171706250Y-69056250D01*
X54927500Y-60007500D02*
X56356250Y-61436250D01*
X50165000Y-60007500D02*
X54927500Y-60007500D01*
X73977500Y-60007500D02*
X75406250Y-61436250D01*
X69215000Y-60007500D02*
X73977500Y-60007500D01*
X93027500Y-60007500D02*
X94456250Y-61436250D01*
X88265000Y-60007500D02*
X93027500Y-60007500D01*
X112077500Y-60007500D02*
X113506250Y-61436250D01*
X107315000Y-60007500D02*
X112077500Y-60007500D01*
X131127500Y-60007500D02*
X132556250Y-61436250D01*
X126365000Y-60007500D02*
X131127500Y-60007500D01*
X150177500Y-60007500D02*
X151606250Y-61436250D01*
X145415000Y-60007500D02*
X150177500Y-60007500D01*
X169227500Y-60007500D02*
X170656250Y-61436250D01*
X164465000Y-60007500D02*
X169227500Y-60007500D01*
X188277500Y-60007500D02*
X189706250Y-61436250D01*
X183515000Y-60007500D02*
X188277500Y-60007500D01*
X206533750Y-60007500D02*
X207962500Y-61436250D01*
X202565000Y-60007500D02*
X206533750Y-60007500D01*
X30956250Y-78898750D02*
X31115000Y-79057500D01*
X20637500Y-78898750D02*
X30956250Y-78898750D01*
X68379749Y-89273499D02*
X71181250Y-92075000D01*
X71181250Y-92075000D02*
X72231250Y-92075000D01*
X47507751Y-89273499D02*
X68379749Y-89273499D01*
X44706250Y-92075000D02*
X47507751Y-89273499D01*
X43656250Y-92075000D02*
X44706250Y-92075000D01*
X93406250Y-88106250D02*
X94456250Y-88106250D01*
X93384999Y-88127501D02*
X93406250Y-88106250D01*
X88364727Y-88127501D02*
X93384999Y-88127501D01*
X85824727Y-90667501D02*
X88364727Y-88127501D01*
X74688749Y-90667501D02*
X85824727Y-90667501D01*
X73281250Y-92075000D02*
X74688749Y-90667501D01*
X72231250Y-92075000D02*
X73281250Y-92075000D01*
X107412500Y-88106250D02*
X110331250Y-91025000D01*
X94456250Y-88106250D02*
X107412500Y-88106250D01*
X133093750Y-88106250D02*
X134143750Y-88106250D01*
X133072499Y-88127501D02*
X133093750Y-88106250D01*
X126938999Y-88127501D02*
X133072499Y-88127501D01*
X126511498Y-87700000D02*
X126938999Y-88127501D01*
X113656250Y-87700000D02*
X126511498Y-87700000D01*
X110331250Y-91025000D02*
X113656250Y-87700000D01*
X110331250Y-92075000D02*
X110331250Y-91025000D01*
X173154749Y-89273499D02*
X175956250Y-92075000D01*
X164678997Y-87767499D02*
X166184997Y-89273499D01*
X166184997Y-89273499D02*
X173154749Y-89273499D01*
X151688751Y-87767499D02*
X164678997Y-87767499D01*
X175956250Y-92075000D02*
X177006250Y-92075000D01*
X148431250Y-91025000D02*
X151688751Y-87767499D01*
X148431250Y-92075000D02*
X148431250Y-91025000D01*
X135193750Y-88106250D02*
X134143750Y-88106250D01*
X137318750Y-92075000D02*
X137318750Y-90231250D01*
X137318750Y-90231250D02*
X135193750Y-88106250D01*
X146679749Y-89273499D02*
X148431250Y-91025000D01*
X138276501Y-89273499D02*
X146679749Y-89273499D01*
X137318750Y-90231250D02*
X138276501Y-89273499D01*
X42606250Y-92075000D02*
X43656250Y-92075000D01*
X40398998Y-92075000D02*
X42606250Y-92075000D01*
X34842748Y-86518750D02*
X40398998Y-92075000D01*
X20637500Y-86518750D02*
X34842748Y-86518750D01*
X178056250Y-92075000D02*
X177006250Y-92075000D01*
X179463749Y-90667501D02*
X178056250Y-92075000D01*
X202763749Y-90667501D02*
X179463749Y-90667501D01*
X206912500Y-86518750D02*
X202763749Y-90667501D01*
X207962500Y-86518750D02*
X206912500Y-86518750D01*
X69215000Y-79057500D02*
X78740000Y-79057500D01*
X83185000Y-87626510D02*
X83185000Y-89217500D01*
X83185000Y-83245526D02*
X83185000Y-87626510D01*
X85944276Y-80486250D02*
X83185000Y-83245526D01*
X94456250Y-80486250D02*
X85944276Y-80486250D01*
X108905990Y-79057500D02*
X116840000Y-79057500D01*
X107315000Y-79057500D02*
X108905990Y-79057500D01*
X127972620Y-89217500D02*
X129698750Y-90943630D01*
X129698750Y-90943630D02*
X129698750Y-92075000D01*
X121285000Y-89217500D02*
X127972620Y-89217500D01*
X135572500Y-79057500D02*
X145415000Y-79057500D01*
X134143750Y-80486250D02*
X135572500Y-79057500D01*
X145415000Y-79057500D02*
X154940000Y-79057500D01*
X156527500Y-92075000D02*
X156051250Y-92075000D01*
X159385000Y-89217500D02*
X156527500Y-92075000D01*
X183515000Y-79057500D02*
X197802500Y-79057500D01*
X207162501Y-79698749D02*
X207962500Y-78898750D01*
X207162501Y-80303997D02*
X207162501Y-79698749D01*
X199373997Y-88092501D02*
X207162501Y-80303997D01*
X198609999Y-88092501D02*
X199373997Y-88092501D01*
X197485000Y-89217500D02*
X198609999Y-88092501D01*
X37147500Y-85086510D02*
X37147500Y-86677500D01*
X37147500Y-84515526D02*
X37147500Y-85086510D01*
X34229474Y-81597500D02*
X37147500Y-84515526D01*
X24765000Y-81597500D02*
X34229474Y-81597500D01*
X38100000Y-43497500D02*
X40005000Y-45402500D01*
X24765000Y-43497500D02*
X38100000Y-43497500D01*
X40640000Y-43497500D02*
X40005000Y-42862500D01*
X43815000Y-43497500D02*
X40640000Y-43497500D01*
X64455990Y-81597500D02*
X72390000Y-81597500D01*
X62865000Y-81597500D02*
X64455990Y-81597500D01*
X71700000Y-50400000D02*
X71182500Y-50482500D01*
X71182500Y-50482500D02*
X55245000Y-50482500D01*
X77877501Y-44622499D02*
X71700000Y-50400000D01*
X81915000Y-43497500D02*
X80790001Y-44622499D01*
X80790001Y-44622499D02*
X77877501Y-44622499D01*
X100965000Y-81597500D02*
X110490000Y-81597500D01*
X55245000Y-47942500D02*
X57150000Y-49847500D01*
X77564603Y-44298987D02*
X77691101Y-44172489D01*
X57150000Y-49847500D02*
X71631944Y-49847500D01*
X71631944Y-49847500D02*
X77564603Y-44298987D01*
X99840001Y-44622499D02*
X100965000Y-43497500D01*
X89783997Y-44622499D02*
X99840001Y-44622499D01*
X81218999Y-42047499D02*
X87208997Y-42047499D01*
X87208997Y-42047499D02*
X89783997Y-44622499D01*
X79094009Y-44172489D02*
X81218999Y-42047499D01*
X77691101Y-44172489D02*
X79094009Y-44172489D01*
X115411250Y-38893750D02*
X120015000Y-43497500D01*
X59055000Y-49212500D02*
X71652100Y-49212500D01*
X77208350Y-43656250D02*
X78973838Y-43656250D01*
X55245000Y-45402500D02*
X59055000Y-49212500D01*
X71652100Y-49212500D02*
X77208350Y-43656250D01*
X78973838Y-43656250D02*
X83736338Y-38893750D01*
X83736338Y-38893750D02*
X115411250Y-38893750D01*
X148590000Y-81597500D02*
X139065000Y-81597500D01*
X151198699Y-36581199D02*
X156990001Y-42372501D01*
X52313901Y-36581199D02*
X151198699Y-36581199D01*
X48714999Y-40180101D02*
X52313901Y-36581199D01*
X48714999Y-41653501D02*
X48714999Y-40180101D01*
X49468999Y-42407501D02*
X48714999Y-41653501D01*
X156990001Y-42372501D02*
X158115000Y-43497500D01*
X53159999Y-42407501D02*
X49468999Y-42407501D01*
X55245000Y-40322500D02*
X53159999Y-42407501D01*
X191452500Y-81597500D02*
X177165000Y-81597500D01*
X153193750Y-44162252D02*
X153193750Y-39687500D01*
X175574010Y-43497500D02*
X175352911Y-43718599D01*
X177165000Y-43497500D02*
X175574010Y-43497500D01*
X156268999Y-47237501D02*
X153193750Y-44162252D01*
X157421001Y-47237501D02*
X156268999Y-47237501D01*
X175352911Y-43718599D02*
X160939903Y-43718599D01*
X160939903Y-43718599D02*
X157421001Y-47237501D01*
X151288750Y-37782500D02*
X55245000Y-37782500D01*
X153193750Y-39687500D02*
X151288750Y-37782500D01*
X187960000Y-35242500D02*
X55245000Y-35242500D01*
X196215000Y-43497500D02*
X187960000Y-35242500D01*
X60453998Y-27622500D02*
X56484275Y-27622500D01*
X56484275Y-27622500D02*
X55245000Y-27622500D01*
X62731498Y-29900000D02*
X60453998Y-27622500D01*
X64218750Y-29900000D02*
X62731498Y-29900000D01*
X54768750Y-25558750D02*
X55245000Y-25082500D01*
X54768750Y-26320824D02*
X54768750Y-25558750D01*
X58018750Y-32800000D02*
X56719949Y-31501199D01*
X58018750Y-33600000D02*
X58018750Y-32800000D01*
X56719949Y-31501199D02*
X54805773Y-31501199D01*
X54043699Y-27045875D02*
X54768750Y-26320824D01*
X54805773Y-31501199D02*
X54043699Y-30739125D01*
X54043699Y-30739125D02*
X54043699Y-27045875D01*
M02*
