G04 #@! TF.GenerationSoftware,KiCad,Pcbnew,(5.1.4)-1*
G04 #@! TF.CreationDate,2020-10-26T08:25:30-07:00*
G04 #@! TF.ProjectId,cheapcheep,63686561-7063-4686-9565-702e6b696361,rev?*
G04 #@! TF.SameCoordinates,Original*
G04 #@! TF.FileFunction,Legend,Bot*
G04 #@! TF.FilePolarity,Positive*
%FSLAX46Y46*%
G04 Gerber Fmt 4.6, Leading zero omitted, Abs format (unit mm)*
G04 Created by KiCad (PCBNEW (5.1.4)-1) date 2020-10-26 08:25:30*
%MOMM*%
%LPD*%
G04 APERTURE LIST*
%ADD10C,0.150000*%
%ADD11C,0.020000*%
%ADD12C,0.120000*%
%ADD13C,0.381000*%
G04 APERTURE END LIST*
D10*
X118919047Y-51839880D02*
X118919047Y-52554166D01*
X118966666Y-52697023D01*
X119061904Y-52792261D01*
X119204761Y-52839880D01*
X119300000Y-52839880D01*
X117966666Y-52839880D02*
X118442857Y-52839880D01*
X118442857Y-51839880D01*
X117061904Y-52744642D02*
X117109523Y-52792261D01*
X117252380Y-52839880D01*
X117347619Y-52839880D01*
X117490476Y-52792261D01*
X117585714Y-52697023D01*
X117633333Y-52601785D01*
X117680952Y-52411309D01*
X117680952Y-52268452D01*
X117633333Y-52077976D01*
X117585714Y-51982738D01*
X117490476Y-51887500D01*
X117347619Y-51839880D01*
X117252380Y-51839880D01*
X117109523Y-51887500D01*
X117061904Y-51935119D01*
X116347619Y-51839880D02*
X116347619Y-52554166D01*
X116395238Y-52697023D01*
X116490476Y-52792261D01*
X116633333Y-52839880D01*
X116728571Y-52839880D01*
X115395238Y-52839880D02*
X115871428Y-52839880D01*
X115871428Y-51839880D01*
X114490476Y-52744642D02*
X114538095Y-52792261D01*
X114680952Y-52839880D01*
X114776190Y-52839880D01*
X114919047Y-52792261D01*
X115014285Y-52697023D01*
X115061904Y-52601785D01*
X115109523Y-52411309D01*
X115109523Y-52268452D01*
X115061904Y-52077976D01*
X115014285Y-51982738D01*
X114919047Y-51887500D01*
X114776190Y-51839880D01*
X114680952Y-51839880D01*
X114538095Y-51887500D01*
X114490476Y-51935119D01*
X113776190Y-51839880D02*
X113776190Y-52554166D01*
X113823809Y-52697023D01*
X113919047Y-52792261D01*
X114061904Y-52839880D01*
X114157142Y-52839880D01*
X112823809Y-52839880D02*
X113300000Y-52839880D01*
X113300000Y-51839880D01*
X111919047Y-52744642D02*
X111966666Y-52792261D01*
X112109523Y-52839880D01*
X112204761Y-52839880D01*
X112347619Y-52792261D01*
X112442857Y-52697023D01*
X112490476Y-52601785D01*
X112538095Y-52411309D01*
X112538095Y-52268452D01*
X112490476Y-52077976D01*
X112442857Y-51982738D01*
X112347619Y-51887500D01*
X112204761Y-51839880D01*
X112109523Y-51839880D01*
X111966666Y-51887500D01*
X111919047Y-51935119D01*
X111204761Y-51839880D02*
X111204761Y-52554166D01*
X111252380Y-52697023D01*
X111347619Y-52792261D01*
X111490476Y-52839880D01*
X111585714Y-52839880D01*
X110252380Y-52839880D02*
X110728571Y-52839880D01*
X110728571Y-51839880D01*
X109347619Y-52744642D02*
X109395238Y-52792261D01*
X109538095Y-52839880D01*
X109633333Y-52839880D01*
X109776190Y-52792261D01*
X109871428Y-52697023D01*
X109919047Y-52601785D01*
X109966666Y-52411309D01*
X109966666Y-52268452D01*
X109919047Y-52077976D01*
X109871428Y-51982738D01*
X109776190Y-51887500D01*
X109633333Y-51839880D01*
X109538095Y-51839880D01*
X109395238Y-51887500D01*
X109347619Y-51935119D01*
D11*
X50134663Y-38390067D02*
G75*
G02X49432256Y-38824861I-2783761J3712384D01*
G01*
X48633491Y-39142888D02*
G75*
G02X47824732Y-39302595I-1219044J4045612D01*
G01*
X50654560Y-37882382D02*
G75*
G02X50134663Y-38390067I-2199998J1732874D01*
G01*
X49432256Y-38824862D02*
G75*
G02X48633490Y-39142888I-2238731J4460754D01*
G01*
X51258011Y-38339342D02*
G75*
G02X51029387Y-38113930I920740J1162510D01*
G01*
X51029387Y-38113929D02*
G75*
G02X50843770Y-37835539I1353409J1103458D01*
G01*
X50782087Y-37720479D02*
X50843770Y-37835539D01*
X47824731Y-39302595D02*
G75*
G02X47472429Y-39319918I-356005J3648968D01*
G01*
X50654560Y-37882382D02*
X50782087Y-37720479D01*
X49333486Y-32926322D02*
X49043697Y-32737621D01*
X45023562Y-30860542D02*
G75*
G02X45056411Y-30838209I110300J-126912D01*
G01*
X45021666Y-30898872D02*
G75*
G02X45250655Y-31193708I-2919750J-2504020D01*
G01*
X45677628Y-31907745D02*
X45474390Y-31538642D01*
X50211756Y-33510346D02*
X50058780Y-33554563D01*
X46150450Y-32399783D02*
G75*
G02X46777051Y-32268921I939473J-2932840D01*
G01*
X45929974Y-32454398D02*
X45904195Y-32406256D01*
X45021665Y-30898873D02*
G75*
G02X45014733Y-30878938I21915J18794D01*
G01*
X45954576Y-32458664D02*
G75*
G02X45940511Y-32460599I-14065J50162D01*
G01*
X45474390Y-31538642D02*
X45250655Y-31193708D01*
X45845084Y-32275599D02*
X45677628Y-31907745D01*
X45940511Y-32460599D02*
G75*
G02X45929974Y-32454398I0J12053D01*
G01*
X48137272Y-32366191D02*
G75*
G02X48758004Y-32586161I-813363J-3281022D01*
G01*
X46150451Y-32399783D02*
X46076249Y-32423085D01*
X50354989Y-33435832D02*
G75*
G02X50322542Y-33472254I-52789J14365D01*
G01*
X46010465Y-32442735D02*
X45954577Y-32458665D01*
X50322542Y-33472255D02*
G75*
G02X50211756Y-33510346I-437599J1092572D01*
G01*
X45904195Y-32406256D02*
X45875414Y-32346508D01*
X47458163Y-32258562D02*
G75*
G02X48137271Y-32366190I-285939J-4000530D01*
G01*
X48758004Y-32586161D02*
G75*
G02X49043697Y-32737621I-1390585J-2968174D01*
G01*
X49618048Y-33145598D02*
X49333486Y-32926322D01*
X50058780Y-33554563D02*
X49888112Y-33388813D01*
X50355272Y-33376071D02*
G75*
G02X50354990Y-33435832I-112024J-29353D01*
G01*
X46076249Y-32423085D02*
X46010465Y-32442735D01*
X45014734Y-30878939D02*
G75*
G02X45023561Y-30860543I25699J-1016D01*
G01*
X45875414Y-32346508D02*
X45845084Y-32275599D01*
X46777051Y-32268921D02*
G75*
G02X47458163Y-32258562I400241J-3919236D01*
G01*
X45601463Y-30634040D02*
X45852364Y-30577739D01*
X49888112Y-33388813D02*
X49618048Y-33145598D01*
X45345637Y-30711240D02*
X45601463Y-30634040D01*
X45139697Y-30796290D02*
G75*
G02X45345637Y-30711240I785351J-1609799D01*
G01*
X45056411Y-30838209D02*
X45139697Y-30796290D01*
X47511576Y-30562577D02*
X47572476Y-30816588D01*
X47989570Y-30933815D02*
X48048102Y-30828313D01*
X47680674Y-31284287D02*
X47701183Y-31360185D01*
X47739446Y-31415576D02*
X47791015Y-31320724D01*
X47848858Y-31210950D02*
X47914732Y-31080599D01*
X47730973Y-31420600D02*
G75*
G02X47718558Y-31411939I0J13229D01*
G01*
X47654948Y-31170599D02*
X47680674Y-31284287D01*
X47621824Y-31025359D02*
X47642809Y-31116084D01*
X47165706Y-30528738D02*
X47281112Y-30537487D01*
X46458916Y-30294576D02*
X46446642Y-30482588D01*
X47791015Y-31320724D02*
X47848858Y-31210950D01*
X47642809Y-31116084D02*
X47654948Y-31170599D01*
X47281112Y-30537487D02*
X47378882Y-30545679D01*
X47428154Y-30551194D02*
X47511576Y-30562577D01*
X50301471Y-33180667D02*
X50355272Y-33376072D01*
X50040121Y-32511092D02*
G75*
G02X50301471Y-33180667I-3536486J-1766161D01*
G01*
X47914732Y-31080599D02*
X47989570Y-30933815D01*
X47739447Y-31415575D02*
G75*
G02X47730973Y-31420599I-8474J4634D01*
G01*
X47378882Y-30545679D02*
X47428154Y-30551194D01*
X47701183Y-31360185D02*
X47718558Y-31411939D01*
X49661230Y-31897848D02*
G75*
G02X50040121Y-32511092I-3198321J-2399742D01*
G01*
X49188114Y-31375559D02*
G75*
G02X49661230Y-31897848I-2583523J-2815723D01*
G01*
X47044732Y-30520515D02*
X47165706Y-30528738D01*
X48647179Y-30975862D02*
G75*
G02X49188114Y-31375560I-1606789J-2740455D01*
G01*
X48516093Y-30905688D02*
X48647178Y-30975862D01*
X48114262Y-30741214D02*
G75*
G02X48174939Y-30753883I-3388J-167867D01*
G01*
X48344107Y-30826030D02*
X48516093Y-30905688D01*
X47597374Y-30921171D02*
X47621824Y-31025359D01*
X48174939Y-30753883D02*
X48344107Y-30826030D01*
X48095061Y-30751511D02*
G75*
G02X48114261Y-30741214I18752J-11916D01*
G01*
X48048102Y-30828313D02*
X48095062Y-30751511D01*
X47572476Y-30816588D02*
X47597374Y-30921171D01*
X50997397Y-33355333D02*
X50814344Y-33377328D01*
X46821824Y-30306686D02*
X46458916Y-30294576D01*
X47109007Y-30319882D02*
X46821824Y-30306686D01*
X47371473Y-30339561D02*
X47109007Y-30319882D01*
X47599320Y-30362094D02*
X47371473Y-30339561D01*
X47599319Y-30362095D02*
G75*
G02X47642552Y-30381738I-7969J-74935D01*
G01*
X49858561Y-31804063D02*
G75*
G02X50134899Y-32249950I-3396658J-2413648D01*
G01*
X47674024Y-30471584D02*
X47651573Y-30396133D01*
X47788958Y-30930599D02*
X47724666Y-30664420D01*
X47891232Y-30702662D02*
X47819768Y-30860599D01*
X50134898Y-32249950D02*
G75*
G02X50357197Y-32734872I-3794873J-2033061D01*
G01*
X50622453Y-33411665D02*
X50560174Y-33424511D01*
X51181500Y-33344769D02*
X50997397Y-33355333D01*
X48538961Y-30672369D02*
X48416409Y-30616947D01*
X50560174Y-33424511D02*
X50514605Y-33237555D01*
X50357197Y-32734872D02*
G75*
G02X50514605Y-33237555I-3820068J-1472181D01*
G01*
X47642552Y-30381738D02*
G75*
G02X47651573Y-30396133I-22116J-23882D01*
G01*
X47999286Y-30491281D02*
G75*
G02X48017387Y-30480599I18101J-9995D01*
G01*
X47698737Y-30561223D02*
X47674024Y-30471584D01*
X47724666Y-30664420D02*
X47698737Y-30561223D01*
X48245872Y-30551075D02*
X48075722Y-30490397D01*
X49063123Y-31002423D02*
X48793877Y-30816842D01*
X49320518Y-31209236D02*
G75*
G02X49539794Y-31417989I-2091344J-2416305D01*
G01*
X50814344Y-33377328D02*
X50622453Y-33411665D01*
X49539794Y-31417990D02*
G75*
G02X49858561Y-31804063I-2502416J-2390791D01*
G01*
X48017387Y-30480600D02*
G75*
G02X48075722Y-30490397I0J-178571D01*
G01*
X47819768Y-30860599D02*
X47788958Y-30930599D01*
X47950156Y-30582942D02*
X47891232Y-30702662D01*
X48416409Y-30616947D02*
X48245872Y-30551075D01*
X48538961Y-30672369D02*
G75*
G02X48793877Y-30816842I-1285855J-2565970D01*
G01*
X47999286Y-30491282D02*
X47950156Y-30582942D01*
X49320518Y-31209237D02*
X49063123Y-31002423D01*
X51468988Y-34478996D02*
X51455831Y-34472722D01*
X51983593Y-33772458D02*
G75*
G02X51925175Y-33939724I-654244J134662D01*
G01*
X51555832Y-33351055D02*
X51376544Y-33344794D01*
X51979661Y-33626038D02*
G75*
G02X51983593Y-33772457I-310930J-81612D01*
G01*
X51555832Y-33351055D02*
G75*
G02X51642992Y-33360011I-32197J-741951D01*
G01*
X51756589Y-34156712D02*
G75*
G02X51636789Y-34264731I-1085991J1083981D01*
G01*
X51425701Y-34453781D02*
G75*
G02X51411719Y-34435981I24724J33812D01*
G01*
X51476770Y-34480599D02*
G75*
G02X51468988Y-34478996I0J19685D01*
G01*
X51642992Y-33360011D02*
G75*
G02X51708653Y-33377537I-55023J-337903D01*
G01*
X51708653Y-33377537D02*
G75*
G02X51786544Y-33411556I-290885J-772205D01*
G01*
X51636789Y-34264731D02*
G75*
G02X51515567Y-34350092I-690756J852194D01*
G01*
X51786544Y-33411555D02*
G75*
G02X51912467Y-33505022I-201017J-402380D01*
G01*
X51912467Y-33505022D02*
G75*
G02X51979662Y-33626038I-203188J-191985D01*
G01*
X51858784Y-34042652D02*
G75*
G02X51756589Y-34156711I-1108549J890431D01*
G01*
X51411718Y-34435981D02*
G75*
G02X51414448Y-34419166I14981J6197D01*
G01*
X51455831Y-34472722D02*
X51440798Y-34464048D01*
X51440798Y-34464048D02*
X51425700Y-34453781D01*
X51376544Y-33344794D02*
X51181500Y-33344769D01*
X51925176Y-33939723D02*
G75*
G02X51858784Y-34042652I-527004J267053D01*
G01*
X51439685Y-34397363D02*
X51515567Y-34350092D01*
X51414448Y-34419166D02*
G75*
G02X51439685Y-34397363I87713J-76021D01*
G01*
X51319927Y-35431225D02*
G75*
G02X51575151Y-35219495I1508178J-1558300D01*
G01*
X51565005Y-34755746D02*
G75*
G02X51543495Y-34843902I-496611J74471D01*
G01*
X51569962Y-34704154D02*
G75*
G02X51565005Y-34755746I-488209J20876D01*
G01*
X51086939Y-35415133D02*
X51082271Y-35392319D01*
X51319927Y-35431225D02*
X51201308Y-35544801D01*
X51100860Y-35471795D02*
X51093333Y-35441724D01*
X51201308Y-35544801D02*
G75*
G02X51158354Y-35578818I-213176J225052D01*
G01*
X51476770Y-34480599D02*
G75*
G02X51484335Y-34484475I0J-9321D01*
G01*
X51499843Y-34507262D02*
X51484335Y-34484475D01*
X51109001Y-35505239D02*
X51100860Y-35471795D01*
X51451917Y-35031437D02*
G75*
G02X51391546Y-35111172I-579284J375876D01*
G01*
X51078938Y-35373089D02*
G75*
G02X51080274Y-35370256I2724J447D01*
G01*
X51517222Y-34536585D02*
X51499843Y-34507262D01*
X51535103Y-34571367D02*
X51517222Y-34536585D01*
X51556644Y-34621714D02*
G75*
G02X51567513Y-34662700I-202029J-75513D01*
G01*
X51567513Y-34662700D02*
G75*
G02X51569962Y-34704154I-201765J-32722D01*
G01*
X51391545Y-35111172D02*
G75*
G02X51339936Y-35162733I-419804J368593D01*
G01*
X51834890Y-35073994D02*
G75*
G02X52111301Y-34989749I521583J-1215760D01*
G01*
X51093333Y-35441724D02*
X51086939Y-35415133D01*
X51158354Y-35578819D02*
G75*
G02X51136532Y-35579976I-11903J18117D01*
G01*
X52111300Y-34989750D02*
G75*
G02X52416101Y-34960947I308172J-1634049D01*
G01*
X51504152Y-34939094D02*
G75*
G02X51451916Y-35031437I-784913J383063D01*
G01*
X51137701Y-35331126D02*
G75*
G02X51080274Y-35370256I-302585J382366D01*
G01*
X51575151Y-35219496D02*
G75*
G02X51834889Y-35073994I817806J-1155301D01*
G01*
X51136532Y-35579976D02*
G75*
G02X51122074Y-35561225I12754J24784D01*
G01*
X51535103Y-34571367D02*
G75*
G02X51556643Y-34621714I-529371J-256264D01*
G01*
X51082271Y-35392319D02*
X51078937Y-35373089D01*
X51122074Y-35561225D02*
X51116539Y-35536968D01*
X51543496Y-34843902D02*
G75*
G02X51504153Y-34939095I-784960J268692D01*
G01*
X51116539Y-35536968D02*
X51109001Y-35505239D01*
X51239830Y-35248233D02*
X51339936Y-35162733D01*
X51137701Y-35331126D02*
X51239830Y-35248233D01*
X52662339Y-37587921D02*
X52791048Y-37551061D01*
X53045688Y-35204292D02*
G75*
G02X53168080Y-35404679I-470070J-424680D01*
G01*
X53151546Y-35860501D02*
G75*
G02X53013599Y-36069512I-711075J319280D01*
G01*
X52956096Y-36136133D02*
X52981683Y-36105173D01*
X52553097Y-38368845D02*
G75*
G02X52206762Y-38563716I-558358J587146D01*
G01*
X53314956Y-36605728D02*
G75*
G02X53346028Y-36761731I-807370J-241903D01*
G01*
X52972530Y-36193005D02*
X52942671Y-36171514D01*
X53205169Y-35631019D02*
G75*
G02X53151546Y-35860500I-615551J22829D01*
G01*
X53047290Y-36246749D02*
X53007415Y-36218095D01*
X52981683Y-36105173D02*
X53013599Y-36069512D01*
X52936068Y-36162266D02*
X52956096Y-36136133D01*
X53007415Y-36218095D02*
X52972530Y-36193005D01*
X53220814Y-37253856D02*
G75*
G02X53035856Y-37436191I-594240J417811D01*
G01*
X53256227Y-36470003D02*
G75*
G02X53314956Y-36605728I-546647J-317107D01*
G01*
X51789452Y-38584547D02*
G75*
G02X51516238Y-38499344I171750J1031396D01*
G01*
X53047289Y-36246749D02*
G75*
G02X53167497Y-36351522I-495754J-690131D01*
G01*
X52206762Y-38563715D02*
G75*
G02X51789452Y-38584546I-256376J945609D01*
G01*
X52942671Y-36171514D02*
X52936807Y-36167247D01*
X53327297Y-37021357D02*
G75*
G02X53220815Y-37253856I-680219J170897D01*
G01*
X53035857Y-37436192D02*
G75*
G02X52791048Y-37551061I-478755J702015D01*
G01*
X52710938Y-37708240D02*
X52662339Y-37587921D01*
X52735278Y-38055999D02*
G75*
G02X52553098Y-38368845I-628589J156579D01*
G01*
X51516239Y-38499345D02*
G75*
G02X51258011Y-38339342I562627J1196400D01*
G01*
X53167498Y-36351522D02*
G75*
G02X53256227Y-36470003I-459054J-436246D01*
G01*
X53168080Y-35404678D02*
G75*
G02X53205168Y-35631018I-541212J-204892D01*
G01*
X52936807Y-36167247D02*
G75*
G02X52936068Y-36162266I2102J2857D01*
G01*
X53346028Y-36761731D02*
G75*
G02X53327296Y-37021357I-747351J-76568D01*
G01*
X52416101Y-34960948D02*
G75*
G02X52609584Y-34975749I2511J-1239134D01*
G01*
X52710937Y-37708240D02*
G75*
G02X52735277Y-38055999I-523258J-211354D01*
G01*
X52609584Y-34975749D02*
G75*
G02X52778311Y-35020956I-125982J-807682D01*
G01*
X52778311Y-35020955D02*
G75*
G02X52923167Y-35097217I-255477J-660973D01*
G01*
X52923167Y-35097217D02*
G75*
G02X53045688Y-35204292I-390873J-570896D01*
G01*
X45878987Y-36993976D02*
G75*
G02X45928906Y-37242643I-1494369J-429331D01*
G01*
X45459200Y-36388179D02*
X45555710Y-36480084D01*
X45936924Y-37487608D02*
G75*
G02X45898976Y-37695562I-817474J41737D01*
G01*
X45632419Y-36560443D02*
X45698916Y-36638393D01*
X45928906Y-37242643D02*
G75*
G02X45936925Y-37487608I-1455312J-170255D01*
G01*
X45791201Y-36774321D02*
G75*
G02X45878987Y-36993976I-1045877J-545356D01*
G01*
X45698916Y-36638393D02*
X45752900Y-36710866D01*
X45555710Y-36480084D02*
X45632419Y-36560443D01*
X45752899Y-36710866D02*
G75*
G02X45791201Y-36774320I-488495J-338146D01*
G01*
X44076892Y-34982185D02*
G75*
G02X44059521Y-34701518I1302368J221480D01*
G01*
X46256115Y-31805350D02*
G75*
G02X46311685Y-32049566I-2657822J-733205D01*
G01*
X44059521Y-34701518D02*
G75*
G02X44100269Y-34435071I1261399J-56570D01*
G01*
X46050402Y-31274072D02*
G75*
G02X46165688Y-31531282I-2359762J-1212127D01*
G01*
X44400305Y-34511516D02*
G75*
G02X44415002Y-34565595I-299767J-110500D01*
G01*
X44415002Y-34565595D02*
G75*
G02X44422211Y-34630847I-478981J-85939D01*
G01*
X45682517Y-30878664D02*
G75*
G02X45680590Y-30867862I14189J8103D01*
G01*
X46176641Y-31918350D02*
X46236053Y-32089084D01*
X44424420Y-34730600D02*
G75*
G02X44418369Y-34872683I-1605888J-2789D01*
G01*
X44418368Y-34872682D02*
G75*
G02X44399189Y-34990193I-792163J68971D01*
G01*
X44323133Y-35150434D02*
G75*
G02X44281742Y-35186291I-183763J170307D01*
G01*
X46266029Y-32161697D02*
G75*
G02X46236053Y-32089084I695435J329588D01*
G01*
X46311686Y-32049566D02*
G75*
G02X46299863Y-32178350I-238720J-43020D01*
G01*
X45706299Y-30860599D02*
G75*
G02X45767714Y-30885417I0J-88399D01*
G01*
X45962677Y-31123059D02*
G75*
G02X46050402Y-31274072I-1414117J-922457D01*
G01*
X46072003Y-31634834D02*
X46176641Y-31918350D01*
X45767715Y-30885417D02*
G75*
G02X45862845Y-30987860I-894487J-926029D01*
G01*
X44367500Y-35083244D02*
G75*
G02X44323134Y-35150433I-225413J100599D01*
G01*
X46284791Y-32183248D02*
G75*
G02X46266030Y-32161696I29007J44191D01*
G01*
X44164983Y-35152668D02*
G75*
G02X44076893Y-34982185I223467J223467D01*
G01*
X44100270Y-34435071D02*
G75*
G02X44202285Y-34320913I163211J-43190D01*
G01*
X45862845Y-30987861D02*
G75*
G02X45962677Y-31123059I-1113483J-926668D01*
G01*
X44424419Y-34730599D02*
X44422211Y-34630847D01*
X45686496Y-30862063D02*
G75*
G02X45706299Y-30860599I19803J-133245D01*
G01*
X44208041Y-35187370D02*
G75*
G02X44164983Y-35152669I139898J217657D01*
G01*
X45682516Y-30878665D02*
X45698763Y-30905599D01*
X46165688Y-31531282D02*
G75*
G02X46256115Y-31805350I-2719555J-1049251D01*
G01*
X46299863Y-32178350D02*
G75*
G02X46284790Y-32183249I-9500J3591D01*
G01*
X45680589Y-30867863D02*
G75*
G02X45686496Y-30862063I6942J-1162D01*
G01*
X44399189Y-34990193D02*
G75*
G02X44367499Y-35083244I-522799J126126D01*
G01*
X44245149Y-35197982D02*
G75*
G02X44208041Y-35187369I-945J66876D01*
G01*
X44281743Y-35186291D02*
G75*
G02X44245150Y-35197983I-37527J54340D01*
G01*
X46132082Y-37619643D02*
X46142658Y-37580025D01*
X45387194Y-38610678D02*
G75*
G02X45356355Y-38581301I38116J70887D01*
G01*
X45698763Y-30905599D02*
X45839592Y-31142402D01*
X46791848Y-37569218D02*
X47074732Y-37608318D01*
X45929620Y-38856474D02*
G75*
G02X45552417Y-38697945I792083J2412702D01*
G01*
X46481377Y-37545584D02*
X46791848Y-37569218D01*
X46186657Y-37534195D02*
X46481377Y-37545584D01*
X46142658Y-37580025D02*
X46147544Y-37562630D01*
X46106437Y-37717440D02*
X46119634Y-37666824D01*
X48616995Y-38893855D02*
G75*
G02X48210531Y-38999791I-1185557J3716094D01*
G01*
X48210530Y-38999791D02*
G75*
G02X47802201Y-39059848I-749048J3674661D01*
G01*
X46380632Y-38977790D02*
G75*
G02X45929620Y-38856474I887518J4198501D01*
G01*
X45877105Y-38155212D02*
G75*
G02X45683709Y-38341327I-1014099J860236D01*
G01*
X47360756Y-39080210D02*
G75*
G02X46869323Y-39054831I-5621J4661930D01*
G01*
X46106437Y-37717440D02*
G75*
G02X46017505Y-37947321I-1036372J268787D01*
G01*
X46017506Y-37947321D02*
G75*
G02X45877105Y-38155213I-1015663J534574D01*
G01*
X45362071Y-38554055D02*
G75*
G02X45437139Y-38506448I511826J-724068D01*
G01*
X48791956Y-38225725D02*
G75*
G02X49178495Y-38517930I-1165126J-1943032D01*
G01*
X45552417Y-38697945D02*
X45387194Y-38610679D01*
X49053083Y-38735241D02*
X48616995Y-38893855D01*
X47802202Y-39059848D02*
G75*
G02X47360756Y-39080209I-447379J4903874D01*
G01*
X47698092Y-37753381D02*
G75*
G02X48284058Y-37965086I-1428816J-4871513D01*
G01*
X45683709Y-38341327D02*
G75*
G02X45437139Y-38506448I-1221368J1557175D01*
G01*
X49301435Y-38633485D02*
X49053083Y-38735241D01*
X45356355Y-38581301D02*
G75*
G02X45362071Y-38554055I17520J10547D01*
G01*
X48284058Y-37965086D02*
G75*
G02X48791957Y-38225724I-1716878J-3970814D01*
G01*
X46869323Y-39054831D02*
G75*
G02X46380631Y-38977790I496301J4736659D01*
G01*
X45961823Y-31380880D02*
X46072003Y-31634834D01*
X46147543Y-37562630D02*
G75*
G02X46186657Y-37534195I38004J-11157D01*
G01*
X45839592Y-31142402D02*
X45961823Y-31380880D01*
X49178495Y-38517930D02*
X49301435Y-38633485D01*
X46119634Y-37666824D02*
X46132082Y-37619643D01*
X44302078Y-38461317D02*
X44217115Y-38434999D01*
X45777081Y-37943283D02*
G75*
G02X45583624Y-38158027I-926255J639926D01*
G01*
X43418448Y-36866601D02*
G75*
G02X43540975Y-36493270I1080453J-147833D01*
G01*
X45583624Y-38158027D02*
G75*
G02X45326358Y-38330219I-849056J990259D01*
G01*
X47074731Y-37608318D02*
G75*
G02X47698091Y-37753380I-967086J-5567635D01*
G01*
X44666702Y-36044994D02*
G75*
G02X44844732Y-36078323I-152436J-1306404D01*
G01*
X44239114Y-36028194D02*
X44448103Y-36028130D01*
X43414647Y-37309894D02*
G75*
G02X43418447Y-36866601I1732145J206814D01*
G01*
X43906462Y-38271276D02*
G75*
G02X43667881Y-38030165I625053J857086D01*
G01*
X44382198Y-38478412D02*
G75*
G02X44302078Y-38461317I128725J799613D01*
G01*
X43774471Y-36216165D02*
G75*
G02X44100023Y-36050140I578553J-732266D01*
G01*
X43667881Y-38030165D02*
G75*
G02X43504298Y-37709126I992648J707993D01*
G01*
X43504298Y-37709126D02*
G75*
G02X43414647Y-37309894I1904300J637306D01*
G01*
X43540975Y-36493271D02*
G75*
G02X43774470Y-36216166I793533J-431724D01*
G01*
X44823284Y-38495179D02*
G75*
G02X44735226Y-38499480I-82354J782371D01*
G01*
X44217115Y-38434999D02*
G75*
G02X43906462Y-38271277I404983J1145017D01*
G01*
X44597944Y-38496306D02*
X44474121Y-38489243D01*
X45326359Y-38330220D02*
G75*
G02X45016441Y-38452254I-790116J1552018D01*
G01*
X44735226Y-38499480D02*
X44597944Y-38496306D01*
X44904957Y-38481333D02*
G75*
G02X44823284Y-38495178I-150495J639971D01*
G01*
X45016441Y-38452254D02*
X44904957Y-38481333D01*
X44448103Y-36028130D02*
X44666701Y-36044994D01*
X44100023Y-36050139D02*
G75*
G02X44239114Y-36028194I162064J-575415D01*
G01*
X44474121Y-38489243D02*
X44382198Y-38478412D01*
X45898976Y-37695562D02*
G75*
G02X45777081Y-37943283I-895756J286922D01*
G01*
X46131502Y-30629557D02*
G75*
G02X46197670Y-30740851I-1108703J-734474D01*
G01*
X46197670Y-30740851D02*
X46354031Y-31038540D01*
X46354031Y-31038540D02*
X46413365Y-31150083D01*
X45671343Y-33043869D02*
G75*
G02X45814493Y-33143007I-244594J-506101D01*
G01*
X46537397Y-31328483D02*
X46548832Y-31260546D01*
X46726767Y-30501047D02*
X47044732Y-30520515D01*
X46657671Y-30505699D02*
G75*
G02X46726767Y-30501047I53015J-271992D01*
G01*
X46625425Y-30533156D02*
G75*
G02X46657671Y-30505699I40503J-14904D01*
G01*
X46608207Y-30605599D02*
G75*
G02X46625425Y-30533155I310896J-35627D01*
G01*
X46582280Y-30897667D02*
X46592675Y-30772461D01*
X46560436Y-31164752D02*
X46572230Y-31026192D01*
X46037413Y-30560600D02*
G75*
G02X46085138Y-30577855I0J-74628D01*
G01*
X46413365Y-31150083D02*
X46466860Y-31245160D01*
X45852365Y-30577739D02*
G75*
G02X46037413Y-30560599I185048J-990354D01*
G01*
X46602112Y-30665107D02*
X46608207Y-30605599D01*
X46592675Y-30772461D02*
X46602112Y-30665107D01*
X46085138Y-30577854D02*
G75*
G02X46131502Y-30629556I-152707J-183579D01*
G01*
X46466860Y-31245160D02*
X46514061Y-31325249D01*
X46537397Y-31328483D02*
G75*
G02X46526509Y-31335039I-8368J1579D01*
G01*
X46526509Y-31335040D02*
G75*
G02X46514061Y-31325249I6545J21131D01*
G01*
X46572230Y-31026192D02*
X46582280Y-30897667D01*
X46548832Y-31260546D02*
X46560436Y-31164752D01*
X51046733Y-34534536D02*
X51142963Y-34517995D01*
X51263173Y-34317382D02*
G75*
G02X50966920Y-34462380I-1388743J2462271D01*
G01*
X50572234Y-35636136D02*
G75*
G02X50608404Y-35707456I-86524J-88713D01*
G01*
X50494625Y-35594372D02*
G75*
G02X50572234Y-35636136I-34025J-156222D01*
G01*
X51684566Y-33980944D02*
G75*
G02X51508123Y-34151825I-992430J848196D01*
G01*
X51375508Y-34787824D02*
G75*
G02X51256619Y-35000260I-498757J139642D01*
G01*
X51014822Y-35210139D02*
G75*
G02X50690333Y-35391885I-1108023J1597718D01*
G01*
X51276868Y-34541764D02*
G75*
G02X51338062Y-34585351I-115587J-227027D01*
G01*
X50280733Y-35577449D02*
G75*
G02X50249390Y-35561599I3370J45579D01*
G01*
X50690333Y-35391885D02*
G75*
G02X50319128Y-35520430I-973354J2210566D01*
G01*
X51375159Y-34640449D02*
G75*
G02X51387396Y-34707903I-158738J-63635D01*
G01*
X51768509Y-33820538D02*
G75*
G02X51684565Y-33980944I-392290J103127D01*
G01*
X50848922Y-34546271D02*
G75*
G02X50839581Y-34533630I6504J14578D01*
G01*
X51142963Y-34517996D02*
G75*
G02X51191883Y-34514947I40692J-258948D01*
G01*
X50919836Y-34551598D02*
X50977442Y-34545859D01*
X51256619Y-35000260D02*
G75*
G02X51014822Y-35210139I-1084309J1004983D01*
G01*
X50608403Y-35707456D02*
G75*
G02X50606109Y-35810289I-313527J-44445D01*
G01*
X50254154Y-35541934D02*
G75*
G02X50319128Y-35520430I191167J-468705D01*
G01*
X51338061Y-34585351D02*
G75*
G02X51375159Y-34640449I-109877J-114018D01*
G01*
X51230206Y-34521974D02*
G75*
G02X51276868Y-34541764I-118172J-343545D01*
G01*
X50845804Y-34519526D02*
G75*
G02X50880909Y-34499512I117417J-165154D01*
G01*
X51508124Y-34151825D02*
G75*
G02X51263173Y-34317382I-1144481J1429328D01*
G01*
X50874880Y-34552226D02*
G75*
G02X50848922Y-34546271I2160J68971D01*
G01*
X50839582Y-34533629D02*
G75*
G02X50845805Y-34519526I14951J1827D01*
G01*
X50966920Y-34462380D02*
X50880909Y-34499512D01*
X50919836Y-34551597D02*
G75*
G02X50874880Y-34552226I-29408J495725D01*
G01*
X50370911Y-35580894D02*
G75*
G02X50494624Y-35594372I-1523J-588496D01*
G01*
X50249390Y-35561599D02*
G75*
G02X50254154Y-35541933I9475J8115D01*
G01*
X51191883Y-34514947D02*
G75*
G02X51230206Y-34521974I-4094J-130338D01*
G01*
X50280733Y-35577449D02*
X50370912Y-35580894D01*
X51387396Y-34707903D02*
G75*
G02X51375508Y-34787824I-323117J7218D01*
G01*
X50977442Y-34545859D02*
X51046733Y-34534536D01*
X44858221Y-33443649D02*
G75*
G02X44926183Y-33316620I1333449J-631720D01*
G01*
X44527435Y-33109966D02*
G75*
G02X44608150Y-33221646I-375460J-356366D01*
G01*
X43706944Y-33544909D02*
G75*
G02X43820051Y-33343311I1383466J-643665D01*
G01*
X44428497Y-33039509D02*
G75*
G02X44527434Y-33109966I-131128J-288823D01*
G01*
X44307110Y-33004921D02*
G75*
G02X44428498Y-33039508I-54821J-422705D01*
G01*
X51583183Y-33539749D02*
G75*
G02X51685392Y-33578584I-91626J-395063D01*
G01*
X45577227Y-33009678D02*
G75*
G02X45671344Y-33043870I-120425J-478109D01*
G01*
X44674364Y-33381634D02*
G75*
G02X44729459Y-33600599I-2351249J-708017D01*
G01*
X44195100Y-33013800D02*
G75*
G02X44307110Y-33004921I77032J-260821D01*
G01*
X45118181Y-33099013D02*
G75*
G02X45172676Y-33060536I468008J-605007D01*
G01*
X45271127Y-33011082D02*
G75*
G02X45365204Y-32992285I130504J-408350D01*
G01*
X45172675Y-33060535D02*
G75*
G02X45225214Y-33030143I351315J-546694D01*
G01*
X44729459Y-33600599D02*
X44747750Y-33690599D01*
X43543895Y-34061096D02*
G75*
G02X43614800Y-33784176I2854053J-583245D01*
G01*
X51685393Y-33578583D02*
G75*
G02X51750856Y-33638703I-87732J-161232D01*
G01*
X45471218Y-32992108D02*
G75*
G02X45577226Y-33009677I-53236J-649805D01*
G01*
X45066079Y-33142848D02*
X45118181Y-33099013D01*
X43614801Y-33784176D02*
G75*
G02X43706945Y-33544909I1806309J-558258D01*
G01*
X44773638Y-33630599D02*
X44858221Y-33443649D01*
X44747750Y-33690599D02*
X44773638Y-33630599D01*
X43953990Y-33179653D02*
G75*
G02X44081530Y-33070096I778515J-777293D01*
G01*
X44081530Y-33070095D02*
G75*
G02X44195100Y-33013800I217851J-296787D01*
G01*
X45365204Y-32992284D02*
G75*
G02X45471219Y-32992108I54063J-633946D01*
G01*
X44608150Y-33221646D02*
G75*
G02X44674365Y-33381634I-764785J-410221D01*
G01*
X43820052Y-33343311D02*
G75*
G02X43953990Y-33179652I892894J-594108D01*
G01*
X51778170Y-33719890D02*
G75*
G02X51768510Y-33820538I-313949J-20655D01*
G01*
X43516620Y-34262131D02*
G75*
G02X43543894Y-34061096I1517567J-103518D01*
G01*
X51750855Y-33638703D02*
G75*
G02X51778170Y-33719889I-139649J-92172D01*
G01*
X45225214Y-33030143D02*
G75*
G02X45271126Y-33011081I135883J-262459D01*
G01*
X44991624Y-33222413D02*
G75*
G02X45066079Y-33142848I545596J-435939D01*
G01*
X44926183Y-33316620D02*
G75*
G02X44991623Y-33222413I734505J-440387D01*
G01*
X46015127Y-35530049D02*
G75*
G02X45882526Y-35770402I-2263273J1091878D01*
G01*
X43512469Y-35135882D02*
G75*
G02X43498532Y-34894999I2579654J270107D01*
G01*
X44242059Y-35820932D02*
G75*
G02X44525942Y-35812825I184445J-1484306D01*
G01*
X43802124Y-35955139D02*
G75*
G02X43787288Y-35954065I-5767J23342D01*
G01*
X46056923Y-33492407D02*
G75*
G02X46141528Y-33721478I-1551604J-703228D01*
G01*
X45882526Y-35770402D02*
G75*
G02X45737147Y-35976202I-1900970J1188610D01*
G01*
X43549027Y-35386370D02*
X43512470Y-35135882D01*
X43603597Y-35609790D02*
G75*
G02X43549027Y-35386370I2037617J616054D01*
G01*
X45814493Y-33143008D02*
G75*
G02X45945490Y-33296002I-685706J-719693D01*
G01*
X43671624Y-35793507D02*
G75*
G02X43603596Y-35609791I1469217J648486D01*
G01*
X43749525Y-35919951D02*
G75*
G02X43671624Y-35793506I421317J346790D01*
G01*
X44117941Y-35842003D02*
G75*
G02X44242058Y-35820932I298498J-1382222D01*
G01*
X43770817Y-35943224D02*
G75*
G02X43749525Y-35919951I211597J214966D01*
G01*
X45603347Y-36103872D02*
X45521963Y-36162509D01*
X43817439Y-35947611D02*
G75*
G02X43802124Y-35955139I-24922J31357D01*
G01*
X43817440Y-35947611D02*
G75*
G02X43878955Y-35912548I144072J-181274D01*
G01*
X44824277Y-35856719D02*
G75*
G02X45119296Y-35949057I-445570J-1941070D01*
G01*
X44525941Y-35812825D02*
G75*
G02X44824276Y-35856720I-126132J-1893035D01*
G01*
X46214416Y-34090159D02*
G75*
G02X46233066Y-34507126I-3264062J-354895D01*
G01*
X46111858Y-35290600D02*
G75*
G02X46015127Y-35530050I-1871646J616828D01*
G01*
X46141527Y-33721479D02*
G75*
G02X46214415Y-34090159I-2080011J-602762D01*
G01*
X46233066Y-34507126D02*
G75*
G02X46198649Y-34923543I-3288750J62184D01*
G01*
X45945489Y-33296002D02*
G75*
G02X46056922Y-33492407I-1025971J-711909D01*
G01*
X45119295Y-35949057D02*
G75*
G02X45393347Y-36085209I-711306J-1775632D01*
G01*
X43787288Y-35954065D02*
G75*
G02X43770818Y-35943224I19156J47035D01*
G01*
X44117941Y-35842002D02*
X43990061Y-35874834D01*
X45521963Y-36162509D02*
X45393347Y-36085209D01*
X46198649Y-34923542D02*
G75*
G02X46111858Y-35290599I-2167997J318835D01*
G01*
X43990061Y-35874834D02*
X43878955Y-35912548D01*
X45737147Y-35976203D02*
G75*
G02X45603347Y-36103872I-527875J419275D01*
G01*
X43501412Y-34574373D02*
X43516620Y-34262130D01*
X43498532Y-34894999D02*
X43501412Y-34574373D01*
X49668353Y-36405949D02*
G75*
G02X49711033Y-36399936I46216J-173559D01*
G01*
X49732302Y-36396631D02*
G75*
G02X49711033Y-36399936I-22849J76948D01*
G01*
X49917566Y-36333502D02*
X49848913Y-36358740D01*
X49890801Y-36552958D02*
G75*
G02X49855774Y-36650882I-121365J-11814D01*
G01*
X49884732Y-36490599D02*
X49890802Y-36552958D01*
X49685350Y-36475718D02*
X49741332Y-36480599D01*
X49741332Y-36480599D02*
X49884732Y-36490599D01*
X49635834Y-36469295D02*
X49685350Y-36475718D01*
X50542835Y-35935834D02*
G75*
G02X50383608Y-36080111I-912642J847211D01*
G01*
X50606110Y-35810288D02*
G75*
G02X50542835Y-35935834I-248796J46674D01*
G01*
X49621172Y-36422523D02*
G75*
G02X49668354Y-36405949I130205J-295214D01*
G01*
X49785603Y-36380147D02*
X49732302Y-36396631D01*
X49595115Y-36462286D02*
X49635834Y-36469295D01*
X50383607Y-36080110D02*
G75*
G02X50166829Y-36219591I-1000011J1316004D01*
G01*
X49585018Y-36442160D02*
G75*
G02X49621172Y-36422523I137275J-209635D01*
G01*
X49595115Y-36462286D02*
G75*
G02X49583558Y-36456159I4117J21729D01*
G01*
X49848913Y-36358740D02*
X49785603Y-36380147D01*
X50166829Y-36219592D02*
G75*
G02X49917566Y-36333502I-999211J1856836D01*
G01*
X49583558Y-36456159D02*
G75*
G02X49585019Y-36442160I6434J6404D01*
G01*
X52444675Y-35183234D02*
X52523944Y-35189221D01*
X52523944Y-35189221D02*
X52594870Y-35198407D01*
X51198842Y-35869688D02*
G75*
G02X51229881Y-35821334I333449J-179903D01*
G01*
X51082063Y-37070968D02*
G75*
G02X50986587Y-37344590I-1935385J521849D01*
G01*
X51185216Y-35910633D02*
G75*
G02X51198842Y-35869688I123620J-18399D01*
G01*
X51187495Y-36420097D02*
G75*
G02X51150532Y-36752963I-3332320J201544D01*
G01*
X51348360Y-38123962D02*
G75*
G02X51144006Y-37911176I826392J998163D01*
G01*
X45381049Y-36324214D02*
G75*
G02X45459200Y-36388179I-575626J-783010D01*
G01*
X51844732Y-38362463D02*
G75*
G02X51586551Y-38277402I184594J994641D01*
G01*
X45194732Y-36214713D02*
X45299871Y-36271204D01*
X44919546Y-36100946D02*
X45013544Y-36135520D01*
X51586551Y-38277402D02*
G75*
G02X51348360Y-38123963I521191J1070664D01*
G01*
X51150532Y-36752963D02*
G75*
G02X51082062Y-37070968I-3130937J507749D01*
G01*
X50916780Y-37506054D02*
X50986587Y-37344590D01*
X52466538Y-38143402D02*
G75*
G02X52307773Y-38290758I-420156J293481D01*
G01*
X52090334Y-38367447D02*
G75*
G02X51844732Y-38362463I-107670J748198D01*
G01*
X52059099Y-35225474D02*
G75*
G02X52366101Y-35181494I312590J-1088516D01*
G01*
X51188207Y-36101334D02*
G75*
G02X51187494Y-36420097I-2737211J-153258D01*
G01*
X51229881Y-35821334D02*
G75*
G02X51475088Y-35554138I1510725J-1140286D01*
G01*
X44844732Y-36078323D02*
X44919546Y-36100946D01*
X51756661Y-35352011D02*
G75*
G02X52059100Y-35225475I691314J-1227626D01*
G01*
X52366101Y-35181494D02*
X52444675Y-35183234D01*
X51144006Y-37911176D02*
G75*
G02X50985676Y-37651239I1165828J888305D01*
G01*
X52307774Y-38290757D02*
G75*
G02X52090334Y-38367447I-301696J508807D01*
G01*
X51182034Y-35967775D02*
G75*
G02X51185216Y-35910634I310907J11342D01*
G01*
X51188208Y-36101334D02*
X51182033Y-35967774D01*
X50985676Y-37651239D02*
X50916780Y-37506054D01*
X45013544Y-36135520D02*
X45110305Y-36175352D01*
X51475088Y-35554138D02*
G75*
G02X51756661Y-35352011I1058055J-1176744D01*
G01*
X45110305Y-36175352D02*
X45194732Y-36214713D01*
X45299872Y-36271205D02*
G75*
G02X45381050Y-36324214I-436969J-757830D01*
G01*
X52594869Y-35198407D02*
G75*
G02X52646101Y-35210025I-61033J-387914D01*
G01*
X52324866Y-37507444D02*
X52358603Y-37543650D01*
X53109908Y-36756580D02*
G75*
G02X53110873Y-36921090I-617896J-85883D01*
G01*
X52983302Y-36464350D02*
G75*
G02X53065914Y-36597619I-390733J-334452D01*
G01*
X52520122Y-36228210D02*
G75*
G02X52507265Y-36220195I13310J35667D01*
G01*
X52298879Y-37469786D02*
G75*
G02X52306975Y-37465490I11053J-11053D01*
G01*
X52557308Y-36241382D02*
X52602658Y-36255500D01*
X52507237Y-36210325D02*
G75*
G02X52530649Y-36190490I175333J-183214D01*
G01*
X53110873Y-36921089D02*
G75*
G02X53067567Y-37070599I-498301J63309D01*
G01*
X52758952Y-36301841D02*
G75*
G02X52842271Y-36341403I-175906J-477987D01*
G01*
X52842271Y-36341403D02*
G75*
G02X52913767Y-36393538I-234720J-396978D01*
G01*
X52974527Y-37209314D02*
G75*
G02X52841289Y-37318549I-454312J418266D01*
G01*
X53065914Y-36597619D02*
G75*
G02X53109908Y-36756580I-577121J-245291D01*
G01*
X52520121Y-36228211D02*
X52557308Y-36241382D01*
X52653096Y-36269110D02*
G75*
G02X52758952Y-36301842I-257052J-1018852D01*
G01*
X52400146Y-37449379D02*
X52349579Y-37457596D01*
X52349579Y-37457596D02*
X52306975Y-37465490D01*
X52668461Y-37396200D02*
G75*
G02X52458357Y-37441408I-367780J1198413D01*
G01*
X52602658Y-36255500D02*
X52653096Y-36269110D01*
X52507264Y-36220195D02*
G75*
G02X52507237Y-36210325I4683J4948D01*
G01*
X52530649Y-36190490D02*
G75*
G02X52566004Y-36167010I226652J-302930D01*
G01*
X52841289Y-37318549D02*
G75*
G02X52668461Y-37396199I-396644J651655D01*
G01*
X52298562Y-37476783D02*
G75*
G02X52298879Y-37469786I3989J3325D01*
G01*
X52458357Y-37441408D02*
X52400146Y-37449379D01*
X52546093Y-37946595D02*
G75*
G02X52466538Y-38143402I-468581J74930D01*
G01*
X52549435Y-37848975D02*
G75*
G02X52546093Y-37946595I-392206J-35437D01*
G01*
X52913768Y-36393538D02*
G75*
G02X52983302Y-36464350I-482392J-543240D01*
G01*
X52527788Y-37759125D02*
G75*
G02X52549435Y-37848975I-294032J-118372D01*
G01*
X52478809Y-37672647D02*
G75*
G02X52527788Y-37759124I-299693J-226848D01*
G01*
X52298562Y-37476784D02*
X52324866Y-37507444D01*
X52400465Y-37584864D02*
G75*
G02X52478809Y-37672647I-503407J-528131D01*
G01*
X53067567Y-37070600D02*
G75*
G02X52974527Y-37209314I-495395J231718D01*
G01*
X52358603Y-37543650D02*
X52400465Y-37584864D01*
X48878109Y-36988156D02*
G75*
G02X48676146Y-36981153I-25917J2168189D01*
G01*
X52870623Y-35941971D02*
G75*
G02X52805214Y-36014743I-411369J303965D01*
G01*
X52824227Y-35306942D02*
G75*
G02X52940533Y-35464842I-280144J-328134D01*
G01*
X52646101Y-35210026D02*
G75*
G02X52824227Y-35306943I-140129J-469692D01*
G01*
X51497389Y-33528545D02*
G75*
G02X51583184Y-33539749I-14053J-441716D01*
G01*
X51302188Y-33524528D02*
X51497389Y-33528545D01*
X50984732Y-33534153D02*
G75*
G02X51106135Y-33525413I142333J-1129596D01*
G01*
X49254732Y-34115645D02*
G75*
G02X49664142Y-33919498I2249543J-4170038D01*
G01*
X50585006Y-33609716D02*
G75*
G02X50984732Y-33534153I813535J-3208525D01*
G01*
X48002887Y-36599416D02*
G75*
G02X47885056Y-36319572I640087J434243D01*
G01*
X47986515Y-35442972D02*
G75*
G02X48269487Y-34938861I2059299J-824467D01*
G01*
X49855775Y-36650882D02*
G75*
G02X49721254Y-36757510I-522913J521531D01*
G01*
X50125923Y-33744860D02*
X50585006Y-33609716D01*
X49664142Y-33919498D02*
X50125923Y-33744860D01*
X48525778Y-36952827D02*
G75*
G02X48218317Y-36810524I342725J1143800D01*
G01*
X49258240Y-36944070D02*
G75*
G02X49086176Y-36975963I-289649J1082581D01*
G01*
X49516574Y-36859536D02*
G75*
G02X49258240Y-36944071I-899417J2311563D01*
G01*
X47863190Y-35976152D02*
G75*
G02X47986515Y-35442972I1784586J-131924D01*
G01*
X49721254Y-36757510D02*
G75*
G02X49516574Y-36859535I-659227J1066192D01*
G01*
X52611399Y-36142282D02*
X52566004Y-36167010D01*
X48269487Y-34938860D02*
G75*
G02X48699187Y-34488847I2078838J-1554842D01*
G01*
X48699187Y-34488847D02*
G75*
G02X49254732Y-34115645I2199039J-2673376D01*
G01*
X51106135Y-33525413D02*
X51302188Y-33524528D01*
X47885056Y-36319572D02*
G75*
G02X47863189Y-35976152I1231108J250795D01*
G01*
X52721056Y-36079627D02*
G75*
G02X52611399Y-36142282I-661058J1029664D01*
G01*
X52805214Y-36014743D02*
G75*
G02X52721055Y-36079626I-418165J455366D01*
G01*
X52923386Y-35855781D02*
G75*
G02X52870623Y-35941970I-520290J259271D01*
G01*
X52975200Y-35658426D02*
G75*
G02X52923387Y-35855782I-499172J25573D01*
G01*
X48218317Y-36810524D02*
G75*
G02X48002887Y-36599417I414492J638454D01*
G01*
X49086177Y-36975964D02*
G75*
G02X48878109Y-36988157I-234817J2225560D01*
G01*
X52940533Y-35464842D02*
G75*
G02X52975200Y-35658426I-399077J-171363D01*
G01*
X48676146Y-36981153D02*
G75*
G02X48525777Y-36952826I59309J728095D01*
G01*
X46422036Y-30762738D02*
G75*
G02X46409700Y-30763953I-6582J3601D01*
G01*
X46432161Y-30700019D02*
X46429550Y-30737233D01*
X46429549Y-30737233D02*
G75*
G02X46422037Y-30762739I-62365J4510D01*
G01*
X46436558Y-30634945D02*
X46432161Y-30700019D01*
X46441590Y-30559455D02*
X46436558Y-30634945D01*
X46446642Y-30482588D02*
X46441590Y-30559455D01*
X43225012Y-37080599D02*
X43233507Y-37356605D01*
X45408715Y-38874795D02*
G75*
G02X45195943Y-38738336I737857J1384600D01*
G01*
X44507280Y-38712641D02*
G75*
G02X44050977Y-38591057I128436J1399056D01*
G01*
X44985943Y-38679261D02*
X45087154Y-38655479D01*
X44050977Y-38591056D02*
G75*
G02X43666255Y-38327447I568834J1242725D01*
G01*
X43394042Y-37950599D02*
G75*
G02X43311178Y-37753155I1747078J849333D01*
G01*
X43241688Y-36696195D02*
G75*
G02X43257985Y-36627995I443911J-70030D01*
G01*
X43544673Y-35971180D02*
X43608580Y-36071760D01*
X43305446Y-36501428D02*
G75*
G02X43362639Y-36385175I1138183J-487754D01*
G01*
X43362639Y-36385175D02*
G75*
G02X43429339Y-36279717I1001199J-559423D01*
G01*
X43374585Y-35571633D02*
X43423680Y-35722441D01*
X43666254Y-38327447D02*
G75*
G02X43394042Y-37950599I941789J967030D01*
G01*
X43241688Y-36696195D02*
X43231783Y-36782252D01*
X43226462Y-36901171D02*
X43225012Y-37080599D01*
X45087154Y-38655479D02*
X45195943Y-38738336D01*
X43608580Y-36071760D02*
X43505255Y-36185457D01*
X43429339Y-36279717D02*
G75*
G02X43505255Y-36185457I827440J-588710D01*
G01*
X43231783Y-36782252D02*
X43226462Y-36901171D01*
X43332253Y-35400599D02*
X43374585Y-35571633D01*
X44985943Y-38679261D02*
G75*
G02X44507280Y-38712641I-341990J1455410D01*
G01*
X43480135Y-35855060D02*
G75*
G02X43423680Y-35722441I1410267J678661D01*
G01*
X43544672Y-35971180D02*
G75*
G02X43480134Y-35855060I954698J606606D01*
G01*
X43257986Y-36627995D02*
G75*
G02X43305446Y-36501428I1395386J-451069D01*
G01*
X43308037Y-35268534D02*
X43332253Y-35400599D01*
X47073176Y-39307057D02*
X47472429Y-39319918D01*
X46668519Y-39267171D02*
X47073176Y-39307057D01*
X46299352Y-39202667D02*
X46668519Y-39267171D01*
X43311178Y-37753155D02*
G75*
G02X43260254Y-37567026I1210416J431192D01*
G01*
X46299353Y-39202668D02*
G75*
G02X45992607Y-39120134I706503J3237095D01*
G01*
X45992606Y-39120134D02*
G75*
G02X45685469Y-39006431I1144612J3563548D01*
G01*
X45685470Y-39006431D02*
G75*
G02X45408715Y-38874795I1302413J3094974D01*
G01*
X43260255Y-37567026D02*
G75*
G02X43233507Y-37356605I1591566J309222D01*
G01*
X44566300Y-32871332D02*
G75*
G02X44608887Y-32901154I-235194J-381187D01*
G01*
X43294752Y-35147437D02*
X43308037Y-35268534D01*
X43286602Y-34730599D02*
X43288464Y-34992923D01*
X43998346Y-32869532D02*
G75*
G02X44064253Y-32836895I386937J-698503D01*
G01*
X44064253Y-32836895D02*
G75*
G02X44116918Y-32820152I105062J-239276D01*
G01*
X44395116Y-32812500D02*
X44286300Y-32810599D01*
X44504111Y-32837036D02*
G75*
G02X44566300Y-32871332I-319703J-653243D01*
G01*
X43503208Y-33477912D02*
X43430208Y-33673947D01*
X44286300Y-32810599D02*
X44179591Y-32812609D01*
X44116918Y-32820152D02*
G75*
G02X44179591Y-32812609I77167J-377051D01*
G01*
X43288464Y-34992923D02*
X43294752Y-35147437D01*
X43304341Y-34197507D02*
X43293690Y-34326932D01*
X43288094Y-34492854D02*
X43286602Y-34730599D01*
X43293690Y-34326932D02*
X43288094Y-34492854D01*
X43321716Y-34080599D02*
X43304341Y-34197507D01*
X43366596Y-33883795D02*
X43321716Y-34080599D01*
X43576409Y-33324894D02*
G75*
G02X43662886Y-33190501I1041223J-574967D01*
G01*
X43772673Y-33058332D02*
G75*
G02X43889916Y-32945150I1073465J-994669D01*
G01*
X43889916Y-32945149D02*
G75*
G02X43998346Y-32869532I419645J-486190D01*
G01*
X43430208Y-33673947D02*
X43366596Y-33883795D01*
X44455024Y-32819983D02*
G75*
G02X44504111Y-32837036I-45714J-210759D01*
G01*
X43503208Y-33477912D02*
G75*
G02X43576409Y-33324894I1346830J-550283D01*
G01*
X43662886Y-33190502D02*
G75*
G02X43772673Y-33058332I1273858J-946454D01*
G01*
X44395116Y-32812500D02*
G75*
G02X44455024Y-32819983I-11815J-338152D01*
G01*
X45602187Y-30420391D02*
G75*
G02X45959147Y-30359115I742491J-3254953D01*
G01*
X46409700Y-30763952D02*
G75*
G02X46385885Y-30728893I162597J136065D01*
G01*
X44655583Y-32940854D02*
X44608887Y-32901154D01*
X45773392Y-32528085D02*
X45558020Y-32641485D01*
X44816238Y-30990599D02*
X45037891Y-31259036D01*
X44980933Y-32930748D02*
G75*
G02X45064599Y-32870468I476674J-573394D01*
G01*
X44699138Y-32983590D02*
X44655583Y-32940854D01*
X44901978Y-33004808D02*
X44799305Y-33113369D01*
X45428954Y-31854925D02*
X45615851Y-32209342D01*
X45157379Y-32821285D02*
G75*
G02X45263690Y-32780472I436598J-978384D01*
G01*
X45382720Y-32729090D02*
X45307229Y-32763756D01*
X46385885Y-30728893D02*
X46320763Y-30607233D01*
X45469775Y-32686775D02*
X45382720Y-32729090D01*
X45245191Y-30521045D02*
G75*
G02X45602187Y-30420392I1173512J-3478811D01*
G01*
X46113562Y-30345395D02*
G75*
G02X46169659Y-30360916I5497J-89267D01*
G01*
X46169659Y-30360916D02*
G75*
G02X46213196Y-30408768I-79855J-116384D01*
G01*
X44674000Y-30830599D02*
X44816238Y-30990599D01*
X46320763Y-30607233D02*
X46213196Y-30408768D01*
X45558020Y-32641485D02*
X45469775Y-32686775D01*
X44743570Y-30769168D02*
X44674000Y-30830599D01*
X45239219Y-31542720D02*
X45428954Y-31854925D01*
X45615851Y-32209342D02*
X45773392Y-32528085D01*
X44699138Y-32983590D02*
G75*
G02X44732018Y-33022717I-307387J-291692D01*
G01*
X44799305Y-33113369D02*
X44732018Y-33022717D01*
X45037891Y-31259036D02*
X45239219Y-31542720D01*
X44743570Y-30769168D02*
G75*
G02X44937331Y-30643156I523177J-592486D01*
G01*
X45307229Y-32763755D02*
G75*
G02X45263690Y-32780472I-178721J400426D01*
G01*
X44901978Y-33004809D02*
G75*
G02X44980934Y-32930749I657364J-621708D01*
G01*
X46113561Y-30345395D02*
X45959147Y-30359115D01*
X45064599Y-32870469D02*
G75*
G02X45157379Y-32821286I409031J-659510D01*
G01*
X44937332Y-30643156D02*
G75*
G02X45245192Y-30521044I1320997J-2881273D01*
G01*
X44247107Y-34316190D02*
G75*
G02X44289758Y-34334514I-15349J-94527D01*
G01*
X44295883Y-34513629D02*
G75*
G02X44306228Y-34566075I-148910J-56616D01*
G01*
X44243546Y-34670599D02*
G75*
G02X44209867Y-34656001I0J46149D01*
G01*
X44889989Y-34733774D02*
G75*
G02X44919377Y-34481748I1206215J-12924D01*
G01*
X44919377Y-34481748D02*
G75*
G02X45007606Y-34341912I240883J-54232D01*
G01*
X44178536Y-34562584D02*
G75*
G02X44190725Y-34511405I136533J-5476D01*
G01*
X44273506Y-34476062D02*
G75*
G02X44295883Y-34513629I-95745J-82477D01*
G01*
X44245002Y-34462627D02*
G75*
G02X44273507Y-34476061I-818J-38694D01*
G01*
X44202285Y-34320912D02*
G75*
G02X44247107Y-34316190I31079J-79913D01*
G01*
X44331600Y-34378825D02*
G75*
G02X44374419Y-34451926I-554388J-373825D01*
G01*
X44374419Y-34451925D02*
G75*
G02X44400306Y-34511515I-512356J-257997D01*
G01*
X44275667Y-34656652D02*
G75*
G02X44243546Y-34670599I-32121J30016D01*
G01*
X44186070Y-34615993D02*
G75*
G02X44178536Y-34562584I142795J47380D01*
G01*
X44298440Y-34618376D02*
G75*
G02X44275668Y-34656653I-99088J33038D01*
G01*
X44190725Y-34511406D02*
G75*
G02X44215612Y-34474772I119661J-54520D01*
G01*
X44209867Y-34656001D02*
G75*
G02X44186071Y-34615993I79179J74176D01*
G01*
X44306229Y-34566075D02*
G75*
G02X44298440Y-34618376I-152663J-3997D01*
G01*
X44914495Y-34991779D02*
G75*
G02X44889990Y-34733774I1207047J244811D01*
G01*
X44289758Y-34334513D02*
G75*
G02X44331600Y-34378825I-113398J-148990D01*
G01*
X44215612Y-34474771D02*
G75*
G02X44245002Y-34462627I28552J-27462D01*
G01*
X44541421Y-37732200D02*
G75*
G02X44409392Y-37721930I-10741J715721D01*
G01*
X44304732Y-37686381D02*
G75*
G02X44192460Y-37606489I240493J456802D01*
G01*
X44968987Y-37338891D02*
G75*
G02X44935245Y-37534318I-296995J-49348D01*
G01*
X44785777Y-37679162D02*
G75*
G02X44675274Y-37717857I-194209J377474D01*
G01*
X44872808Y-37136183D02*
G75*
G02X44968987Y-37338891I-306560J-269626D01*
G01*
X44935245Y-37534318D02*
G75*
G02X44785777Y-37679162I-313488J173955D01*
G01*
X44573016Y-36943901D02*
G75*
G02X44669175Y-36977409I-71003J-358487D01*
G01*
X44107107Y-37500736D02*
G75*
G02X44053748Y-37374920I424595J254294D01*
G01*
X44675274Y-37717858D02*
G75*
G02X44541421Y-37732200I-144878J720309D01*
G01*
X44192459Y-37606489D02*
G75*
G02X44107107Y-37500735I334101J356968D01*
G01*
X44440896Y-36926408D02*
G75*
G02X44573016Y-36943900I-70602J-1041010D01*
G01*
X44224360Y-36947241D02*
G75*
G02X44310851Y-36925793I100604J-220581D01*
G01*
X44310851Y-36925793D02*
G75*
G02X44440896Y-36926409I60140J-1031355D01*
G01*
X44669175Y-36977409D02*
G75*
G02X44872807Y-37136183I-317378J-617014D01*
G01*
X44409393Y-37721930D02*
G75*
G02X44304732Y-37686381I59829J347988D01*
G01*
X45061737Y-34461832D02*
G75*
G02X45086009Y-34466559I4013J-44079D01*
G01*
X45104731Y-34660600D02*
G75*
G02X45062941Y-34667439I-26725J32203D01*
G01*
X45250890Y-34688310D02*
G75*
G02X45251344Y-34837131I-1564700J-79187D01*
G01*
X45065881Y-34303513D02*
G75*
G02X45083144Y-34305418I5532J-29041D01*
G01*
X44099360Y-37048385D02*
G75*
G02X44128527Y-37018184I332504J-291941D01*
G01*
X44053749Y-37374919D02*
G75*
G02X44035171Y-37236295I523446J140706D01*
G01*
X44037364Y-37170488D02*
X44035171Y-37236295D01*
X44162738Y-36988310D02*
X44128527Y-37018184D01*
X45133844Y-34574077D02*
G75*
G02X45125660Y-34628113I-235476J8028D01*
G01*
X45027584Y-34634306D02*
G75*
G02X45012870Y-34566046I144664J66900D01*
G01*
X44196655Y-36962951D02*
X44162738Y-36988310D01*
X45236653Y-34556799D02*
G75*
G02X45250890Y-34688310I-1139746J-189912D01*
G01*
X45026872Y-34492235D02*
G75*
G02X45041232Y-34470983I53007J-20341D01*
G01*
X45110731Y-34484599D02*
G75*
G02X45129347Y-34519355I-48158J-48159D01*
G01*
X45041233Y-34470982D02*
G75*
G02X45061737Y-34461832I23655J-25460D01*
G01*
X45129348Y-34519355D02*
G75*
G02X45133845Y-34574077I-232401J-46646D01*
G01*
X45236119Y-34963630D02*
G75*
G02X45206119Y-35065916I-580479J114709D01*
G01*
X45251343Y-34837131D02*
G75*
G02X45236119Y-34963630I-845805J37631D01*
G01*
X44196655Y-36962950D02*
G75*
G02X44224360Y-36947241I102964J-149301D01*
G01*
X45115981Y-34321267D02*
G75*
G02X45167219Y-34367925I-66806J-124829D01*
G01*
X45125660Y-34628112D02*
G75*
G02X45104732Y-34660599I-61923J16907D01*
G01*
X45115981Y-34321268D02*
X45083144Y-34305418D01*
X44037364Y-37170488D02*
G75*
G02X44045786Y-37128905I164060J-11582D01*
G01*
X45048133Y-34311209D02*
X45007606Y-34341912D01*
X45086010Y-34466558D02*
G75*
G02X45110732Y-34484599I-45374J-88136D01*
G01*
X45012870Y-34566046D02*
G75*
G02X45026871Y-34492235I211040J-1800D01*
G01*
X45207991Y-34448474D02*
G75*
G02X45236653Y-34556799I-562887J-206893D01*
G01*
X45062941Y-34667440D02*
G75*
G02X45027584Y-34634306I23241J60233D01*
G01*
X45048134Y-34311210D02*
G75*
G02X45065881Y-34303513I26005J-35656D01*
G01*
X45167218Y-34367925D02*
G75*
G02X45207990Y-34448474I-324221J-214705D01*
G01*
X44045786Y-37128905D02*
G75*
G02X44064075Y-37093105I133339J-45548D01*
G01*
X44064075Y-37093105D02*
G75*
G02X44099360Y-37048384I442843J-313119D01*
G01*
X45040564Y-35188759D02*
G75*
G02X44998894Y-35155030I102276J168960D01*
G01*
X45206119Y-35065916D02*
G75*
G02X45161467Y-35140831I-251506J99142D01*
G01*
X45118232Y-35182424D02*
G75*
G02X45079187Y-35197746I-45495J58526D01*
G01*
X45161468Y-35140831D02*
G75*
G02X45118232Y-35182424I-218466J183826D01*
G01*
X45079187Y-35197746D02*
G75*
G02X45040563Y-35188759I-5556J63614D01*
G01*
X44998894Y-35155030D02*
G75*
G02X44914495Y-34991779I244856J230030D01*
G01*
D12*
X209082500Y-84228750D02*
X206842500Y-84228750D01*
X209082500Y-83988750D02*
X206842500Y-83988750D01*
X209082500Y-84108750D02*
X206842500Y-84108750D01*
X207962500Y-79938750D02*
X207962500Y-80588750D01*
X207962500Y-85478750D02*
X207962500Y-84828750D01*
X209082500Y-80588750D02*
X209082500Y-84828750D01*
X206842500Y-80588750D02*
X209082500Y-80588750D01*
X206842500Y-84828750D02*
X206842500Y-80588750D01*
X209082500Y-84828750D02*
X206842500Y-84828750D01*
X179296250Y-93195000D02*
X179296250Y-90955000D01*
X179536250Y-93195000D02*
X179536250Y-90955000D01*
X179416250Y-93195000D02*
X179416250Y-90955000D01*
X183586250Y-92075000D02*
X182936250Y-92075000D01*
X178046250Y-92075000D02*
X178696250Y-92075000D01*
X182936250Y-93195000D02*
X178696250Y-93195000D01*
X182936250Y-90955000D02*
X182936250Y-93195000D01*
X178696250Y-90955000D02*
X182936250Y-90955000D01*
X178696250Y-93195000D02*
X178696250Y-90955000D01*
X150721250Y-93195000D02*
X150721250Y-90955000D01*
X150961250Y-93195000D02*
X150961250Y-90955000D01*
X150841250Y-93195000D02*
X150841250Y-90955000D01*
X155011250Y-92075000D02*
X154361250Y-92075000D01*
X149471250Y-92075000D02*
X150121250Y-92075000D01*
X154361250Y-93195000D02*
X150121250Y-93195000D01*
X154361250Y-90955000D02*
X154361250Y-93195000D01*
X150121250Y-90955000D02*
X154361250Y-90955000D01*
X150121250Y-93195000D02*
X150121250Y-90955000D01*
X135263750Y-85816250D02*
X133023750Y-85816250D01*
X135263750Y-85576250D02*
X133023750Y-85576250D01*
X135263750Y-85696250D02*
X133023750Y-85696250D01*
X134143750Y-81526250D02*
X134143750Y-82176250D01*
X134143750Y-87066250D02*
X134143750Y-86416250D01*
X135263750Y-82176250D02*
X135263750Y-86416250D01*
X133023750Y-82176250D02*
X135263750Y-82176250D01*
X133023750Y-86416250D02*
X133023750Y-82176250D01*
X135263750Y-86416250D02*
X133023750Y-86416250D01*
X135028750Y-90955000D02*
X135028750Y-93195000D01*
X134788750Y-90955000D02*
X134788750Y-93195000D01*
X134908750Y-90955000D02*
X134908750Y-93195000D01*
X130738750Y-92075000D02*
X131388750Y-92075000D01*
X136278750Y-92075000D02*
X135628750Y-92075000D01*
X131388750Y-90955000D02*
X135628750Y-90955000D01*
X131388750Y-93195000D02*
X131388750Y-90955000D01*
X135628750Y-93195000D02*
X131388750Y-93195000D01*
X135628750Y-90955000D02*
X135628750Y-93195000D01*
X112621250Y-93195000D02*
X112621250Y-90955000D01*
X112861250Y-93195000D02*
X112861250Y-90955000D01*
X112741250Y-93195000D02*
X112741250Y-90955000D01*
X116911250Y-92075000D02*
X116261250Y-92075000D01*
X111371250Y-92075000D02*
X112021250Y-92075000D01*
X116261250Y-93195000D02*
X112021250Y-93195000D01*
X116261250Y-90955000D02*
X116261250Y-93195000D01*
X112021250Y-90955000D02*
X116261250Y-90955000D01*
X112021250Y-93195000D02*
X112021250Y-90955000D01*
X95576250Y-85816250D02*
X93336250Y-85816250D01*
X95576250Y-85576250D02*
X93336250Y-85576250D01*
X95576250Y-85696250D02*
X93336250Y-85696250D01*
X94456250Y-81526250D02*
X94456250Y-82176250D01*
X94456250Y-87066250D02*
X94456250Y-86416250D01*
X95576250Y-82176250D02*
X95576250Y-86416250D01*
X93336250Y-82176250D02*
X95576250Y-82176250D01*
X93336250Y-86416250D02*
X93336250Y-82176250D01*
X95576250Y-86416250D02*
X93336250Y-86416250D01*
X74521250Y-93195000D02*
X74521250Y-90955000D01*
X74761250Y-93195000D02*
X74761250Y-90955000D01*
X74641250Y-93195000D02*
X74641250Y-90955000D01*
X78811250Y-92075000D02*
X78161250Y-92075000D01*
X73271250Y-92075000D02*
X73921250Y-92075000D01*
X78161250Y-93195000D02*
X73921250Y-93195000D01*
X78161250Y-90955000D02*
X78161250Y-93195000D01*
X73921250Y-90955000D02*
X78161250Y-90955000D01*
X73921250Y-93195000D02*
X73921250Y-90955000D01*
X45946250Y-93195000D02*
X45946250Y-90955000D01*
X46186250Y-93195000D02*
X46186250Y-90955000D01*
X46066250Y-93195000D02*
X46066250Y-90955000D01*
X50236250Y-92075000D02*
X49586250Y-92075000D01*
X44696250Y-92075000D02*
X45346250Y-92075000D01*
X49586250Y-93195000D02*
X45346250Y-93195000D01*
X49586250Y-90955000D02*
X49586250Y-93195000D01*
X45346250Y-90955000D02*
X49586250Y-90955000D01*
X45346250Y-93195000D02*
X45346250Y-90955000D01*
X21757500Y-84228750D02*
X19517500Y-84228750D01*
X21757500Y-83988750D02*
X19517500Y-83988750D01*
X21757500Y-84108750D02*
X19517500Y-84108750D01*
X20637500Y-79938750D02*
X20637500Y-80588750D01*
X20637500Y-85478750D02*
X20637500Y-84828750D01*
X21757500Y-80588750D02*
X21757500Y-84828750D01*
X19517500Y-80588750D02*
X21757500Y-80588750D01*
X19517500Y-84828750D02*
X19517500Y-80588750D01*
X21757500Y-84828750D02*
X19517500Y-84828750D01*
X209082500Y-66766250D02*
X206842500Y-66766250D01*
X209082500Y-66526250D02*
X206842500Y-66526250D01*
X209082500Y-66646250D02*
X206842500Y-66646250D01*
X207962500Y-62476250D02*
X207962500Y-63126250D01*
X207962500Y-68016250D02*
X207962500Y-67366250D01*
X209082500Y-63126250D02*
X209082500Y-67366250D01*
X206842500Y-63126250D02*
X209082500Y-63126250D01*
X206842500Y-67366250D02*
X206842500Y-63126250D01*
X209082500Y-67366250D02*
X206842500Y-67366250D01*
X190826250Y-66766250D02*
X188586250Y-66766250D01*
X190826250Y-66526250D02*
X188586250Y-66526250D01*
X190826250Y-66646250D02*
X188586250Y-66646250D01*
X189706250Y-62476250D02*
X189706250Y-63126250D01*
X189706250Y-68016250D02*
X189706250Y-67366250D01*
X190826250Y-63126250D02*
X190826250Y-67366250D01*
X188586250Y-63126250D02*
X190826250Y-63126250D01*
X188586250Y-67366250D02*
X188586250Y-63126250D01*
X190826250Y-67366250D02*
X188586250Y-67366250D01*
X171776250Y-66766250D02*
X169536250Y-66766250D01*
X171776250Y-66526250D02*
X169536250Y-66526250D01*
X171776250Y-66646250D02*
X169536250Y-66646250D01*
X170656250Y-62476250D02*
X170656250Y-63126250D01*
X170656250Y-68016250D02*
X170656250Y-67366250D01*
X171776250Y-63126250D02*
X171776250Y-67366250D01*
X169536250Y-63126250D02*
X171776250Y-63126250D01*
X169536250Y-67366250D02*
X169536250Y-63126250D01*
X171776250Y-67366250D02*
X169536250Y-67366250D01*
X152726250Y-66766250D02*
X150486250Y-66766250D01*
X152726250Y-66526250D02*
X150486250Y-66526250D01*
X152726250Y-66646250D02*
X150486250Y-66646250D01*
X151606250Y-62476250D02*
X151606250Y-63126250D01*
X151606250Y-68016250D02*
X151606250Y-67366250D01*
X152726250Y-63126250D02*
X152726250Y-67366250D01*
X150486250Y-63126250D02*
X152726250Y-63126250D01*
X150486250Y-67366250D02*
X150486250Y-63126250D01*
X152726250Y-67366250D02*
X150486250Y-67366250D01*
X133676250Y-66766250D02*
X131436250Y-66766250D01*
X133676250Y-66526250D02*
X131436250Y-66526250D01*
X133676250Y-66646250D02*
X131436250Y-66646250D01*
X132556250Y-62476250D02*
X132556250Y-63126250D01*
X132556250Y-68016250D02*
X132556250Y-67366250D01*
X133676250Y-63126250D02*
X133676250Y-67366250D01*
X131436250Y-63126250D02*
X133676250Y-63126250D01*
X131436250Y-67366250D02*
X131436250Y-63126250D01*
X133676250Y-67366250D02*
X131436250Y-67366250D01*
X114626250Y-66766250D02*
X112386250Y-66766250D01*
X114626250Y-66526250D02*
X112386250Y-66526250D01*
X114626250Y-66646250D02*
X112386250Y-66646250D01*
X113506250Y-62476250D02*
X113506250Y-63126250D01*
X113506250Y-68016250D02*
X113506250Y-67366250D01*
X114626250Y-63126250D02*
X114626250Y-67366250D01*
X112386250Y-63126250D02*
X114626250Y-63126250D01*
X112386250Y-67366250D02*
X112386250Y-63126250D01*
X114626250Y-67366250D02*
X112386250Y-67366250D01*
X95576250Y-66766250D02*
X93336250Y-66766250D01*
X95576250Y-66526250D02*
X93336250Y-66526250D01*
X95576250Y-66646250D02*
X93336250Y-66646250D01*
X94456250Y-62476250D02*
X94456250Y-63126250D01*
X94456250Y-68016250D02*
X94456250Y-67366250D01*
X95576250Y-63126250D02*
X95576250Y-67366250D01*
X93336250Y-63126250D02*
X95576250Y-63126250D01*
X93336250Y-67366250D02*
X93336250Y-63126250D01*
X95576250Y-67366250D02*
X93336250Y-67366250D01*
X76526250Y-66766250D02*
X74286250Y-66766250D01*
X76526250Y-66526250D02*
X74286250Y-66526250D01*
X76526250Y-66646250D02*
X74286250Y-66646250D01*
X75406250Y-62476250D02*
X75406250Y-63126250D01*
X75406250Y-68016250D02*
X75406250Y-67366250D01*
X76526250Y-63126250D02*
X76526250Y-67366250D01*
X74286250Y-63126250D02*
X76526250Y-63126250D01*
X74286250Y-67366250D02*
X74286250Y-63126250D01*
X76526250Y-67366250D02*
X74286250Y-67366250D01*
X57476250Y-66766250D02*
X55236250Y-66766250D01*
X57476250Y-66526250D02*
X55236250Y-66526250D01*
X57476250Y-66646250D02*
X55236250Y-66646250D01*
X56356250Y-62476250D02*
X56356250Y-63126250D01*
X56356250Y-68016250D02*
X56356250Y-67366250D01*
X57476250Y-63126250D02*
X57476250Y-67366250D01*
X55236250Y-63126250D02*
X57476250Y-63126250D01*
X55236250Y-67366250D02*
X55236250Y-63126250D01*
X57476250Y-67366250D02*
X55236250Y-67366250D01*
X38426250Y-66766250D02*
X36186250Y-66766250D01*
X38426250Y-66526250D02*
X36186250Y-66526250D01*
X38426250Y-66646250D02*
X36186250Y-66646250D01*
X37306250Y-62476250D02*
X37306250Y-63126250D01*
X37306250Y-68016250D02*
X37306250Y-67366250D01*
X38426250Y-63126250D02*
X38426250Y-67366250D01*
X36186250Y-63126250D02*
X38426250Y-63126250D01*
X36186250Y-67366250D02*
X36186250Y-63126250D01*
X38426250Y-67366250D02*
X36186250Y-67366250D01*
X209082500Y-47716250D02*
X206842500Y-47716250D01*
X209082500Y-47476250D02*
X206842500Y-47476250D01*
X209082500Y-47596250D02*
X206842500Y-47596250D01*
X207962500Y-43426250D02*
X207962500Y-44076250D01*
X207962500Y-48966250D02*
X207962500Y-48316250D01*
X209082500Y-44076250D02*
X209082500Y-48316250D01*
X206842500Y-44076250D02*
X209082500Y-44076250D01*
X206842500Y-48316250D02*
X206842500Y-44076250D01*
X209082500Y-48316250D02*
X206842500Y-48316250D01*
X190826250Y-47716250D02*
X188586250Y-47716250D01*
X190826250Y-47476250D02*
X188586250Y-47476250D01*
X190826250Y-47596250D02*
X188586250Y-47596250D01*
X189706250Y-43426250D02*
X189706250Y-44076250D01*
X189706250Y-48966250D02*
X189706250Y-48316250D01*
X190826250Y-44076250D02*
X190826250Y-48316250D01*
X188586250Y-44076250D02*
X190826250Y-44076250D01*
X188586250Y-48316250D02*
X188586250Y-44076250D01*
X190826250Y-48316250D02*
X188586250Y-48316250D01*
X171776250Y-47716250D02*
X169536250Y-47716250D01*
X171776250Y-47476250D02*
X169536250Y-47476250D01*
X171776250Y-47596250D02*
X169536250Y-47596250D01*
X170656250Y-43426250D02*
X170656250Y-44076250D01*
X170656250Y-48966250D02*
X170656250Y-48316250D01*
X171776250Y-44076250D02*
X171776250Y-48316250D01*
X169536250Y-44076250D02*
X171776250Y-44076250D01*
X169536250Y-48316250D02*
X169536250Y-44076250D01*
X171776250Y-48316250D02*
X169536250Y-48316250D01*
X152726250Y-47716250D02*
X150486250Y-47716250D01*
X152726250Y-47476250D02*
X150486250Y-47476250D01*
X152726250Y-47596250D02*
X150486250Y-47596250D01*
X151606250Y-43426250D02*
X151606250Y-44076250D01*
X151606250Y-48966250D02*
X151606250Y-48316250D01*
X152726250Y-44076250D02*
X152726250Y-48316250D01*
X150486250Y-44076250D02*
X152726250Y-44076250D01*
X150486250Y-48316250D02*
X150486250Y-44076250D01*
X152726250Y-48316250D02*
X150486250Y-48316250D01*
X133676250Y-47716250D02*
X131436250Y-47716250D01*
X133676250Y-47476250D02*
X131436250Y-47476250D01*
X133676250Y-47596250D02*
X131436250Y-47596250D01*
X132556250Y-43426250D02*
X132556250Y-44076250D01*
X132556250Y-48966250D02*
X132556250Y-48316250D01*
X133676250Y-44076250D02*
X133676250Y-48316250D01*
X131436250Y-44076250D02*
X133676250Y-44076250D01*
X131436250Y-48316250D02*
X131436250Y-44076250D01*
X133676250Y-48316250D02*
X131436250Y-48316250D01*
X114626250Y-47716250D02*
X112386250Y-47716250D01*
X114626250Y-47476250D02*
X112386250Y-47476250D01*
X114626250Y-47596250D02*
X112386250Y-47596250D01*
X113506250Y-43426250D02*
X113506250Y-44076250D01*
X113506250Y-48966250D02*
X113506250Y-48316250D01*
X114626250Y-44076250D02*
X114626250Y-48316250D01*
X112386250Y-44076250D02*
X114626250Y-44076250D01*
X112386250Y-48316250D02*
X112386250Y-44076250D01*
X114626250Y-48316250D02*
X112386250Y-48316250D01*
X95576250Y-47716250D02*
X93336250Y-47716250D01*
X95576250Y-47476250D02*
X93336250Y-47476250D01*
X95576250Y-47596250D02*
X93336250Y-47596250D01*
X94456250Y-43426250D02*
X94456250Y-44076250D01*
X94456250Y-48966250D02*
X94456250Y-48316250D01*
X95576250Y-44076250D02*
X95576250Y-48316250D01*
X93336250Y-44076250D02*
X95576250Y-44076250D01*
X93336250Y-48316250D02*
X93336250Y-44076250D01*
X95576250Y-48316250D02*
X93336250Y-48316250D01*
X78907500Y-47716250D02*
X76667500Y-47716250D01*
X78907500Y-47476250D02*
X76667500Y-47476250D01*
X78907500Y-47596250D02*
X76667500Y-47596250D01*
X77787500Y-43426250D02*
X77787500Y-44076250D01*
X77787500Y-48966250D02*
X77787500Y-48316250D01*
X78907500Y-44076250D02*
X78907500Y-48316250D01*
X76667500Y-44076250D02*
X78907500Y-44076250D01*
X76667500Y-48316250D02*
X76667500Y-44076250D01*
X78907500Y-48316250D02*
X76667500Y-48316250D01*
X75732500Y-47716250D02*
X73492500Y-47716250D01*
X75732500Y-47476250D02*
X73492500Y-47476250D01*
X75732500Y-47596250D02*
X73492500Y-47596250D01*
X74612500Y-43426250D02*
X74612500Y-44076250D01*
X74612500Y-48966250D02*
X74612500Y-48316250D01*
X75732500Y-44076250D02*
X75732500Y-48316250D01*
X73492500Y-44076250D02*
X75732500Y-44076250D01*
X73492500Y-48316250D02*
X73492500Y-44076250D01*
X75732500Y-48316250D02*
X73492500Y-48316250D01*
X21757500Y-47716250D02*
X19517500Y-47716250D01*
X21757500Y-47476250D02*
X19517500Y-47476250D01*
X21757500Y-47596250D02*
X19517500Y-47596250D01*
X20637500Y-43426250D02*
X20637500Y-44076250D01*
X20637500Y-48966250D02*
X20637500Y-48316250D01*
X21757500Y-44076250D02*
X21757500Y-48316250D01*
X19517500Y-44076250D02*
X21757500Y-44076250D01*
X19517500Y-48316250D02*
X19517500Y-44076250D01*
X21757500Y-48316250D02*
X19517500Y-48316250D01*
X209082500Y-29460000D02*
X206842500Y-29460000D01*
X209082500Y-29220000D02*
X206842500Y-29220000D01*
X209082500Y-29340000D02*
X206842500Y-29340000D01*
X207962500Y-25170000D02*
X207962500Y-25820000D01*
X207962500Y-30710000D02*
X207962500Y-30060000D01*
X209082500Y-25820000D02*
X209082500Y-30060000D01*
X206842500Y-25820000D02*
X209082500Y-25820000D01*
X206842500Y-30060000D02*
X206842500Y-25820000D01*
X209082500Y-30060000D02*
X206842500Y-30060000D01*
X190826250Y-28666250D02*
X188586250Y-28666250D01*
X190826250Y-28426250D02*
X188586250Y-28426250D01*
X190826250Y-28546250D02*
X188586250Y-28546250D01*
X189706250Y-24376250D02*
X189706250Y-25026250D01*
X189706250Y-29916250D02*
X189706250Y-29266250D01*
X190826250Y-25026250D02*
X190826250Y-29266250D01*
X188586250Y-25026250D02*
X190826250Y-25026250D01*
X188586250Y-29266250D02*
X188586250Y-25026250D01*
X190826250Y-29266250D02*
X188586250Y-29266250D01*
X171776250Y-28666250D02*
X169536250Y-28666250D01*
X171776250Y-28426250D02*
X169536250Y-28426250D01*
X171776250Y-28546250D02*
X169536250Y-28546250D01*
X170656250Y-24376250D02*
X170656250Y-25026250D01*
X170656250Y-29916250D02*
X170656250Y-29266250D01*
X171776250Y-25026250D02*
X171776250Y-29266250D01*
X169536250Y-25026250D02*
X171776250Y-25026250D01*
X169536250Y-29266250D02*
X169536250Y-25026250D01*
X171776250Y-29266250D02*
X169536250Y-29266250D01*
X152726250Y-28666250D02*
X150486250Y-28666250D01*
X152726250Y-28426250D02*
X150486250Y-28426250D01*
X152726250Y-28546250D02*
X150486250Y-28546250D01*
X151606250Y-24376250D02*
X151606250Y-25026250D01*
X151606250Y-29916250D02*
X151606250Y-29266250D01*
X152726250Y-25026250D02*
X152726250Y-29266250D01*
X150486250Y-25026250D02*
X152726250Y-25026250D01*
X150486250Y-29266250D02*
X150486250Y-25026250D01*
X152726250Y-29266250D02*
X150486250Y-29266250D01*
X133676250Y-28666250D02*
X131436250Y-28666250D01*
X133676250Y-28426250D02*
X131436250Y-28426250D01*
X133676250Y-28546250D02*
X131436250Y-28546250D01*
X132556250Y-24376250D02*
X132556250Y-25026250D01*
X132556250Y-29916250D02*
X132556250Y-29266250D01*
X133676250Y-25026250D02*
X133676250Y-29266250D01*
X131436250Y-25026250D02*
X133676250Y-25026250D01*
X131436250Y-29266250D02*
X131436250Y-25026250D01*
X133676250Y-29266250D02*
X131436250Y-29266250D01*
X114626250Y-28666250D02*
X112386250Y-28666250D01*
X114626250Y-28426250D02*
X112386250Y-28426250D01*
X114626250Y-28546250D02*
X112386250Y-28546250D01*
X113506250Y-24376250D02*
X113506250Y-25026250D01*
X113506250Y-29916250D02*
X113506250Y-29266250D01*
X114626250Y-25026250D02*
X114626250Y-29266250D01*
X112386250Y-25026250D02*
X114626250Y-25026250D01*
X112386250Y-29266250D02*
X112386250Y-25026250D01*
X114626250Y-29266250D02*
X112386250Y-29266250D01*
X95576250Y-28666250D02*
X93336250Y-28666250D01*
X95576250Y-28426250D02*
X93336250Y-28426250D01*
X95576250Y-28546250D02*
X93336250Y-28546250D01*
X94456250Y-24376250D02*
X94456250Y-25026250D01*
X94456250Y-29916250D02*
X94456250Y-29266250D01*
X95576250Y-25026250D02*
X95576250Y-29266250D01*
X93336250Y-25026250D02*
X95576250Y-25026250D01*
X93336250Y-29266250D02*
X93336250Y-25026250D01*
X95576250Y-29266250D02*
X93336250Y-29266250D01*
X78907500Y-28666250D02*
X76667500Y-28666250D01*
X78907500Y-28426250D02*
X76667500Y-28426250D01*
X78907500Y-28546250D02*
X76667500Y-28546250D01*
X77787500Y-24376250D02*
X77787500Y-25026250D01*
X77787500Y-29916250D02*
X77787500Y-29266250D01*
X78907500Y-25026250D02*
X78907500Y-29266250D01*
X76667500Y-25026250D02*
X78907500Y-25026250D01*
X76667500Y-29266250D02*
X76667500Y-25026250D01*
X78907500Y-29266250D02*
X76667500Y-29266250D01*
X75732500Y-28666250D02*
X73492500Y-28666250D01*
X75732500Y-28426250D02*
X73492500Y-28426250D01*
X75732500Y-28546250D02*
X73492500Y-28546250D01*
X74612500Y-24376250D02*
X74612500Y-25026250D01*
X74612500Y-29916250D02*
X74612500Y-29266250D01*
X75732500Y-25026250D02*
X75732500Y-29266250D01*
X73492500Y-25026250D02*
X75732500Y-25026250D01*
X73492500Y-29266250D02*
X73492500Y-25026250D01*
X75732500Y-29266250D02*
X73492500Y-29266250D01*
X21757500Y-29460000D02*
X19517500Y-29460000D01*
X21757500Y-29220000D02*
X19517500Y-29220000D01*
X21757500Y-29340000D02*
X19517500Y-29340000D01*
X20637500Y-25170000D02*
X20637500Y-25820000D01*
X20637500Y-30710000D02*
X20637500Y-30060000D01*
X21757500Y-25820000D02*
X21757500Y-30060000D01*
X19517500Y-25820000D02*
X21757500Y-25820000D01*
X19517500Y-30060000D02*
X19517500Y-25820000D01*
X21757500Y-30060000D02*
X19517500Y-30060000D01*
D13*
X41275000Y-21272500D02*
X38735000Y-21272500D01*
X56515000Y-18732500D02*
X38735000Y-18732500D01*
X38735000Y-18732500D02*
X38735000Y-51752500D01*
X38735000Y-51752500D02*
X56515000Y-51752500D01*
X56515000Y-51752500D02*
X56515000Y-18732500D01*
D10*
G36*
X53469635Y-27161530D02*
G01*
X53469635Y-27261530D01*
X53969635Y-27261530D01*
X53969635Y-27161530D01*
X53469635Y-27161530D01*
G37*
X53469635Y-27161530D02*
X53469635Y-27261530D01*
X53969635Y-27261530D01*
X53969635Y-27161530D01*
X53469635Y-27161530D01*
G36*
X53469635Y-27161530D02*
G01*
X53469635Y-27461530D01*
X53569635Y-27461530D01*
X53569635Y-27161530D01*
X53469635Y-27161530D01*
G37*
X53469635Y-27161530D02*
X53469635Y-27461530D01*
X53569635Y-27461530D01*
X53569635Y-27161530D01*
X53469635Y-27161530D01*
G36*
X53469635Y-27761530D02*
G01*
X53469635Y-27961530D01*
X53569635Y-27961530D01*
X53569635Y-27761530D01*
X53469635Y-27761530D01*
G37*
X53469635Y-27761530D02*
X53469635Y-27961530D01*
X53569635Y-27961530D01*
X53569635Y-27761530D01*
X53469635Y-27761530D01*
G36*
X53869635Y-27161530D02*
G01*
X53869635Y-27961530D01*
X53969635Y-27961530D01*
X53969635Y-27161530D01*
X53869635Y-27161530D01*
G37*
X53869635Y-27161530D02*
X53869635Y-27961530D01*
X53969635Y-27961530D01*
X53969635Y-27161530D01*
X53869635Y-27161530D01*
G36*
X53669635Y-27561530D02*
G01*
X53669635Y-27661530D01*
X53769635Y-27661530D01*
X53769635Y-27561530D01*
X53669635Y-27561530D01*
G37*
X53669635Y-27561530D02*
X53669635Y-27661530D01*
X53769635Y-27661530D01*
X53769635Y-27561530D01*
X53669635Y-27561530D01*
D13*
X41275000Y-21272500D02*
X41275000Y-23812500D01*
X41275000Y-23812500D02*
X38735000Y-23812500D01*
D10*
X63718750Y-29150000D02*
X58518750Y-29150000D01*
X58518750Y-29150000D02*
X58518750Y-34350000D01*
X58518750Y-34350000D02*
X63718750Y-34350000D01*
X63718750Y-34350000D02*
X63718750Y-29150000D01*
X62118750Y-31750000D02*
G75*
G03X62118750Y-31750000I-1000000J0D01*
G01*
X210534880Y-81494464D02*
X209534880Y-81494464D01*
X209534880Y-81732559D01*
X209582500Y-81875416D01*
X209677738Y-81970654D01*
X209772976Y-82018273D01*
X209963452Y-82065892D01*
X210106309Y-82065892D01*
X210296785Y-82018273D01*
X210392023Y-81970654D01*
X210487261Y-81875416D01*
X210534880Y-81732559D01*
X210534880Y-81494464D01*
X209868214Y-82923035D02*
X210534880Y-82923035D01*
X209487261Y-82684940D02*
X210201547Y-82446845D01*
X210201547Y-83065892D01*
X209534880Y-83637321D02*
X209534880Y-83732559D01*
X209582500Y-83827797D01*
X209630119Y-83875416D01*
X209725357Y-83923035D01*
X209915833Y-83970654D01*
X210153928Y-83970654D01*
X210344404Y-83923035D01*
X210439642Y-83875416D01*
X210487261Y-83827797D01*
X210534880Y-83732559D01*
X210534880Y-83637321D01*
X210487261Y-83542083D01*
X210439642Y-83494464D01*
X210344404Y-83446845D01*
X210153928Y-83399226D01*
X209915833Y-83399226D01*
X209725357Y-83446845D01*
X209630119Y-83494464D01*
X209582500Y-83542083D01*
X209534880Y-83637321D01*
X210214880Y-86256845D02*
X209214880Y-86256845D01*
X210214880Y-86828273D02*
X209643452Y-86399702D01*
X209214880Y-86828273D02*
X209786309Y-86256845D01*
X182030535Y-94647380D02*
X182030535Y-93647380D01*
X181792440Y-93647380D01*
X181649583Y-93695000D01*
X181554345Y-93790238D01*
X181506726Y-93885476D01*
X181459107Y-94075952D01*
X181459107Y-94218809D01*
X181506726Y-94409285D01*
X181554345Y-94504523D01*
X181649583Y-94599761D01*
X181792440Y-94647380D01*
X182030535Y-94647380D01*
X181125773Y-93647380D02*
X180506726Y-93647380D01*
X180840059Y-94028333D01*
X180697202Y-94028333D01*
X180601964Y-94075952D01*
X180554345Y-94123571D01*
X180506726Y-94218809D01*
X180506726Y-94456904D01*
X180554345Y-94552142D01*
X180601964Y-94599761D01*
X180697202Y-94647380D01*
X180982916Y-94647380D01*
X181078154Y-94599761D01*
X181125773Y-94552142D01*
X180030535Y-94647380D02*
X179840059Y-94647380D01*
X179744821Y-94599761D01*
X179697202Y-94552142D01*
X179601964Y-94409285D01*
X179554345Y-94218809D01*
X179554345Y-93837857D01*
X179601964Y-93742619D01*
X179649583Y-93695000D01*
X179744821Y-93647380D01*
X179935297Y-93647380D01*
X180030535Y-93695000D01*
X180078154Y-93742619D01*
X180125773Y-93837857D01*
X180125773Y-94075952D01*
X180078154Y-94171190D01*
X180030535Y-94218809D01*
X179935297Y-94266428D01*
X179744821Y-94266428D01*
X179649583Y-94218809D01*
X179601964Y-94171190D01*
X179554345Y-94075952D01*
X177268154Y-94327380D02*
X177268154Y-93327380D01*
X176696726Y-94327380D02*
X177125297Y-93755952D01*
X176696726Y-93327380D02*
X177268154Y-93898809D01*
X153455535Y-94647380D02*
X153455535Y-93647380D01*
X153217440Y-93647380D01*
X153074583Y-93695000D01*
X152979345Y-93790238D01*
X152931726Y-93885476D01*
X152884107Y-94075952D01*
X152884107Y-94218809D01*
X152931726Y-94409285D01*
X152979345Y-94504523D01*
X153074583Y-94599761D01*
X153217440Y-94647380D01*
X153455535Y-94647380D01*
X152550773Y-93647380D02*
X151931726Y-93647380D01*
X152265059Y-94028333D01*
X152122202Y-94028333D01*
X152026964Y-94075952D01*
X151979345Y-94123571D01*
X151931726Y-94218809D01*
X151931726Y-94456904D01*
X151979345Y-94552142D01*
X152026964Y-94599761D01*
X152122202Y-94647380D01*
X152407916Y-94647380D01*
X152503154Y-94599761D01*
X152550773Y-94552142D01*
X151360297Y-94075952D02*
X151455535Y-94028333D01*
X151503154Y-93980714D01*
X151550773Y-93885476D01*
X151550773Y-93837857D01*
X151503154Y-93742619D01*
X151455535Y-93695000D01*
X151360297Y-93647380D01*
X151169821Y-93647380D01*
X151074583Y-93695000D01*
X151026964Y-93742619D01*
X150979345Y-93837857D01*
X150979345Y-93885476D01*
X151026964Y-93980714D01*
X151074583Y-94028333D01*
X151169821Y-94075952D01*
X151360297Y-94075952D01*
X151455535Y-94123571D01*
X151503154Y-94171190D01*
X151550773Y-94266428D01*
X151550773Y-94456904D01*
X151503154Y-94552142D01*
X151455535Y-94599761D01*
X151360297Y-94647380D01*
X151169821Y-94647380D01*
X151074583Y-94599761D01*
X151026964Y-94552142D01*
X150979345Y-94456904D01*
X150979345Y-94266428D01*
X151026964Y-94171190D01*
X151074583Y-94123571D01*
X151169821Y-94075952D01*
X148693154Y-94327380D02*
X148693154Y-93327380D01*
X148121726Y-94327380D02*
X148550297Y-93755952D01*
X148121726Y-93327380D02*
X148693154Y-93898809D01*
X136716130Y-83081964D02*
X135716130Y-83081964D01*
X135716130Y-83320059D01*
X135763750Y-83462916D01*
X135858988Y-83558154D01*
X135954226Y-83605773D01*
X136144702Y-83653392D01*
X136287559Y-83653392D01*
X136478035Y-83605773D01*
X136573273Y-83558154D01*
X136668511Y-83462916D01*
X136716130Y-83320059D01*
X136716130Y-83081964D01*
X135716130Y-83986726D02*
X135716130Y-84605773D01*
X136097083Y-84272440D01*
X136097083Y-84415297D01*
X136144702Y-84510535D01*
X136192321Y-84558154D01*
X136287559Y-84605773D01*
X136525654Y-84605773D01*
X136620892Y-84558154D01*
X136668511Y-84510535D01*
X136716130Y-84415297D01*
X136716130Y-84129583D01*
X136668511Y-84034345D01*
X136620892Y-83986726D01*
X135716130Y-84939107D02*
X135716130Y-85605773D01*
X136716130Y-85177202D01*
X136396130Y-87844345D02*
X135396130Y-87844345D01*
X136396130Y-88415773D02*
X135824702Y-87987202D01*
X135396130Y-88415773D02*
X135967559Y-87844345D01*
X134723035Y-90407380D02*
X134723035Y-89407380D01*
X134484940Y-89407380D01*
X134342083Y-89455000D01*
X134246845Y-89550238D01*
X134199226Y-89645476D01*
X134151607Y-89835952D01*
X134151607Y-89978809D01*
X134199226Y-90169285D01*
X134246845Y-90264523D01*
X134342083Y-90359761D01*
X134484940Y-90407380D01*
X134723035Y-90407380D01*
X133818273Y-89407380D02*
X133199226Y-89407380D01*
X133532559Y-89788333D01*
X133389702Y-89788333D01*
X133294464Y-89835952D01*
X133246845Y-89883571D01*
X133199226Y-89978809D01*
X133199226Y-90216904D01*
X133246845Y-90312142D01*
X133294464Y-90359761D01*
X133389702Y-90407380D01*
X133675416Y-90407380D01*
X133770654Y-90359761D01*
X133818273Y-90312142D01*
X132342083Y-89407380D02*
X132532559Y-89407380D01*
X132627797Y-89455000D01*
X132675416Y-89502619D01*
X132770654Y-89645476D01*
X132818273Y-89835952D01*
X132818273Y-90216904D01*
X132770654Y-90312142D01*
X132723035Y-90359761D01*
X132627797Y-90407380D01*
X132437321Y-90407380D01*
X132342083Y-90359761D01*
X132294464Y-90312142D01*
X132246845Y-90216904D01*
X132246845Y-89978809D01*
X132294464Y-89883571D01*
X132342083Y-89835952D01*
X132437321Y-89788333D01*
X132627797Y-89788333D01*
X132723035Y-89835952D01*
X132770654Y-89883571D01*
X132818273Y-89978809D01*
X137580654Y-90727380D02*
X137580654Y-89727380D01*
X137009226Y-90727380D02*
X137437797Y-90155952D01*
X137009226Y-89727380D02*
X137580654Y-90298809D01*
X115355535Y-94647380D02*
X115355535Y-93647380D01*
X115117440Y-93647380D01*
X114974583Y-93695000D01*
X114879345Y-93790238D01*
X114831726Y-93885476D01*
X114784107Y-94075952D01*
X114784107Y-94218809D01*
X114831726Y-94409285D01*
X114879345Y-94504523D01*
X114974583Y-94599761D01*
X115117440Y-94647380D01*
X115355535Y-94647380D01*
X114450773Y-93647380D02*
X113831726Y-93647380D01*
X114165059Y-94028333D01*
X114022202Y-94028333D01*
X113926964Y-94075952D01*
X113879345Y-94123571D01*
X113831726Y-94218809D01*
X113831726Y-94456904D01*
X113879345Y-94552142D01*
X113926964Y-94599761D01*
X114022202Y-94647380D01*
X114307916Y-94647380D01*
X114403154Y-94599761D01*
X114450773Y-94552142D01*
X112926964Y-93647380D02*
X113403154Y-93647380D01*
X113450773Y-94123571D01*
X113403154Y-94075952D01*
X113307916Y-94028333D01*
X113069821Y-94028333D01*
X112974583Y-94075952D01*
X112926964Y-94123571D01*
X112879345Y-94218809D01*
X112879345Y-94456904D01*
X112926964Y-94552142D01*
X112974583Y-94599761D01*
X113069821Y-94647380D01*
X113307916Y-94647380D01*
X113403154Y-94599761D01*
X113450773Y-94552142D01*
X110593154Y-94327380D02*
X110593154Y-93327380D01*
X110021726Y-94327380D02*
X110450297Y-93755952D01*
X110021726Y-93327380D02*
X110593154Y-93898809D01*
X97028630Y-83081964D02*
X96028630Y-83081964D01*
X96028630Y-83320059D01*
X96076250Y-83462916D01*
X96171488Y-83558154D01*
X96266726Y-83605773D01*
X96457202Y-83653392D01*
X96600059Y-83653392D01*
X96790535Y-83605773D01*
X96885773Y-83558154D01*
X96981011Y-83462916D01*
X97028630Y-83320059D01*
X97028630Y-83081964D01*
X96028630Y-83986726D02*
X96028630Y-84605773D01*
X96409583Y-84272440D01*
X96409583Y-84415297D01*
X96457202Y-84510535D01*
X96504821Y-84558154D01*
X96600059Y-84605773D01*
X96838154Y-84605773D01*
X96933392Y-84558154D01*
X96981011Y-84510535D01*
X97028630Y-84415297D01*
X97028630Y-84129583D01*
X96981011Y-84034345D01*
X96933392Y-83986726D01*
X96361964Y-85462916D02*
X97028630Y-85462916D01*
X95981011Y-85224821D02*
X96695297Y-84986726D01*
X96695297Y-85605773D01*
X96708630Y-87844345D02*
X95708630Y-87844345D01*
X96708630Y-88415773D02*
X96137202Y-87987202D01*
X95708630Y-88415773D02*
X96280059Y-87844345D01*
X77255535Y-94647380D02*
X77255535Y-93647380D01*
X77017440Y-93647380D01*
X76874583Y-93695000D01*
X76779345Y-93790238D01*
X76731726Y-93885476D01*
X76684107Y-94075952D01*
X76684107Y-94218809D01*
X76731726Y-94409285D01*
X76779345Y-94504523D01*
X76874583Y-94599761D01*
X77017440Y-94647380D01*
X77255535Y-94647380D01*
X76350773Y-93647380D02*
X75731726Y-93647380D01*
X76065059Y-94028333D01*
X75922202Y-94028333D01*
X75826964Y-94075952D01*
X75779345Y-94123571D01*
X75731726Y-94218809D01*
X75731726Y-94456904D01*
X75779345Y-94552142D01*
X75826964Y-94599761D01*
X75922202Y-94647380D01*
X76207916Y-94647380D01*
X76303154Y-94599761D01*
X76350773Y-94552142D01*
X75398392Y-93647380D02*
X74779345Y-93647380D01*
X75112678Y-94028333D01*
X74969821Y-94028333D01*
X74874583Y-94075952D01*
X74826964Y-94123571D01*
X74779345Y-94218809D01*
X74779345Y-94456904D01*
X74826964Y-94552142D01*
X74874583Y-94599761D01*
X74969821Y-94647380D01*
X75255535Y-94647380D01*
X75350773Y-94599761D01*
X75398392Y-94552142D01*
X72493154Y-94327380D02*
X72493154Y-93327380D01*
X71921726Y-94327380D02*
X72350297Y-93755952D01*
X71921726Y-93327380D02*
X72493154Y-93898809D01*
X48680535Y-94647380D02*
X48680535Y-93647380D01*
X48442440Y-93647380D01*
X48299583Y-93695000D01*
X48204345Y-93790238D01*
X48156726Y-93885476D01*
X48109107Y-94075952D01*
X48109107Y-94218809D01*
X48156726Y-94409285D01*
X48204345Y-94504523D01*
X48299583Y-94599761D01*
X48442440Y-94647380D01*
X48680535Y-94647380D01*
X47775773Y-93647380D02*
X47156726Y-93647380D01*
X47490059Y-94028333D01*
X47347202Y-94028333D01*
X47251964Y-94075952D01*
X47204345Y-94123571D01*
X47156726Y-94218809D01*
X47156726Y-94456904D01*
X47204345Y-94552142D01*
X47251964Y-94599761D01*
X47347202Y-94647380D01*
X47632916Y-94647380D01*
X47728154Y-94599761D01*
X47775773Y-94552142D01*
X46775773Y-93742619D02*
X46728154Y-93695000D01*
X46632916Y-93647380D01*
X46394821Y-93647380D01*
X46299583Y-93695000D01*
X46251964Y-93742619D01*
X46204345Y-93837857D01*
X46204345Y-93933095D01*
X46251964Y-94075952D01*
X46823392Y-94647380D01*
X46204345Y-94647380D01*
X43918154Y-94327380D02*
X43918154Y-93327380D01*
X43346726Y-94327380D02*
X43775297Y-93755952D01*
X43346726Y-93327380D02*
X43918154Y-93898809D01*
X23209880Y-81494464D02*
X22209880Y-81494464D01*
X22209880Y-81732559D01*
X22257500Y-81875416D01*
X22352738Y-81970654D01*
X22447976Y-82018273D01*
X22638452Y-82065892D01*
X22781309Y-82065892D01*
X22971785Y-82018273D01*
X23067023Y-81970654D01*
X23162261Y-81875416D01*
X23209880Y-81732559D01*
X23209880Y-81494464D01*
X22209880Y-82399226D02*
X22209880Y-83018273D01*
X22590833Y-82684940D01*
X22590833Y-82827797D01*
X22638452Y-82923035D01*
X22686071Y-82970654D01*
X22781309Y-83018273D01*
X23019404Y-83018273D01*
X23114642Y-82970654D01*
X23162261Y-82923035D01*
X23209880Y-82827797D01*
X23209880Y-82542083D01*
X23162261Y-82446845D01*
X23114642Y-82399226D01*
X23209880Y-83970654D02*
X23209880Y-83399226D01*
X23209880Y-83684940D02*
X22209880Y-83684940D01*
X22352738Y-83589702D01*
X22447976Y-83494464D01*
X22495595Y-83399226D01*
X22889880Y-86256845D02*
X21889880Y-86256845D01*
X22889880Y-86828273D02*
X22318452Y-86399702D01*
X21889880Y-86828273D02*
X22461309Y-86256845D01*
X210534880Y-64031964D02*
X209534880Y-64031964D01*
X209534880Y-64270059D01*
X209582500Y-64412916D01*
X209677738Y-64508154D01*
X209772976Y-64555773D01*
X209963452Y-64603392D01*
X210106309Y-64603392D01*
X210296785Y-64555773D01*
X210392023Y-64508154D01*
X210487261Y-64412916D01*
X210534880Y-64270059D01*
X210534880Y-64031964D01*
X209534880Y-64936726D02*
X209534880Y-65555773D01*
X209915833Y-65222440D01*
X209915833Y-65365297D01*
X209963452Y-65460535D01*
X210011071Y-65508154D01*
X210106309Y-65555773D01*
X210344404Y-65555773D01*
X210439642Y-65508154D01*
X210487261Y-65460535D01*
X210534880Y-65365297D01*
X210534880Y-65079583D01*
X210487261Y-64984345D01*
X210439642Y-64936726D01*
X209534880Y-66174821D02*
X209534880Y-66270059D01*
X209582500Y-66365297D01*
X209630119Y-66412916D01*
X209725357Y-66460535D01*
X209915833Y-66508154D01*
X210153928Y-66508154D01*
X210344404Y-66460535D01*
X210439642Y-66412916D01*
X210487261Y-66365297D01*
X210534880Y-66270059D01*
X210534880Y-66174821D01*
X210487261Y-66079583D01*
X210439642Y-66031964D01*
X210344404Y-65984345D01*
X210153928Y-65936726D01*
X209915833Y-65936726D01*
X209725357Y-65984345D01*
X209630119Y-66031964D01*
X209582500Y-66079583D01*
X209534880Y-66174821D01*
X210214880Y-68794345D02*
X209214880Y-68794345D01*
X210214880Y-69365773D02*
X209643452Y-68937202D01*
X209214880Y-69365773D02*
X209786309Y-68794345D01*
X192278630Y-64031964D02*
X191278630Y-64031964D01*
X191278630Y-64270059D01*
X191326250Y-64412916D01*
X191421488Y-64508154D01*
X191516726Y-64555773D01*
X191707202Y-64603392D01*
X191850059Y-64603392D01*
X192040535Y-64555773D01*
X192135773Y-64508154D01*
X192231011Y-64412916D01*
X192278630Y-64270059D01*
X192278630Y-64031964D01*
X191373869Y-64984345D02*
X191326250Y-65031964D01*
X191278630Y-65127202D01*
X191278630Y-65365297D01*
X191326250Y-65460535D01*
X191373869Y-65508154D01*
X191469107Y-65555773D01*
X191564345Y-65555773D01*
X191707202Y-65508154D01*
X192278630Y-64936726D01*
X192278630Y-65555773D01*
X192278630Y-66031964D02*
X192278630Y-66222440D01*
X192231011Y-66317678D01*
X192183392Y-66365297D01*
X192040535Y-66460535D01*
X191850059Y-66508154D01*
X191469107Y-66508154D01*
X191373869Y-66460535D01*
X191326250Y-66412916D01*
X191278630Y-66317678D01*
X191278630Y-66127202D01*
X191326250Y-66031964D01*
X191373869Y-65984345D01*
X191469107Y-65936726D01*
X191707202Y-65936726D01*
X191802440Y-65984345D01*
X191850059Y-66031964D01*
X191897678Y-66127202D01*
X191897678Y-66317678D01*
X191850059Y-66412916D01*
X191802440Y-66460535D01*
X191707202Y-66508154D01*
X191958630Y-68794345D02*
X190958630Y-68794345D01*
X191958630Y-69365773D02*
X191387202Y-68937202D01*
X190958630Y-69365773D02*
X191530059Y-68794345D01*
X173228630Y-64031964D02*
X172228630Y-64031964D01*
X172228630Y-64270059D01*
X172276250Y-64412916D01*
X172371488Y-64508154D01*
X172466726Y-64555773D01*
X172657202Y-64603392D01*
X172800059Y-64603392D01*
X172990535Y-64555773D01*
X173085773Y-64508154D01*
X173181011Y-64412916D01*
X173228630Y-64270059D01*
X173228630Y-64031964D01*
X172323869Y-64984345D02*
X172276250Y-65031964D01*
X172228630Y-65127202D01*
X172228630Y-65365297D01*
X172276250Y-65460535D01*
X172323869Y-65508154D01*
X172419107Y-65555773D01*
X172514345Y-65555773D01*
X172657202Y-65508154D01*
X173228630Y-64936726D01*
X173228630Y-65555773D01*
X172657202Y-66127202D02*
X172609583Y-66031964D01*
X172561964Y-65984345D01*
X172466726Y-65936726D01*
X172419107Y-65936726D01*
X172323869Y-65984345D01*
X172276250Y-66031964D01*
X172228630Y-66127202D01*
X172228630Y-66317678D01*
X172276250Y-66412916D01*
X172323869Y-66460535D01*
X172419107Y-66508154D01*
X172466726Y-66508154D01*
X172561964Y-66460535D01*
X172609583Y-66412916D01*
X172657202Y-66317678D01*
X172657202Y-66127202D01*
X172704821Y-66031964D01*
X172752440Y-65984345D01*
X172847678Y-65936726D01*
X173038154Y-65936726D01*
X173133392Y-65984345D01*
X173181011Y-66031964D01*
X173228630Y-66127202D01*
X173228630Y-66317678D01*
X173181011Y-66412916D01*
X173133392Y-66460535D01*
X173038154Y-66508154D01*
X172847678Y-66508154D01*
X172752440Y-66460535D01*
X172704821Y-66412916D01*
X172657202Y-66317678D01*
X172908630Y-68794345D02*
X171908630Y-68794345D01*
X172908630Y-69365773D02*
X172337202Y-68937202D01*
X171908630Y-69365773D02*
X172480059Y-68794345D01*
X154178630Y-64031964D02*
X153178630Y-64031964D01*
X153178630Y-64270059D01*
X153226250Y-64412916D01*
X153321488Y-64508154D01*
X153416726Y-64555773D01*
X153607202Y-64603392D01*
X153750059Y-64603392D01*
X153940535Y-64555773D01*
X154035773Y-64508154D01*
X154131011Y-64412916D01*
X154178630Y-64270059D01*
X154178630Y-64031964D01*
X153273869Y-64984345D02*
X153226250Y-65031964D01*
X153178630Y-65127202D01*
X153178630Y-65365297D01*
X153226250Y-65460535D01*
X153273869Y-65508154D01*
X153369107Y-65555773D01*
X153464345Y-65555773D01*
X153607202Y-65508154D01*
X154178630Y-64936726D01*
X154178630Y-65555773D01*
X153178630Y-65889107D02*
X153178630Y-66555773D01*
X154178630Y-66127202D01*
X153858630Y-68794345D02*
X152858630Y-68794345D01*
X153858630Y-69365773D02*
X153287202Y-68937202D01*
X152858630Y-69365773D02*
X153430059Y-68794345D01*
X135128630Y-64031964D02*
X134128630Y-64031964D01*
X134128630Y-64270059D01*
X134176250Y-64412916D01*
X134271488Y-64508154D01*
X134366726Y-64555773D01*
X134557202Y-64603392D01*
X134700059Y-64603392D01*
X134890535Y-64555773D01*
X134985773Y-64508154D01*
X135081011Y-64412916D01*
X135128630Y-64270059D01*
X135128630Y-64031964D01*
X134223869Y-64984345D02*
X134176250Y-65031964D01*
X134128630Y-65127202D01*
X134128630Y-65365297D01*
X134176250Y-65460535D01*
X134223869Y-65508154D01*
X134319107Y-65555773D01*
X134414345Y-65555773D01*
X134557202Y-65508154D01*
X135128630Y-64936726D01*
X135128630Y-65555773D01*
X134128630Y-66412916D02*
X134128630Y-66222440D01*
X134176250Y-66127202D01*
X134223869Y-66079583D01*
X134366726Y-65984345D01*
X134557202Y-65936726D01*
X134938154Y-65936726D01*
X135033392Y-65984345D01*
X135081011Y-66031964D01*
X135128630Y-66127202D01*
X135128630Y-66317678D01*
X135081011Y-66412916D01*
X135033392Y-66460535D01*
X134938154Y-66508154D01*
X134700059Y-66508154D01*
X134604821Y-66460535D01*
X134557202Y-66412916D01*
X134509583Y-66317678D01*
X134509583Y-66127202D01*
X134557202Y-66031964D01*
X134604821Y-65984345D01*
X134700059Y-65936726D01*
X134808630Y-68794345D02*
X133808630Y-68794345D01*
X134808630Y-69365773D02*
X134237202Y-68937202D01*
X133808630Y-69365773D02*
X134380059Y-68794345D01*
X116078630Y-64031964D02*
X115078630Y-64031964D01*
X115078630Y-64270059D01*
X115126250Y-64412916D01*
X115221488Y-64508154D01*
X115316726Y-64555773D01*
X115507202Y-64603392D01*
X115650059Y-64603392D01*
X115840535Y-64555773D01*
X115935773Y-64508154D01*
X116031011Y-64412916D01*
X116078630Y-64270059D01*
X116078630Y-64031964D01*
X115173869Y-64984345D02*
X115126250Y-65031964D01*
X115078630Y-65127202D01*
X115078630Y-65365297D01*
X115126250Y-65460535D01*
X115173869Y-65508154D01*
X115269107Y-65555773D01*
X115364345Y-65555773D01*
X115507202Y-65508154D01*
X116078630Y-64936726D01*
X116078630Y-65555773D01*
X115078630Y-66460535D02*
X115078630Y-65984345D01*
X115554821Y-65936726D01*
X115507202Y-65984345D01*
X115459583Y-66079583D01*
X115459583Y-66317678D01*
X115507202Y-66412916D01*
X115554821Y-66460535D01*
X115650059Y-66508154D01*
X115888154Y-66508154D01*
X115983392Y-66460535D01*
X116031011Y-66412916D01*
X116078630Y-66317678D01*
X116078630Y-66079583D01*
X116031011Y-65984345D01*
X115983392Y-65936726D01*
X115758630Y-68794345D02*
X114758630Y-68794345D01*
X115758630Y-69365773D02*
X115187202Y-68937202D01*
X114758630Y-69365773D02*
X115330059Y-68794345D01*
X97028630Y-64031964D02*
X96028630Y-64031964D01*
X96028630Y-64270059D01*
X96076250Y-64412916D01*
X96171488Y-64508154D01*
X96266726Y-64555773D01*
X96457202Y-64603392D01*
X96600059Y-64603392D01*
X96790535Y-64555773D01*
X96885773Y-64508154D01*
X96981011Y-64412916D01*
X97028630Y-64270059D01*
X97028630Y-64031964D01*
X96123869Y-64984345D02*
X96076250Y-65031964D01*
X96028630Y-65127202D01*
X96028630Y-65365297D01*
X96076250Y-65460535D01*
X96123869Y-65508154D01*
X96219107Y-65555773D01*
X96314345Y-65555773D01*
X96457202Y-65508154D01*
X97028630Y-64936726D01*
X97028630Y-65555773D01*
X96361964Y-66412916D02*
X97028630Y-66412916D01*
X95981011Y-66174821D02*
X96695297Y-65936726D01*
X96695297Y-66555773D01*
X96708630Y-68794345D02*
X95708630Y-68794345D01*
X96708630Y-69365773D02*
X96137202Y-68937202D01*
X95708630Y-69365773D02*
X96280059Y-68794345D01*
X77978630Y-64031964D02*
X76978630Y-64031964D01*
X76978630Y-64270059D01*
X77026250Y-64412916D01*
X77121488Y-64508154D01*
X77216726Y-64555773D01*
X77407202Y-64603392D01*
X77550059Y-64603392D01*
X77740535Y-64555773D01*
X77835773Y-64508154D01*
X77931011Y-64412916D01*
X77978630Y-64270059D01*
X77978630Y-64031964D01*
X77073869Y-64984345D02*
X77026250Y-65031964D01*
X76978630Y-65127202D01*
X76978630Y-65365297D01*
X77026250Y-65460535D01*
X77073869Y-65508154D01*
X77169107Y-65555773D01*
X77264345Y-65555773D01*
X77407202Y-65508154D01*
X77978630Y-64936726D01*
X77978630Y-65555773D01*
X76978630Y-65889107D02*
X76978630Y-66508154D01*
X77359583Y-66174821D01*
X77359583Y-66317678D01*
X77407202Y-66412916D01*
X77454821Y-66460535D01*
X77550059Y-66508154D01*
X77788154Y-66508154D01*
X77883392Y-66460535D01*
X77931011Y-66412916D01*
X77978630Y-66317678D01*
X77978630Y-66031964D01*
X77931011Y-65936726D01*
X77883392Y-65889107D01*
X77658630Y-68794345D02*
X76658630Y-68794345D01*
X77658630Y-69365773D02*
X77087202Y-68937202D01*
X76658630Y-69365773D02*
X77230059Y-68794345D01*
X58928630Y-64031964D02*
X57928630Y-64031964D01*
X57928630Y-64270059D01*
X57976250Y-64412916D01*
X58071488Y-64508154D01*
X58166726Y-64555773D01*
X58357202Y-64603392D01*
X58500059Y-64603392D01*
X58690535Y-64555773D01*
X58785773Y-64508154D01*
X58881011Y-64412916D01*
X58928630Y-64270059D01*
X58928630Y-64031964D01*
X58023869Y-64984345D02*
X57976250Y-65031964D01*
X57928630Y-65127202D01*
X57928630Y-65365297D01*
X57976250Y-65460535D01*
X58023869Y-65508154D01*
X58119107Y-65555773D01*
X58214345Y-65555773D01*
X58357202Y-65508154D01*
X58928630Y-64936726D01*
X58928630Y-65555773D01*
X58023869Y-65936726D02*
X57976250Y-65984345D01*
X57928630Y-66079583D01*
X57928630Y-66317678D01*
X57976250Y-66412916D01*
X58023869Y-66460535D01*
X58119107Y-66508154D01*
X58214345Y-66508154D01*
X58357202Y-66460535D01*
X58928630Y-65889107D01*
X58928630Y-66508154D01*
X58608630Y-68794345D02*
X57608630Y-68794345D01*
X58608630Y-69365773D02*
X58037202Y-68937202D01*
X57608630Y-69365773D02*
X58180059Y-68794345D01*
X39878630Y-64031964D02*
X38878630Y-64031964D01*
X38878630Y-64270059D01*
X38926250Y-64412916D01*
X39021488Y-64508154D01*
X39116726Y-64555773D01*
X39307202Y-64603392D01*
X39450059Y-64603392D01*
X39640535Y-64555773D01*
X39735773Y-64508154D01*
X39831011Y-64412916D01*
X39878630Y-64270059D01*
X39878630Y-64031964D01*
X38973869Y-64984345D02*
X38926250Y-65031964D01*
X38878630Y-65127202D01*
X38878630Y-65365297D01*
X38926250Y-65460535D01*
X38973869Y-65508154D01*
X39069107Y-65555773D01*
X39164345Y-65555773D01*
X39307202Y-65508154D01*
X39878630Y-64936726D01*
X39878630Y-65555773D01*
X39878630Y-66508154D02*
X39878630Y-65936726D01*
X39878630Y-66222440D02*
X38878630Y-66222440D01*
X39021488Y-66127202D01*
X39116726Y-66031964D01*
X39164345Y-65936726D01*
X39558630Y-68794345D02*
X38558630Y-68794345D01*
X39558630Y-69365773D02*
X38987202Y-68937202D01*
X38558630Y-69365773D02*
X39130059Y-68794345D01*
X210534880Y-44981964D02*
X209534880Y-44981964D01*
X209534880Y-45220059D01*
X209582500Y-45362916D01*
X209677738Y-45458154D01*
X209772976Y-45505773D01*
X209963452Y-45553392D01*
X210106309Y-45553392D01*
X210296785Y-45505773D01*
X210392023Y-45458154D01*
X210487261Y-45362916D01*
X210534880Y-45220059D01*
X210534880Y-44981964D01*
X209630119Y-45934345D02*
X209582500Y-45981964D01*
X209534880Y-46077202D01*
X209534880Y-46315297D01*
X209582500Y-46410535D01*
X209630119Y-46458154D01*
X209725357Y-46505773D01*
X209820595Y-46505773D01*
X209963452Y-46458154D01*
X210534880Y-45886726D01*
X210534880Y-46505773D01*
X209534880Y-47124821D02*
X209534880Y-47220059D01*
X209582500Y-47315297D01*
X209630119Y-47362916D01*
X209725357Y-47410535D01*
X209915833Y-47458154D01*
X210153928Y-47458154D01*
X210344404Y-47410535D01*
X210439642Y-47362916D01*
X210487261Y-47315297D01*
X210534880Y-47220059D01*
X210534880Y-47124821D01*
X210487261Y-47029583D01*
X210439642Y-46981964D01*
X210344404Y-46934345D01*
X210153928Y-46886726D01*
X209915833Y-46886726D01*
X209725357Y-46934345D01*
X209630119Y-46981964D01*
X209582500Y-47029583D01*
X209534880Y-47124821D01*
X210214880Y-49744345D02*
X209214880Y-49744345D01*
X210214880Y-50315773D02*
X209643452Y-49887202D01*
X209214880Y-50315773D02*
X209786309Y-49744345D01*
X192278630Y-44981964D02*
X191278630Y-44981964D01*
X191278630Y-45220059D01*
X191326250Y-45362916D01*
X191421488Y-45458154D01*
X191516726Y-45505773D01*
X191707202Y-45553392D01*
X191850059Y-45553392D01*
X192040535Y-45505773D01*
X192135773Y-45458154D01*
X192231011Y-45362916D01*
X192278630Y-45220059D01*
X192278630Y-44981964D01*
X192278630Y-46505773D02*
X192278630Y-45934345D01*
X192278630Y-46220059D02*
X191278630Y-46220059D01*
X191421488Y-46124821D01*
X191516726Y-46029583D01*
X191564345Y-45934345D01*
X192278630Y-46981964D02*
X192278630Y-47172440D01*
X192231011Y-47267678D01*
X192183392Y-47315297D01*
X192040535Y-47410535D01*
X191850059Y-47458154D01*
X191469107Y-47458154D01*
X191373869Y-47410535D01*
X191326250Y-47362916D01*
X191278630Y-47267678D01*
X191278630Y-47077202D01*
X191326250Y-46981964D01*
X191373869Y-46934345D01*
X191469107Y-46886726D01*
X191707202Y-46886726D01*
X191802440Y-46934345D01*
X191850059Y-46981964D01*
X191897678Y-47077202D01*
X191897678Y-47267678D01*
X191850059Y-47362916D01*
X191802440Y-47410535D01*
X191707202Y-47458154D01*
X191958630Y-49744345D02*
X190958630Y-49744345D01*
X191958630Y-50315773D02*
X191387202Y-49887202D01*
X190958630Y-50315773D02*
X191530059Y-49744345D01*
X173228630Y-44981964D02*
X172228630Y-44981964D01*
X172228630Y-45220059D01*
X172276250Y-45362916D01*
X172371488Y-45458154D01*
X172466726Y-45505773D01*
X172657202Y-45553392D01*
X172800059Y-45553392D01*
X172990535Y-45505773D01*
X173085773Y-45458154D01*
X173181011Y-45362916D01*
X173228630Y-45220059D01*
X173228630Y-44981964D01*
X173228630Y-46505773D02*
X173228630Y-45934345D01*
X173228630Y-46220059D02*
X172228630Y-46220059D01*
X172371488Y-46124821D01*
X172466726Y-46029583D01*
X172514345Y-45934345D01*
X172657202Y-47077202D02*
X172609583Y-46981964D01*
X172561964Y-46934345D01*
X172466726Y-46886726D01*
X172419107Y-46886726D01*
X172323869Y-46934345D01*
X172276250Y-46981964D01*
X172228630Y-47077202D01*
X172228630Y-47267678D01*
X172276250Y-47362916D01*
X172323869Y-47410535D01*
X172419107Y-47458154D01*
X172466726Y-47458154D01*
X172561964Y-47410535D01*
X172609583Y-47362916D01*
X172657202Y-47267678D01*
X172657202Y-47077202D01*
X172704821Y-46981964D01*
X172752440Y-46934345D01*
X172847678Y-46886726D01*
X173038154Y-46886726D01*
X173133392Y-46934345D01*
X173181011Y-46981964D01*
X173228630Y-47077202D01*
X173228630Y-47267678D01*
X173181011Y-47362916D01*
X173133392Y-47410535D01*
X173038154Y-47458154D01*
X172847678Y-47458154D01*
X172752440Y-47410535D01*
X172704821Y-47362916D01*
X172657202Y-47267678D01*
X172908630Y-49744345D02*
X171908630Y-49744345D01*
X172908630Y-50315773D02*
X172337202Y-49887202D01*
X171908630Y-50315773D02*
X172480059Y-49744345D01*
X154178630Y-44981964D02*
X153178630Y-44981964D01*
X153178630Y-45220059D01*
X153226250Y-45362916D01*
X153321488Y-45458154D01*
X153416726Y-45505773D01*
X153607202Y-45553392D01*
X153750059Y-45553392D01*
X153940535Y-45505773D01*
X154035773Y-45458154D01*
X154131011Y-45362916D01*
X154178630Y-45220059D01*
X154178630Y-44981964D01*
X154178630Y-46505773D02*
X154178630Y-45934345D01*
X154178630Y-46220059D02*
X153178630Y-46220059D01*
X153321488Y-46124821D01*
X153416726Y-46029583D01*
X153464345Y-45934345D01*
X153178630Y-46839107D02*
X153178630Y-47505773D01*
X154178630Y-47077202D01*
X153858630Y-49744345D02*
X152858630Y-49744345D01*
X153858630Y-50315773D02*
X153287202Y-49887202D01*
X152858630Y-50315773D02*
X153430059Y-49744345D01*
X135128630Y-44981964D02*
X134128630Y-44981964D01*
X134128630Y-45220059D01*
X134176250Y-45362916D01*
X134271488Y-45458154D01*
X134366726Y-45505773D01*
X134557202Y-45553392D01*
X134700059Y-45553392D01*
X134890535Y-45505773D01*
X134985773Y-45458154D01*
X135081011Y-45362916D01*
X135128630Y-45220059D01*
X135128630Y-44981964D01*
X135128630Y-46505773D02*
X135128630Y-45934345D01*
X135128630Y-46220059D02*
X134128630Y-46220059D01*
X134271488Y-46124821D01*
X134366726Y-46029583D01*
X134414345Y-45934345D01*
X134128630Y-47362916D02*
X134128630Y-47172440D01*
X134176250Y-47077202D01*
X134223869Y-47029583D01*
X134366726Y-46934345D01*
X134557202Y-46886726D01*
X134938154Y-46886726D01*
X135033392Y-46934345D01*
X135081011Y-46981964D01*
X135128630Y-47077202D01*
X135128630Y-47267678D01*
X135081011Y-47362916D01*
X135033392Y-47410535D01*
X134938154Y-47458154D01*
X134700059Y-47458154D01*
X134604821Y-47410535D01*
X134557202Y-47362916D01*
X134509583Y-47267678D01*
X134509583Y-47077202D01*
X134557202Y-46981964D01*
X134604821Y-46934345D01*
X134700059Y-46886726D01*
X134808630Y-49744345D02*
X133808630Y-49744345D01*
X134808630Y-50315773D02*
X134237202Y-49887202D01*
X133808630Y-50315773D02*
X134380059Y-49744345D01*
X116078630Y-44981964D02*
X115078630Y-44981964D01*
X115078630Y-45220059D01*
X115126250Y-45362916D01*
X115221488Y-45458154D01*
X115316726Y-45505773D01*
X115507202Y-45553392D01*
X115650059Y-45553392D01*
X115840535Y-45505773D01*
X115935773Y-45458154D01*
X116031011Y-45362916D01*
X116078630Y-45220059D01*
X116078630Y-44981964D01*
X116078630Y-46505773D02*
X116078630Y-45934345D01*
X116078630Y-46220059D02*
X115078630Y-46220059D01*
X115221488Y-46124821D01*
X115316726Y-46029583D01*
X115364345Y-45934345D01*
X115078630Y-47410535D02*
X115078630Y-46934345D01*
X115554821Y-46886726D01*
X115507202Y-46934345D01*
X115459583Y-47029583D01*
X115459583Y-47267678D01*
X115507202Y-47362916D01*
X115554821Y-47410535D01*
X115650059Y-47458154D01*
X115888154Y-47458154D01*
X115983392Y-47410535D01*
X116031011Y-47362916D01*
X116078630Y-47267678D01*
X116078630Y-47029583D01*
X116031011Y-46934345D01*
X115983392Y-46886726D01*
X115758630Y-49744345D02*
X114758630Y-49744345D01*
X115758630Y-50315773D02*
X115187202Y-49887202D01*
X114758630Y-50315773D02*
X115330059Y-49744345D01*
X97028630Y-44981964D02*
X96028630Y-44981964D01*
X96028630Y-45220059D01*
X96076250Y-45362916D01*
X96171488Y-45458154D01*
X96266726Y-45505773D01*
X96457202Y-45553392D01*
X96600059Y-45553392D01*
X96790535Y-45505773D01*
X96885773Y-45458154D01*
X96981011Y-45362916D01*
X97028630Y-45220059D01*
X97028630Y-44981964D01*
X97028630Y-46505773D02*
X97028630Y-45934345D01*
X97028630Y-46220059D02*
X96028630Y-46220059D01*
X96171488Y-46124821D01*
X96266726Y-46029583D01*
X96314345Y-45934345D01*
X96361964Y-47362916D02*
X97028630Y-47362916D01*
X95981011Y-47124821D02*
X96695297Y-46886726D01*
X96695297Y-47505773D01*
X96708630Y-49744345D02*
X95708630Y-49744345D01*
X96708630Y-50315773D02*
X96137202Y-49887202D01*
X95708630Y-50315773D02*
X96280059Y-49744345D01*
X80359880Y-44981964D02*
X79359880Y-44981964D01*
X79359880Y-45220059D01*
X79407500Y-45362916D01*
X79502738Y-45458154D01*
X79597976Y-45505773D01*
X79788452Y-45553392D01*
X79931309Y-45553392D01*
X80121785Y-45505773D01*
X80217023Y-45458154D01*
X80312261Y-45362916D01*
X80359880Y-45220059D01*
X80359880Y-44981964D01*
X80359880Y-46505773D02*
X80359880Y-45934345D01*
X80359880Y-46220059D02*
X79359880Y-46220059D01*
X79502738Y-46124821D01*
X79597976Y-46029583D01*
X79645595Y-45934345D01*
X79359880Y-46839107D02*
X79359880Y-47458154D01*
X79740833Y-47124821D01*
X79740833Y-47267678D01*
X79788452Y-47362916D01*
X79836071Y-47410535D01*
X79931309Y-47458154D01*
X80169404Y-47458154D01*
X80264642Y-47410535D01*
X80312261Y-47362916D01*
X80359880Y-47267678D01*
X80359880Y-46981964D01*
X80312261Y-46886726D01*
X80264642Y-46839107D01*
X80039880Y-49744345D02*
X79039880Y-49744345D01*
X80039880Y-50315773D02*
X79468452Y-49887202D01*
X79039880Y-50315773D02*
X79611309Y-49744345D01*
X77184880Y-44981964D02*
X76184880Y-44981964D01*
X76184880Y-45220059D01*
X76232500Y-45362916D01*
X76327738Y-45458154D01*
X76422976Y-45505773D01*
X76613452Y-45553392D01*
X76756309Y-45553392D01*
X76946785Y-45505773D01*
X77042023Y-45458154D01*
X77137261Y-45362916D01*
X77184880Y-45220059D01*
X77184880Y-44981964D01*
X77184880Y-46505773D02*
X77184880Y-45934345D01*
X77184880Y-46220059D02*
X76184880Y-46220059D01*
X76327738Y-46124821D01*
X76422976Y-46029583D01*
X76470595Y-45934345D01*
X76280119Y-46886726D02*
X76232500Y-46934345D01*
X76184880Y-47029583D01*
X76184880Y-47267678D01*
X76232500Y-47362916D01*
X76280119Y-47410535D01*
X76375357Y-47458154D01*
X76470595Y-47458154D01*
X76613452Y-47410535D01*
X77184880Y-46839107D01*
X77184880Y-47458154D01*
X76864880Y-49744345D02*
X75864880Y-49744345D01*
X76864880Y-50315773D02*
X76293452Y-49887202D01*
X75864880Y-50315773D02*
X76436309Y-49744345D01*
X23209880Y-44981964D02*
X22209880Y-44981964D01*
X22209880Y-45220059D01*
X22257500Y-45362916D01*
X22352738Y-45458154D01*
X22447976Y-45505773D01*
X22638452Y-45553392D01*
X22781309Y-45553392D01*
X22971785Y-45505773D01*
X23067023Y-45458154D01*
X23162261Y-45362916D01*
X23209880Y-45220059D01*
X23209880Y-44981964D01*
X23209880Y-46505773D02*
X23209880Y-45934345D01*
X23209880Y-46220059D02*
X22209880Y-46220059D01*
X22352738Y-46124821D01*
X22447976Y-46029583D01*
X22495595Y-45934345D01*
X23209880Y-47458154D02*
X23209880Y-46886726D01*
X23209880Y-47172440D02*
X22209880Y-47172440D01*
X22352738Y-47077202D01*
X22447976Y-46981964D01*
X22495595Y-46886726D01*
X22889880Y-49744345D02*
X21889880Y-49744345D01*
X22889880Y-50315773D02*
X22318452Y-49887202D01*
X21889880Y-50315773D02*
X22461309Y-49744345D01*
X210534880Y-26725714D02*
X209534880Y-26725714D01*
X209534880Y-26963809D01*
X209582500Y-27106666D01*
X209677738Y-27201904D01*
X209772976Y-27249523D01*
X209963452Y-27297142D01*
X210106309Y-27297142D01*
X210296785Y-27249523D01*
X210392023Y-27201904D01*
X210487261Y-27106666D01*
X210534880Y-26963809D01*
X210534880Y-26725714D01*
X210534880Y-28249523D02*
X210534880Y-27678095D01*
X210534880Y-27963809D02*
X209534880Y-27963809D01*
X209677738Y-27868571D01*
X209772976Y-27773333D01*
X209820595Y-27678095D01*
X209534880Y-28868571D02*
X209534880Y-28963809D01*
X209582500Y-29059047D01*
X209630119Y-29106666D01*
X209725357Y-29154285D01*
X209915833Y-29201904D01*
X210153928Y-29201904D01*
X210344404Y-29154285D01*
X210439642Y-29106666D01*
X210487261Y-29059047D01*
X210534880Y-28963809D01*
X210534880Y-28868571D01*
X210487261Y-28773333D01*
X210439642Y-28725714D01*
X210344404Y-28678095D01*
X210153928Y-28630476D01*
X209915833Y-28630476D01*
X209725357Y-28678095D01*
X209630119Y-28725714D01*
X209582500Y-28773333D01*
X209534880Y-28868571D01*
X210214880Y-31488095D02*
X209214880Y-31488095D01*
X210214880Y-32059523D02*
X209643452Y-31630952D01*
X209214880Y-32059523D02*
X209786309Y-31488095D01*
X192278630Y-26408154D02*
X191278630Y-26408154D01*
X191278630Y-26646250D01*
X191326250Y-26789107D01*
X191421488Y-26884345D01*
X191516726Y-26931964D01*
X191707202Y-26979583D01*
X191850059Y-26979583D01*
X192040535Y-26931964D01*
X192135773Y-26884345D01*
X192231011Y-26789107D01*
X192278630Y-26646250D01*
X192278630Y-26408154D01*
X192278630Y-27455773D02*
X192278630Y-27646250D01*
X192231011Y-27741488D01*
X192183392Y-27789107D01*
X192040535Y-27884345D01*
X191850059Y-27931964D01*
X191469107Y-27931964D01*
X191373869Y-27884345D01*
X191326250Y-27836726D01*
X191278630Y-27741488D01*
X191278630Y-27551011D01*
X191326250Y-27455773D01*
X191373869Y-27408154D01*
X191469107Y-27360535D01*
X191707202Y-27360535D01*
X191802440Y-27408154D01*
X191850059Y-27455773D01*
X191897678Y-27551011D01*
X191897678Y-27741488D01*
X191850059Y-27836726D01*
X191802440Y-27884345D01*
X191707202Y-27931964D01*
X191958630Y-30694345D02*
X190958630Y-30694345D01*
X191958630Y-31265773D02*
X191387202Y-30837202D01*
X190958630Y-31265773D02*
X191530059Y-30694345D01*
X173228630Y-26408154D02*
X172228630Y-26408154D01*
X172228630Y-26646250D01*
X172276250Y-26789107D01*
X172371488Y-26884345D01*
X172466726Y-26931964D01*
X172657202Y-26979583D01*
X172800059Y-26979583D01*
X172990535Y-26931964D01*
X173085773Y-26884345D01*
X173181011Y-26789107D01*
X173228630Y-26646250D01*
X173228630Y-26408154D01*
X172657202Y-27551011D02*
X172609583Y-27455773D01*
X172561964Y-27408154D01*
X172466726Y-27360535D01*
X172419107Y-27360535D01*
X172323869Y-27408154D01*
X172276250Y-27455773D01*
X172228630Y-27551011D01*
X172228630Y-27741488D01*
X172276250Y-27836726D01*
X172323869Y-27884345D01*
X172419107Y-27931964D01*
X172466726Y-27931964D01*
X172561964Y-27884345D01*
X172609583Y-27836726D01*
X172657202Y-27741488D01*
X172657202Y-27551011D01*
X172704821Y-27455773D01*
X172752440Y-27408154D01*
X172847678Y-27360535D01*
X173038154Y-27360535D01*
X173133392Y-27408154D01*
X173181011Y-27455773D01*
X173228630Y-27551011D01*
X173228630Y-27741488D01*
X173181011Y-27836726D01*
X173133392Y-27884345D01*
X173038154Y-27931964D01*
X172847678Y-27931964D01*
X172752440Y-27884345D01*
X172704821Y-27836726D01*
X172657202Y-27741488D01*
X172908630Y-30694345D02*
X171908630Y-30694345D01*
X172908630Y-31265773D02*
X172337202Y-30837202D01*
X171908630Y-31265773D02*
X172480059Y-30694345D01*
X154178630Y-26408154D02*
X153178630Y-26408154D01*
X153178630Y-26646250D01*
X153226250Y-26789107D01*
X153321488Y-26884345D01*
X153416726Y-26931964D01*
X153607202Y-26979583D01*
X153750059Y-26979583D01*
X153940535Y-26931964D01*
X154035773Y-26884345D01*
X154131011Y-26789107D01*
X154178630Y-26646250D01*
X154178630Y-26408154D01*
X153178630Y-27312916D02*
X153178630Y-27979583D01*
X154178630Y-27551011D01*
X153858630Y-30694345D02*
X152858630Y-30694345D01*
X153858630Y-31265773D02*
X153287202Y-30837202D01*
X152858630Y-31265773D02*
X153430059Y-30694345D01*
X135128630Y-26408154D02*
X134128630Y-26408154D01*
X134128630Y-26646250D01*
X134176250Y-26789107D01*
X134271488Y-26884345D01*
X134366726Y-26931964D01*
X134557202Y-26979583D01*
X134700059Y-26979583D01*
X134890535Y-26931964D01*
X134985773Y-26884345D01*
X135081011Y-26789107D01*
X135128630Y-26646250D01*
X135128630Y-26408154D01*
X134128630Y-27836726D02*
X134128630Y-27646250D01*
X134176250Y-27551011D01*
X134223869Y-27503392D01*
X134366726Y-27408154D01*
X134557202Y-27360535D01*
X134938154Y-27360535D01*
X135033392Y-27408154D01*
X135081011Y-27455773D01*
X135128630Y-27551011D01*
X135128630Y-27741488D01*
X135081011Y-27836726D01*
X135033392Y-27884345D01*
X134938154Y-27931964D01*
X134700059Y-27931964D01*
X134604821Y-27884345D01*
X134557202Y-27836726D01*
X134509583Y-27741488D01*
X134509583Y-27551011D01*
X134557202Y-27455773D01*
X134604821Y-27408154D01*
X134700059Y-27360535D01*
X134808630Y-30694345D02*
X133808630Y-30694345D01*
X134808630Y-31265773D02*
X134237202Y-30837202D01*
X133808630Y-31265773D02*
X134380059Y-30694345D01*
X116078630Y-26408154D02*
X115078630Y-26408154D01*
X115078630Y-26646250D01*
X115126250Y-26789107D01*
X115221488Y-26884345D01*
X115316726Y-26931964D01*
X115507202Y-26979583D01*
X115650059Y-26979583D01*
X115840535Y-26931964D01*
X115935773Y-26884345D01*
X116031011Y-26789107D01*
X116078630Y-26646250D01*
X116078630Y-26408154D01*
X115078630Y-27884345D02*
X115078630Y-27408154D01*
X115554821Y-27360535D01*
X115507202Y-27408154D01*
X115459583Y-27503392D01*
X115459583Y-27741488D01*
X115507202Y-27836726D01*
X115554821Y-27884345D01*
X115650059Y-27931964D01*
X115888154Y-27931964D01*
X115983392Y-27884345D01*
X116031011Y-27836726D01*
X116078630Y-27741488D01*
X116078630Y-27503392D01*
X116031011Y-27408154D01*
X115983392Y-27360535D01*
X115758630Y-30694345D02*
X114758630Y-30694345D01*
X115758630Y-31265773D02*
X115187202Y-30837202D01*
X114758630Y-31265773D02*
X115330059Y-30694345D01*
X97028630Y-26408154D02*
X96028630Y-26408154D01*
X96028630Y-26646250D01*
X96076250Y-26789107D01*
X96171488Y-26884345D01*
X96266726Y-26931964D01*
X96457202Y-26979583D01*
X96600059Y-26979583D01*
X96790535Y-26931964D01*
X96885773Y-26884345D01*
X96981011Y-26789107D01*
X97028630Y-26646250D01*
X97028630Y-26408154D01*
X96361964Y-27836726D02*
X97028630Y-27836726D01*
X95981011Y-27598630D02*
X96695297Y-27360535D01*
X96695297Y-27979583D01*
X96708630Y-30694345D02*
X95708630Y-30694345D01*
X96708630Y-31265773D02*
X96137202Y-30837202D01*
X95708630Y-31265773D02*
X96280059Y-30694345D01*
X80359880Y-26408154D02*
X79359880Y-26408154D01*
X79359880Y-26646250D01*
X79407500Y-26789107D01*
X79502738Y-26884345D01*
X79597976Y-26931964D01*
X79788452Y-26979583D01*
X79931309Y-26979583D01*
X80121785Y-26931964D01*
X80217023Y-26884345D01*
X80312261Y-26789107D01*
X80359880Y-26646250D01*
X80359880Y-26408154D01*
X79359880Y-27312916D02*
X79359880Y-27931964D01*
X79740833Y-27598630D01*
X79740833Y-27741488D01*
X79788452Y-27836726D01*
X79836071Y-27884345D01*
X79931309Y-27931964D01*
X80169404Y-27931964D01*
X80264642Y-27884345D01*
X80312261Y-27836726D01*
X80359880Y-27741488D01*
X80359880Y-27455773D01*
X80312261Y-27360535D01*
X80264642Y-27312916D01*
X80039880Y-30694345D02*
X79039880Y-30694345D01*
X80039880Y-31265773D02*
X79468452Y-30837202D01*
X79039880Y-31265773D02*
X79611309Y-30694345D01*
X77184880Y-26408154D02*
X76184880Y-26408154D01*
X76184880Y-26646250D01*
X76232500Y-26789107D01*
X76327738Y-26884345D01*
X76422976Y-26931964D01*
X76613452Y-26979583D01*
X76756309Y-26979583D01*
X76946785Y-26931964D01*
X77042023Y-26884345D01*
X77137261Y-26789107D01*
X77184880Y-26646250D01*
X77184880Y-26408154D01*
X76280119Y-27360535D02*
X76232500Y-27408154D01*
X76184880Y-27503392D01*
X76184880Y-27741488D01*
X76232500Y-27836726D01*
X76280119Y-27884345D01*
X76375357Y-27931964D01*
X76470595Y-27931964D01*
X76613452Y-27884345D01*
X77184880Y-27312916D01*
X77184880Y-27931964D01*
X76864880Y-30694345D02*
X75864880Y-30694345D01*
X76864880Y-31265773D02*
X76293452Y-30837202D01*
X75864880Y-31265773D02*
X76436309Y-30694345D01*
X23209880Y-27201904D02*
X22209880Y-27201904D01*
X22209880Y-27440000D01*
X22257500Y-27582857D01*
X22352738Y-27678095D01*
X22447976Y-27725714D01*
X22638452Y-27773333D01*
X22781309Y-27773333D01*
X22971785Y-27725714D01*
X23067023Y-27678095D01*
X23162261Y-27582857D01*
X23209880Y-27440000D01*
X23209880Y-27201904D01*
X23209880Y-28725714D02*
X23209880Y-28154285D01*
X23209880Y-28440000D02*
X22209880Y-28440000D01*
X22352738Y-28344761D01*
X22447976Y-28249523D01*
X22495595Y-28154285D01*
X22889880Y-31488095D02*
X21889880Y-31488095D01*
X22889880Y-32059523D02*
X22318452Y-31630952D01*
X21889880Y-32059523D02*
X22461309Y-31488095D01*
X53198333Y-27926309D02*
X53084047Y-27964404D01*
X52893571Y-27964404D01*
X52817380Y-27926309D01*
X52779285Y-27888214D01*
X52741190Y-27812023D01*
X52741190Y-27735833D01*
X52779285Y-27659642D01*
X52817380Y-27621547D01*
X52893571Y-27583452D01*
X53045952Y-27545357D01*
X53122142Y-27507261D01*
X53160238Y-27469166D01*
X53198333Y-27392976D01*
X53198333Y-27316785D01*
X53160238Y-27240595D01*
X53122142Y-27202500D01*
X53045952Y-27164404D01*
X52855476Y-27164404D01*
X52741190Y-27202500D01*
X52512619Y-27164404D02*
X52055476Y-27164404D01*
X52284047Y-27964404D02*
X52284047Y-27164404D01*
X46243604Y-22104404D02*
X45786461Y-22104404D01*
X46015032Y-22904404D02*
X46015032Y-22104404D01*
X45595985Y-22104404D02*
X45062651Y-22904404D01*
X45062651Y-22104404D02*
X45595985Y-22904404D01*
X44605508Y-22104404D02*
X44529318Y-22104404D01*
X44453128Y-22142500D01*
X44415032Y-22180595D01*
X44376937Y-22256785D01*
X44338842Y-22409166D01*
X44338842Y-22599642D01*
X44376937Y-22752023D01*
X44415032Y-22828214D01*
X44453128Y-22866309D01*
X44529318Y-22904404D01*
X44605508Y-22904404D01*
X44681699Y-22866309D01*
X44719794Y-22828214D01*
X44757889Y-22752023D01*
X44795985Y-22599642D01*
X44795985Y-22409166D01*
X44757889Y-22256785D01*
X44719794Y-22180595D01*
X44681699Y-22142500D01*
X44605508Y-22104404D01*
X43424556Y-22066309D02*
X44110270Y-23094880D01*
X43157889Y-22904404D02*
X43157889Y-22104404D01*
X42967413Y-22104404D01*
X42853128Y-22142500D01*
X42776937Y-22218690D01*
X42738842Y-22294880D01*
X42700747Y-22447261D01*
X42700747Y-22561547D01*
X42738842Y-22713928D01*
X42776937Y-22790119D01*
X42853128Y-22866309D01*
X42967413Y-22904404D01*
X43157889Y-22904404D01*
X42434080Y-22104404D02*
X41938842Y-22104404D01*
X42205508Y-22409166D01*
X42091223Y-22409166D01*
X42015032Y-22447261D01*
X41976937Y-22485357D01*
X41938842Y-22561547D01*
X41938842Y-22752023D01*
X41976937Y-22828214D01*
X42015032Y-22866309D01*
X42091223Y-22904404D01*
X42319794Y-22904404D01*
X42395985Y-22866309D01*
X42434080Y-22828214D01*
X53409809Y-47885357D02*
X53295523Y-47923452D01*
X53257428Y-47961547D01*
X53219333Y-48037738D01*
X53219333Y-48152023D01*
X53257428Y-48228214D01*
X53295523Y-48266309D01*
X53371714Y-48304404D01*
X53676476Y-48304404D01*
X53676476Y-47504404D01*
X53409809Y-47504404D01*
X53333619Y-47542500D01*
X53295523Y-47580595D01*
X53257428Y-47656785D01*
X53257428Y-47732976D01*
X53295523Y-47809166D01*
X53333619Y-47847261D01*
X53409809Y-47885357D01*
X53676476Y-47885357D01*
X52914571Y-47580595D02*
X52876476Y-47542500D01*
X52800285Y-47504404D01*
X52609809Y-47504404D01*
X52533619Y-47542500D01*
X52495523Y-47580595D01*
X52457428Y-47656785D01*
X52457428Y-47732976D01*
X52495523Y-47847261D01*
X52952666Y-48304404D01*
X52457428Y-48304404D01*
X53352666Y-40265357D02*
X53619333Y-40265357D01*
X53619333Y-40684404D02*
X53619333Y-39884404D01*
X53238380Y-39884404D01*
X53009809Y-39884404D02*
X52476476Y-39884404D01*
X52819333Y-40684404D01*
X53352666Y-37725357D02*
X53619333Y-37725357D01*
X53619333Y-38144404D02*
X53619333Y-37344404D01*
X53238380Y-37344404D01*
X52590761Y-37344404D02*
X52743142Y-37344404D01*
X52819333Y-37382500D01*
X52857428Y-37420595D01*
X52933619Y-37534880D01*
X52971714Y-37687261D01*
X52971714Y-37992023D01*
X52933619Y-38068214D01*
X52895523Y-38106309D01*
X52819333Y-38144404D01*
X52666952Y-38144404D01*
X52590761Y-38106309D01*
X52552666Y-38068214D01*
X52514571Y-37992023D01*
X52514571Y-37801547D01*
X52552666Y-37725357D01*
X52590761Y-37687261D01*
X52666952Y-37649166D01*
X52819333Y-37649166D01*
X52895523Y-37687261D01*
X52933619Y-37725357D01*
X52971714Y-37801547D01*
X53352666Y-35185357D02*
X53619333Y-35185357D01*
X53619333Y-35604404D02*
X53619333Y-34804404D01*
X53238380Y-34804404D01*
X52552666Y-34804404D02*
X52933619Y-34804404D01*
X52971714Y-35185357D01*
X52933619Y-35147261D01*
X52857428Y-35109166D01*
X52666952Y-35109166D01*
X52590761Y-35147261D01*
X52552666Y-35185357D01*
X52514571Y-35261547D01*
X52514571Y-35452023D01*
X52552666Y-35528214D01*
X52590761Y-35566309D01*
X52666952Y-35604404D01*
X52857428Y-35604404D01*
X52933619Y-35566309D01*
X52971714Y-35528214D01*
X53638380Y-22904404D02*
X53905047Y-22523452D01*
X54095523Y-22904404D02*
X54095523Y-22104404D01*
X53790761Y-22104404D01*
X53714571Y-22142500D01*
X53676476Y-22180595D01*
X53638380Y-22256785D01*
X53638380Y-22371071D01*
X53676476Y-22447261D01*
X53714571Y-22485357D01*
X53790761Y-22523452D01*
X54095523Y-22523452D01*
X53333619Y-22675833D02*
X52952666Y-22675833D01*
X53409809Y-22904404D02*
X53143142Y-22104404D01*
X52876476Y-22904404D01*
X52686000Y-22104404D02*
X52495523Y-22904404D01*
X52343142Y-22332976D01*
X52190761Y-22904404D01*
X52000285Y-22104404D01*
X53695523Y-24682500D02*
X53771714Y-24644404D01*
X53886000Y-24644404D01*
X54000285Y-24682500D01*
X54076476Y-24758690D01*
X54114571Y-24834880D01*
X54152666Y-24987261D01*
X54152666Y-25101547D01*
X54114571Y-25253928D01*
X54076476Y-25330119D01*
X54000285Y-25406309D01*
X53886000Y-25444404D01*
X53809809Y-25444404D01*
X53695523Y-25406309D01*
X53657428Y-25368214D01*
X53657428Y-25101547D01*
X53809809Y-25101547D01*
X53314571Y-25444404D02*
X53314571Y-24644404D01*
X52857428Y-25444404D01*
X52857428Y-24644404D01*
X52476476Y-25444404D02*
X52476476Y-24644404D01*
X52286000Y-24644404D01*
X52171714Y-24682500D01*
X52095523Y-24758690D01*
X52057428Y-24834880D01*
X52019333Y-24987261D01*
X52019333Y-25101547D01*
X52057428Y-25253928D01*
X52095523Y-25330119D01*
X52171714Y-25406309D01*
X52286000Y-25444404D01*
X52476476Y-25444404D01*
X54152666Y-29724404D02*
X53886000Y-30524404D01*
X53619333Y-29724404D01*
X52895523Y-30448214D02*
X52933619Y-30486309D01*
X53047904Y-30524404D01*
X53124095Y-30524404D01*
X53238380Y-30486309D01*
X53314571Y-30410119D01*
X53352666Y-30333928D01*
X53390761Y-30181547D01*
X53390761Y-30067261D01*
X53352666Y-29914880D01*
X53314571Y-29838690D01*
X53238380Y-29762500D01*
X53124095Y-29724404D01*
X53047904Y-29724404D01*
X52933619Y-29762500D01*
X52895523Y-29800595D01*
X52095523Y-30448214D02*
X52133619Y-30486309D01*
X52247904Y-30524404D01*
X52324095Y-30524404D01*
X52438380Y-30486309D01*
X52514571Y-30410119D01*
X52552666Y-30333928D01*
X52590761Y-30181547D01*
X52590761Y-30067261D01*
X52552666Y-29914880D01*
X52514571Y-29838690D01*
X52438380Y-29762500D01*
X52324095Y-29724404D01*
X52247904Y-29724404D01*
X52133619Y-29762500D01*
X52095523Y-29800595D01*
X53352666Y-32645357D02*
X53619333Y-32645357D01*
X53619333Y-33064404D02*
X53619333Y-32264404D01*
X53238380Y-32264404D01*
X52590761Y-32531071D02*
X52590761Y-33064404D01*
X52781238Y-32226309D02*
X52971714Y-32797738D01*
X52476476Y-32797738D01*
X53409809Y-42805357D02*
X53295523Y-42843452D01*
X53257428Y-42881547D01*
X53219333Y-42957738D01*
X53219333Y-43072023D01*
X53257428Y-43148214D01*
X53295523Y-43186309D01*
X53371714Y-43224404D01*
X53676476Y-43224404D01*
X53676476Y-42424404D01*
X53409809Y-42424404D01*
X53333619Y-42462500D01*
X53295523Y-42500595D01*
X53257428Y-42576785D01*
X53257428Y-42652976D01*
X53295523Y-42729166D01*
X53333619Y-42767261D01*
X53409809Y-42805357D01*
X53676476Y-42805357D01*
X52457428Y-43224404D02*
X52914571Y-43224404D01*
X52686000Y-43224404D02*
X52686000Y-42424404D01*
X52762190Y-42538690D01*
X52838380Y-42614880D01*
X52914571Y-42652976D01*
X53409809Y-45345357D02*
X53295523Y-45383452D01*
X53257428Y-45421547D01*
X53219333Y-45497738D01*
X53219333Y-45612023D01*
X53257428Y-45688214D01*
X53295523Y-45726309D01*
X53371714Y-45764404D01*
X53676476Y-45764404D01*
X53676476Y-44964404D01*
X53409809Y-44964404D01*
X53333619Y-45002500D01*
X53295523Y-45040595D01*
X53257428Y-45116785D01*
X53257428Y-45192976D01*
X53295523Y-45269166D01*
X53333619Y-45307261D01*
X53409809Y-45345357D01*
X53676476Y-45345357D01*
X52952666Y-44964404D02*
X52457428Y-44964404D01*
X52724095Y-45269166D01*
X52609809Y-45269166D01*
X52533619Y-45307261D01*
X52495523Y-45345357D01*
X52457428Y-45421547D01*
X52457428Y-45612023D01*
X52495523Y-45688214D01*
X52533619Y-45726309D01*
X52609809Y-45764404D01*
X52838380Y-45764404D01*
X52914571Y-45726309D01*
X52952666Y-45688214D01*
X53409809Y-50425357D02*
X53295523Y-50463452D01*
X53257428Y-50501547D01*
X53219333Y-50577738D01*
X53219333Y-50692023D01*
X53257428Y-50768214D01*
X53295523Y-50806309D01*
X53371714Y-50844404D01*
X53676476Y-50844404D01*
X53676476Y-50044404D01*
X53409809Y-50044404D01*
X53333619Y-50082500D01*
X53295523Y-50120595D01*
X53257428Y-50196785D01*
X53257428Y-50272976D01*
X53295523Y-50349166D01*
X53333619Y-50387261D01*
X53409809Y-50425357D01*
X53676476Y-50425357D01*
X52533619Y-50044404D02*
X52686000Y-50044404D01*
X52762190Y-50082500D01*
X52800285Y-50120595D01*
X52876476Y-50234880D01*
X52914571Y-50387261D01*
X52914571Y-50692023D01*
X52876476Y-50768214D01*
X52838380Y-50806309D01*
X52762190Y-50844404D01*
X52609809Y-50844404D01*
X52533619Y-50806309D01*
X52495523Y-50768214D01*
X52457428Y-50692023D01*
X52457428Y-50501547D01*
X52495523Y-50425357D01*
X52533619Y-50387261D01*
X52609809Y-50349166D01*
X52762190Y-50349166D01*
X52838380Y-50387261D01*
X52876476Y-50425357D01*
X52914571Y-50501547D01*
X42487809Y-50425357D02*
X42373523Y-50463452D01*
X42335428Y-50501547D01*
X42297333Y-50577738D01*
X42297333Y-50692023D01*
X42335428Y-50768214D01*
X42373523Y-50806309D01*
X42449714Y-50844404D01*
X42754476Y-50844404D01*
X42754476Y-50044404D01*
X42487809Y-50044404D01*
X42411619Y-50082500D01*
X42373523Y-50120595D01*
X42335428Y-50196785D01*
X42335428Y-50272976D01*
X42373523Y-50349166D01*
X42411619Y-50387261D01*
X42487809Y-50425357D01*
X42754476Y-50425357D01*
X41573523Y-50044404D02*
X41954476Y-50044404D01*
X41992571Y-50425357D01*
X41954476Y-50387261D01*
X41878285Y-50349166D01*
X41687809Y-50349166D01*
X41611619Y-50387261D01*
X41573523Y-50425357D01*
X41535428Y-50501547D01*
X41535428Y-50692023D01*
X41573523Y-50768214D01*
X41611619Y-50806309D01*
X41687809Y-50844404D01*
X41878285Y-50844404D01*
X41954476Y-50806309D01*
X41992571Y-50768214D01*
X42487809Y-47885357D02*
X42373523Y-47923452D01*
X42335428Y-47961547D01*
X42297333Y-48037738D01*
X42297333Y-48152023D01*
X42335428Y-48228214D01*
X42373523Y-48266309D01*
X42449714Y-48304404D01*
X42754476Y-48304404D01*
X42754476Y-47504404D01*
X42487809Y-47504404D01*
X42411619Y-47542500D01*
X42373523Y-47580595D01*
X42335428Y-47656785D01*
X42335428Y-47732976D01*
X42373523Y-47809166D01*
X42411619Y-47847261D01*
X42487809Y-47885357D01*
X42754476Y-47885357D01*
X41611619Y-47771071D02*
X41611619Y-48304404D01*
X41802095Y-47466309D02*
X41992571Y-48037738D01*
X41497333Y-48037738D01*
X42716380Y-45345357D02*
X42449714Y-45345357D01*
X42335428Y-45764404D02*
X42716380Y-45764404D01*
X42716380Y-44964404D01*
X42335428Y-44964404D01*
X41649714Y-44964404D02*
X41802095Y-44964404D01*
X41878285Y-45002500D01*
X41916380Y-45040595D01*
X41992571Y-45154880D01*
X42030666Y-45307261D01*
X42030666Y-45612023D01*
X41992571Y-45688214D01*
X41954476Y-45726309D01*
X41878285Y-45764404D01*
X41725904Y-45764404D01*
X41649714Y-45726309D01*
X41611619Y-45688214D01*
X41573523Y-45612023D01*
X41573523Y-45421547D01*
X41611619Y-45345357D01*
X41649714Y-45307261D01*
X41725904Y-45269166D01*
X41878285Y-45269166D01*
X41954476Y-45307261D01*
X41992571Y-45345357D01*
X42030666Y-45421547D01*
X42754476Y-43224404D02*
X42754476Y-42424404D01*
X42564000Y-42424404D01*
X42449714Y-42462500D01*
X42373523Y-42538690D01*
X42335428Y-42614880D01*
X42297333Y-42767261D01*
X42297333Y-42881547D01*
X42335428Y-43033928D01*
X42373523Y-43110119D01*
X42449714Y-43186309D01*
X42564000Y-43224404D01*
X42754476Y-43224404D01*
X42030666Y-42424404D02*
X41497333Y-42424404D01*
X41840190Y-43224404D01*
X42297333Y-40608214D02*
X42335428Y-40646309D01*
X42449714Y-40684404D01*
X42525904Y-40684404D01*
X42640190Y-40646309D01*
X42716380Y-40570119D01*
X42754476Y-40493928D01*
X42792571Y-40341547D01*
X42792571Y-40227261D01*
X42754476Y-40074880D01*
X42716380Y-39998690D01*
X42640190Y-39922500D01*
X42525904Y-39884404D01*
X42449714Y-39884404D01*
X42335428Y-39922500D01*
X42297333Y-39960595D01*
X41611619Y-39884404D02*
X41764000Y-39884404D01*
X41840190Y-39922500D01*
X41878285Y-39960595D01*
X41954476Y-40074880D01*
X41992571Y-40227261D01*
X41992571Y-40532023D01*
X41954476Y-40608214D01*
X41916380Y-40646309D01*
X41840190Y-40684404D01*
X41687809Y-40684404D01*
X41611619Y-40646309D01*
X41573523Y-40608214D01*
X41535428Y-40532023D01*
X41535428Y-40341547D01*
X41573523Y-40265357D01*
X41611619Y-40227261D01*
X41687809Y-40189166D01*
X41840190Y-40189166D01*
X41916380Y-40227261D01*
X41954476Y-40265357D01*
X41992571Y-40341547D01*
X42754476Y-38144404D02*
X42754476Y-37344404D01*
X42564000Y-37344404D01*
X42449714Y-37382500D01*
X42373523Y-37458690D01*
X42335428Y-37534880D01*
X42297333Y-37687261D01*
X42297333Y-37801547D01*
X42335428Y-37953928D01*
X42373523Y-38030119D01*
X42449714Y-38106309D01*
X42564000Y-38144404D01*
X42754476Y-38144404D01*
X41611619Y-37611071D02*
X41611619Y-38144404D01*
X41802095Y-37306309D02*
X41992571Y-37877738D01*
X41497333Y-37877738D01*
X42773523Y-27222500D02*
X42849714Y-27184404D01*
X42964000Y-27184404D01*
X43078285Y-27222500D01*
X43154476Y-27298690D01*
X43192571Y-27374880D01*
X43230666Y-27527261D01*
X43230666Y-27641547D01*
X43192571Y-27793928D01*
X43154476Y-27870119D01*
X43078285Y-27946309D01*
X42964000Y-27984404D01*
X42887809Y-27984404D01*
X42773523Y-27946309D01*
X42735428Y-27908214D01*
X42735428Y-27641547D01*
X42887809Y-27641547D01*
X42392571Y-27984404D02*
X42392571Y-27184404D01*
X41935428Y-27984404D01*
X41935428Y-27184404D01*
X41554476Y-27984404D02*
X41554476Y-27184404D01*
X41364000Y-27184404D01*
X41249714Y-27222500D01*
X41173523Y-27298690D01*
X41135428Y-27374880D01*
X41097333Y-27527261D01*
X41097333Y-27641547D01*
X41135428Y-27793928D01*
X41173523Y-27870119D01*
X41249714Y-27946309D01*
X41364000Y-27984404D01*
X41554476Y-27984404D01*
X42773523Y-29762500D02*
X42849714Y-29724404D01*
X42964000Y-29724404D01*
X43078285Y-29762500D01*
X43154476Y-29838690D01*
X43192571Y-29914880D01*
X43230666Y-30067261D01*
X43230666Y-30181547D01*
X43192571Y-30333928D01*
X43154476Y-30410119D01*
X43078285Y-30486309D01*
X42964000Y-30524404D01*
X42887809Y-30524404D01*
X42773523Y-30486309D01*
X42735428Y-30448214D01*
X42735428Y-30181547D01*
X42887809Y-30181547D01*
X42392571Y-30524404D02*
X42392571Y-29724404D01*
X41935428Y-30524404D01*
X41935428Y-29724404D01*
X41554476Y-30524404D02*
X41554476Y-29724404D01*
X41364000Y-29724404D01*
X41249714Y-29762500D01*
X41173523Y-29838690D01*
X41135428Y-29914880D01*
X41097333Y-30067261D01*
X41097333Y-30181547D01*
X41135428Y-30333928D01*
X41173523Y-30410119D01*
X41249714Y-30486309D01*
X41364000Y-30524404D01*
X41554476Y-30524404D01*
X42754476Y-33064404D02*
X42754476Y-32264404D01*
X42564000Y-32264404D01*
X42449714Y-32302500D01*
X42373523Y-32378690D01*
X42335428Y-32454880D01*
X42297333Y-32607261D01*
X42297333Y-32721547D01*
X42335428Y-32873928D01*
X42373523Y-32950119D01*
X42449714Y-33026309D01*
X42564000Y-33064404D01*
X42754476Y-33064404D01*
X41535428Y-33064404D02*
X41992571Y-33064404D01*
X41764000Y-33064404D02*
X41764000Y-32264404D01*
X41840190Y-32378690D01*
X41916380Y-32454880D01*
X41992571Y-32492976D01*
X42754476Y-35604404D02*
X42754476Y-34804404D01*
X42564000Y-34804404D01*
X42449714Y-34842500D01*
X42373523Y-34918690D01*
X42335428Y-34994880D01*
X42297333Y-35147261D01*
X42297333Y-35261547D01*
X42335428Y-35413928D01*
X42373523Y-35490119D01*
X42449714Y-35566309D01*
X42564000Y-35604404D01*
X42754476Y-35604404D01*
X41802095Y-34804404D02*
X41725904Y-34804404D01*
X41649714Y-34842500D01*
X41611619Y-34880595D01*
X41573523Y-34956785D01*
X41535428Y-35109166D01*
X41535428Y-35299642D01*
X41573523Y-35452023D01*
X41611619Y-35528214D01*
X41649714Y-35566309D01*
X41725904Y-35604404D01*
X41802095Y-35604404D01*
X41878285Y-35566309D01*
X41916380Y-35528214D01*
X41954476Y-35452023D01*
X41992571Y-35299642D01*
X41992571Y-35109166D01*
X41954476Y-34956785D01*
X41916380Y-34880595D01*
X41878285Y-34842500D01*
X41802095Y-34804404D01*
X42754476Y-25444404D02*
X42754476Y-24644404D01*
X42564000Y-24644404D01*
X42449714Y-24682500D01*
X42373523Y-24758690D01*
X42335428Y-24834880D01*
X42297333Y-24987261D01*
X42297333Y-25101547D01*
X42335428Y-25253928D01*
X42373523Y-25330119D01*
X42449714Y-25406309D01*
X42564000Y-25444404D01*
X42754476Y-25444404D01*
X41992571Y-24720595D02*
X41954476Y-24682500D01*
X41878285Y-24644404D01*
X41687809Y-24644404D01*
X41611619Y-24682500D01*
X41573523Y-24720595D01*
X41535428Y-24796785D01*
X41535428Y-24872976D01*
X41573523Y-24987261D01*
X42030666Y-25444404D01*
X41535428Y-25444404D01*
X62452083Y-36218761D02*
X62309226Y-36266380D01*
X62071130Y-36266380D01*
X61975892Y-36218761D01*
X61928273Y-36171142D01*
X61880654Y-36075904D01*
X61880654Y-35980666D01*
X61928273Y-35885428D01*
X61975892Y-35837809D01*
X62071130Y-35790190D01*
X62261607Y-35742571D01*
X62356845Y-35694952D01*
X62404464Y-35647333D01*
X62452083Y-35552095D01*
X62452083Y-35456857D01*
X62404464Y-35361619D01*
X62356845Y-35314000D01*
X62261607Y-35266380D01*
X62023511Y-35266380D01*
X61880654Y-35314000D01*
X61547321Y-35266380D02*
X61309226Y-36266380D01*
X61118750Y-35552095D01*
X60928273Y-36266380D01*
X60690178Y-35266380D01*
X59785416Y-36266380D02*
X60356845Y-36266380D01*
X60071130Y-36266380D02*
X60071130Y-35266380D01*
X60166369Y-35409238D01*
X60261607Y-35504476D01*
X60356845Y-35552095D01*
M02*
