M48
; DRILL file {KiCad (5.1.4)-1} date 10/26/2020 8:25:31 AM
; FORMAT={-:-/ absolute / inch / decimal}
; #@! TF.CreationDate,2020-10-26T08:25:31-07:00
; #@! TF.GenerationSoftware,Kicad,Pcbnew,(5.1.4)-1
; #@! TF.FileFunction,Plated,1,2,PTH
FMAT,2
INCH
T1C0.0157
T2C0.0315
T3C0.0430
T4C0.0579
T5C0.0906
%
G90
G05
T1
X8.0659Y-0.8125
X8.0833Y-0.7708
X8.0833Y-0.8542
X8.125Y-0.7534
X8.125Y-0.8716
X8.1667Y-0.7708
X8.1667Y-0.8542
X8.1841Y-0.8125
X0.8159Y-3.5625
X0.8333Y-3.5208
X0.8333Y-3.6042
X0.875Y-3.5034
X0.875Y-3.6216
X0.9167Y-3.5208
X0.9167Y-3.6042
X0.9341Y-3.5625
X4.4409Y-2.1875
X4.4583Y-2.1458
X4.4583Y-2.2292
X4.5Y-2.1284
X4.5Y-2.2466
X4.5417Y-2.1458
X4.5417Y-2.2292
X4.5591Y-2.1875
X0.8159Y-0.8125
X0.8333Y-0.7708
X0.8333Y-0.8542
X0.875Y-0.7534
X0.875Y-0.8716
X0.9167Y-0.7708
X0.9167Y-0.8542
X0.9341Y-0.8125
X8.0659Y-3.5625
X8.0833Y-3.5208
X8.0833Y-3.6042
X8.125Y-3.5034
X8.125Y-3.6216
X8.1667Y-3.5208
X8.1667Y-3.6042
X8.1841Y-3.5625
T2
X2.9688Y-2.4187
X2.9688Y-2.7188
X5.9688Y-2.4187
X5.9688Y-2.7188
X6.7188Y-1.6687
X6.7188Y-1.9688
X3.7188Y-3.1687
X3.7188Y-3.4688
X4.4688Y-2.4187
X4.4688Y-2.7188
X1.4688Y-2.4187
X1.4688Y-2.7188
X2.2188Y-2.4187
X2.2188Y-2.7188
X8.1875Y-1.6687
X8.1875Y-1.9688
X5.9688Y-1.6687
X5.9688Y-1.9688
X5.2188Y-1.6687
X5.2188Y-1.9688
X6.7188Y-2.4187
X6.7188Y-2.7188
X3.7188Y-2.4187
X3.7188Y-2.7188
X3.7188Y-1.6687
X3.7188Y-1.9688
X1.7188Y-3.625
X2.0187Y-3.625
X4.4688Y-1.6687
X4.4688Y-1.9688
X7.4688Y-1.6687
X7.4688Y-1.9688
X3.0625Y-1.6687
X3.0625Y-1.9688
X5.2188Y-2.4187
X5.2188Y-2.7188
X2.8438Y-3.625
X3.1437Y-3.625
X0.8125Y-3.1062
X0.8125Y-3.4062
X8.1875Y-2.4187
X8.1875Y-2.7188
X4.3438Y-3.625
X4.6437Y-3.625
X7.4688Y-2.4187
X7.4688Y-2.7188
X8.1875Y-0.95
X8.1875Y-1.25
X7.4688Y-0.9187
X7.4688Y-1.2188
X2.9375Y-0.9187
X2.9375Y-1.2188
X2.9375Y-1.6687
X2.9375Y-1.9688
X0.8125Y-1.6687
X0.8125Y-1.9688
X5.9688Y-0.9187
X5.9688Y-1.2188
X5.2188Y-0.9187
X5.2188Y-1.2188
X3.7188Y-0.9187
X3.7188Y-1.2188
X3.0625Y-0.9187
X3.0625Y-1.2188
X6.7188Y-0.9187
X6.7188Y-1.2188
X4.4688Y-0.9187
X4.4688Y-1.2188
X0.8125Y-0.95
X0.8125Y-1.25
X5.1063Y-3.625
X5.4062Y-3.625
X8.1875Y-3.1062
X8.1875Y-3.4062
X6.9688Y-3.625
X7.2687Y-3.625
X5.8438Y-3.625
X6.1437Y-3.625
X5.2812Y-3.1687
X5.2812Y-3.4688
T3
X1.575Y-0.8875
X1.575Y-0.9875
X1.575Y-1.0875
X1.575Y-1.1875
X1.575Y-1.2875
X1.575Y-1.3875
X1.575Y-1.4875
X1.575Y-1.5875
X1.575Y-1.6875
X1.575Y-1.7875
X1.575Y-1.8875
X1.575Y-1.9875
X2.175Y-0.8875
X2.175Y-0.9875
X2.175Y-1.0875
X2.175Y-1.1875
X2.175Y-1.2875
X2.175Y-1.3875
X2.175Y-1.4875
X2.175Y-1.5875
X2.175Y-1.6875
X2.175Y-1.7875
X2.175Y-1.8875
X2.175Y-1.9875
T4
X7.775Y-3.5125
X8.025Y-3.4125
X3.975Y-3.2125
X4.225Y-3.1125
X0.975Y-3.2125
X1.225Y-3.1125
X5.475Y-1.7125
X5.725Y-1.6125
X3.975Y-1.7125
X4.225Y-1.6125
X3.225Y-1.7125
X3.475Y-1.6125
X2.475Y-1.7125
X2.725Y-1.6125
X1.725Y-1.7125
X1.975Y-1.6125
X0.975Y-1.7125
X1.225Y-1.6125
X3.975Y-2.4625
X4.225Y-2.3625
X1.725Y-3.2125
X1.975Y-3.1125
X6.975Y-2.4625
X7.225Y-2.3625
X0.975Y-2.4625
X1.225Y-2.3625
X1.725Y-2.4625
X1.975Y-2.3625
X6.225Y-1.7125
X6.475Y-1.6125
X4.725Y-1.7125
X4.975Y-1.6125
X4.725Y-2.4625
X4.975Y-2.3625
X7.725Y-2.4625
X7.975Y-2.3625
X3.225Y-2.4625
X3.475Y-2.3625
X7.725Y-1.7125
X7.975Y-1.6125
X4.35Y-3.2125
X4.6Y-3.1125
X6.975Y-1.7125
X7.225Y-1.6125
X2.475Y-2.4625
X2.725Y-2.3625
X2.475Y-3.2125
X2.725Y-3.1125
X5.475Y-2.4625
X5.725Y-2.3625
X6.225Y-2.4625
X6.475Y-2.3625
X3.275Y-3.5125
X3.525Y-3.4125
X5.475Y-3.2125
X5.725Y-3.1125
X6.275Y-3.5125
X6.525Y-3.4125
X3.275Y-3.5125
X3.525Y-3.4125
X1.2125Y-3.5125
X1.4625Y-3.4125
X5.475Y-3.2125
X5.725Y-3.1125
X4.775Y-3.5125
X5.025Y-3.4125
X7.5375Y-3.2125
X7.7875Y-3.1125
X5.85Y-3.2125
X6.1Y-3.1125
X6.975Y-3.2125
X7.225Y-3.1125
X4.35Y-3.2125
X4.6Y-3.1125
X2.85Y-3.2125
X3.1Y-3.1125
X6.975Y-0.9625
X7.225Y-0.8625
X6.225Y-0.9625
X6.475Y-0.8625
X2.475Y-0.9625
X2.725Y-0.8625
X4.725Y-0.9625
X4.975Y-0.8625
X3.975Y-0.9625
X4.225Y-0.8625
X0.975Y-0.9625
X1.225Y-0.8625
X3.225Y-0.9625
X3.475Y-0.8625
X7.725Y-0.9625
X7.975Y-0.8625
X1.725Y-0.9625
X1.975Y-0.8625
X5.475Y-0.9625
X5.725Y-0.8625
T5
X8.125Y-0.8125
X0.875Y-3.5625
X4.5Y-2.1875
X0.875Y-0.8125
X8.125Y-3.5625
T0
M30
