M48
; DRILL file {KiCad (5.1.4)-1} date 10/26/2020 8:25:31 AM
; FORMAT={-:-/ absolute / inch / decimal}
; #@! TF.CreationDate,2020-10-26T08:25:31-07:00
; #@! TF.GenerationSoftware,Kicad,Pcbnew,(5.1.4)-1
; #@! TF.FileFunction,NonPlated,1,2,NPTH
FMAT,2
INCH
T1C0.0689
T2C0.1200
T3C0.1570
%
G90
G05
T1
X7.675Y-3.3125
X8.075Y-3.3125
X3.925Y-3.3125
X4.325Y-3.3125
X0.925Y-3.3125
X1.325Y-3.3125
X5.425Y-1.8125
X5.825Y-1.8125
X3.925Y-1.8125
X4.325Y-1.8125
X3.175Y-1.8125
X3.575Y-1.8125
X2.425Y-1.8125
X2.825Y-1.8125
X1.675Y-1.8125
X2.075Y-1.8125
X0.925Y-1.8125
X1.325Y-1.8125
X3.925Y-2.5625
X4.325Y-2.5625
X1.675Y-3.3125
X2.075Y-3.3125
X6.925Y-2.5625
X7.325Y-2.5625
X0.925Y-2.5625
X1.325Y-2.5625
X1.675Y-2.5625
X2.075Y-2.5625
X6.175Y-1.8125
X6.575Y-1.8125
X4.675Y-1.8125
X5.075Y-1.8125
X4.675Y-2.5625
X5.075Y-2.5625
X7.675Y-2.5625
X8.075Y-2.5625
X3.175Y-2.5625
X3.575Y-2.5625
X7.675Y-1.8125
X8.075Y-1.8125
X4.3Y-3.3125
X4.7Y-3.3125
X6.925Y-1.8125
X7.325Y-1.8125
X2.425Y-2.5625
X2.825Y-2.5625
X2.425Y-3.3125
X2.825Y-3.3125
X5.425Y-2.5625
X5.825Y-2.5625
X6.175Y-2.5625
X6.575Y-2.5625
X3.175Y-3.3125
X3.575Y-3.3125
X5.425Y-3.3125
X5.825Y-3.3125
X6.175Y-3.3125
X6.575Y-3.3125
X3.175Y-3.3125
X3.575Y-3.3125
X1.1125Y-3.3125
X1.5125Y-3.3125
X5.425Y-3.3125
X5.825Y-3.3125
X4.675Y-3.3125
X5.075Y-3.3125
X7.4875Y-3.3125
X7.8875Y-3.3125
X5.8Y-3.3125
X6.2Y-3.3125
X6.925Y-3.3125
X7.325Y-3.3125
X4.3Y-3.3125
X4.7Y-3.3125
X2.8Y-3.3125
X3.2Y-3.3125
X6.925Y-1.0625
X7.325Y-1.0625
X6.175Y-1.0625
X6.575Y-1.0625
X2.425Y-1.0625
X2.825Y-1.0625
X4.675Y-1.0625
X5.075Y-1.0625
X3.925Y-1.0625
X4.325Y-1.0625
X0.925Y-1.0625
X1.325Y-1.0625
X3.175Y-1.0625
X3.575Y-1.0625
X7.675Y-1.0625
X8.075Y-1.0625
X1.675Y-1.0625
X2.075Y-1.0625
X5.425Y-1.0625
X5.825Y-1.0625
T2
X2.25Y-3.5875
X6.75Y-3.5875
X2.625Y-3.5875
X4.125Y-3.5875
X4.875Y-3.5875
X6.375Y-3.5875
X5.5312Y-3.5875
X6.4688Y-3.5875
X4.0312Y-3.5875
X4.9688Y-3.5875
X2.5312Y-3.5875
X3.4688Y-3.5875
T3
X7.875Y-3.3125
X4.125Y-3.3125
X1.125Y-3.3125
X5.625Y-1.8125
X4.125Y-1.8125
X3.375Y-1.8125
X2.625Y-1.8125
X1.875Y-1.8125
X1.125Y-1.8125
X4.125Y-2.5625
X1.875Y-3.3125
X7.125Y-2.5625
X1.125Y-2.5625
X1.875Y-2.5625
X6.375Y-1.8125
X4.875Y-1.8125
X4.875Y-2.5625
X7.875Y-2.5625
X3.375Y-2.5625
X7.875Y-1.8125
X2.25Y-2.9875
X4.5Y-3.3125
X6.75Y-2.9875
X7.125Y-1.8125
X2.625Y-2.5625
X2.625Y-3.3125
X5.625Y-2.5625
X6.375Y-2.5625
X3.375Y-3.3125
X5.625Y-3.3125
X6.375Y-3.3125
X2.625Y-2.9875
X3.375Y-3.3125
X4.125Y-2.9875
X1.3125Y-3.3125
X4.875Y-2.9875
X5.625Y-3.3125
X6.375Y-2.9875
X4.875Y-3.3125
X7.6875Y-3.3125
X5.5312Y-2.9875
X6.0Y-3.3125
X6.4688Y-2.9875
X7.125Y-3.3125
X4.0312Y-2.9875
X4.5Y-3.3125
X4.9688Y-2.9875
X2.5312Y-2.9875
X3.0Y-3.3125
X3.4688Y-2.9875
X7.125Y-1.0625
X6.375Y-1.0625
X2.625Y-1.0625
X4.875Y-1.0625
X4.125Y-1.0625
X1.125Y-1.0625
X3.375Y-1.0625
X7.875Y-1.0625
X1.875Y-1.0625
X5.625Y-1.0625
T0
M30
